ISO-10303-21;
HEADER;
/* Generated by software containing ST-Developer
 * from STEP Tools, Inc. (www.steptools.com) 
 */
/* OPTION: using custom renumber hook */

FILE_DESCRIPTION(
/* description */ ('STEP AP242 Edition 2',
'CAx-IF Rec.Pracs.---Representation and Presentation of Product Manufa
cturing Information (PMI)---4.0---2014-10-13',
'CAx-IF Rec.Pracs.---3D Tessellated Geometry---0.4---2014-09-14','2;1',
'CAx-IF Rec.Pracs.---User Defined Attributes---1.5---2016-08-15'),
/* implementation_level */ '2;1');

FILE_NAME(
/* name */ 'Part Studio 1 - Part 1',
/* time_stamp */ '2026-09-16T23:08:45Z',
/* author */ (''),
/* organization */ (''),
/* preprocessor_version */ 'ST-DEVELOPER v20',
/* originating_system */ 'ONSHAPE BY PTC INC, 1.220',
/* authorisation */ '  ');

FILE_SCHEMA (('AP242_MANAGED_MODEL_BASED_3D_ENGINEERING_MIM_LF { 1 0 10303 442 3 1 4 }'));
ENDSEC;

DATA;
#10=SHAPE_REPRESENTATION_RELATIONSHIP('','',#321,#11);
#11=ADVANCED_BREP_SHAPE_REPRESENTATION('',(#319),#545);
#12=B_SPLINE_CURVE_WITH_KNOTS('',2,(#524,#525,#526),.UNSPECIFIED.,.F.,.F.,
(3,3),(0.,1.),.PIECEWISE_BEZIER_KNOTS.);
#13=B_SPLINE_CURVE_WITH_KNOTS('',2,(#531,#532,#533),.UNSPECIFIED.,.F.,.F.,
(3,3),(0.,1.),.PIECEWISE_BEZIER_KNOTS.);
#14=B_SPLINE_SURFACE_WITH_KNOTS('',3,1,((#516,#517),(#518,#519),(#520,#521),
(#522,#523)),.SURF_OF_LINEAR_EXTRUSION.,.F.,.F.,.F.,(4,4),(2,2),(0.,1.),
(0.,1.),.PIECEWISE_BEZIER_KNOTS.);
#15=CYLINDRICAL_SURFACE('',#329,0.0075);
#16=CYLINDRICAL_SURFACE('',#344,0.00255);
#17=CYLINDRICAL_SURFACE('',#347,0.0005);
#18=CYLINDRICAL_SURFACE('',#348,0.0005);
#19=CYLINDRICAL_SURFACE('',#349,0.0005);
#20=CYLINDRICAL_SURFACE('',#350,0.0005);
#21=LINE('',#449,#45);
#22=LINE('',#454,#46);
#23=LINE('',#458,#47);
#24=LINE('',#462,#48);
#25=LINE('',#466,#49);
#26=LINE('',#471,#50);
#27=LINE('',#478,#51);
#28=LINE('',#481,#52);
#29=LINE('',#482,#53);
#30=LINE('',#484,#54);
#31=LINE('',#487,#55);
#32=LINE('',#488,#56);
#33=LINE('',#490,#57);
#34=LINE('',#492,#58);
#35=LINE('',#494,#59);
#36=LINE('',#496,#60);
#37=LINE('',#499,#61);
#38=LINE('',#500,#62);
#39=LINE('',#529,#63);
#40=LINE('',#535,#64);
#41=LINE('',#537,#65);
#42=LINE('',#538,#66);
#43=LINE('',#540,#67);
#44=LINE('',#541,#68);
#45=VECTOR('',#361,1.);
#46=VECTOR('',#364,1.);
#47=VECTOR('',#367,1.);
#48=VECTOR('',#370,1.);
#49=VECTOR('',#375,1.);
#50=VECTOR('',#378,1.);
#51=VECTOR('',#387,1.);
#52=VECTOR('',#388,1.);
#53=VECTOR('',#389,1.);
#54=VECTOR('',#392,1.);
#55=VECTOR('',#393,1.);
#56=VECTOR('',#394,1.);
#57=VECTOR('',#397,1.);
#58=VECTOR('',#398,1.);
#59=VECTOR('',#399,1.);
#60=VECTOR('',#402,1.);
#61=VECTOR('',#403,1.);
#62=VECTOR('',#404,1.);
#63=VECTOR('',#431,1.);
#64=VECTOR('',#432,1.);
#65=VECTOR('',#435,1.);
#66=VECTOR('',#436,1.);
#67=VECTOR('',#439,1.);
#68=VECTOR('',#440,1.);
#69=ORIENTED_EDGE('',*,*,#149,.T.);
#70=ORIENTED_EDGE('',*,*,#150,.F.);
#71=ORIENTED_EDGE('',*,*,#151,.T.);
#72=ORIENTED_EDGE('',*,*,#152,.T.);
#73=ORIENTED_EDGE('',*,*,#153,.T.);
#74=ORIENTED_EDGE('',*,*,#154,.T.);
#75=ORIENTED_EDGE('',*,*,#155,.T.);
#76=ORIENTED_EDGE('',*,*,#156,.F.);
#77=ORIENTED_EDGE('',*,*,#157,.T.);
#78=ORIENTED_EDGE('',*,*,#158,.F.);
#79=ORIENTED_EDGE('',*,*,#159,.T.);
#80=ORIENTED_EDGE('',*,*,#160,.T.);
#81=ORIENTED_EDGE('',*,*,#161,.F.);
#82=ORIENTED_EDGE('',*,*,#149,.F.);
#83=ORIENTED_EDGE('',*,*,#162,.T.);
#84=ORIENTED_EDGE('',*,*,#162,.F.);
#85=ORIENTED_EDGE('',*,*,#163,.T.);
#86=ORIENTED_EDGE('',*,*,#164,.T.);
#87=ORIENTED_EDGE('',*,*,#152,.F.);
#88=ORIENTED_EDGE('',*,*,#165,.T.);
#89=ORIENTED_EDGE('',*,*,#166,.F.);
#90=ORIENTED_EDGE('',*,*,#167,.T.);
#91=ORIENTED_EDGE('',*,*,#150,.T.);
#92=ORIENTED_EDGE('',*,*,#168,.T.);
#93=ORIENTED_EDGE('',*,*,#156,.T.);
#94=ORIENTED_EDGE('',*,*,#169,.T.);
#95=ORIENTED_EDGE('',*,*,#170,.F.);
#96=ORIENTED_EDGE('',*,*,#171,.T.);
#97=ORIENTED_EDGE('',*,*,#172,.T.);
#98=ORIENTED_EDGE('',*,*,#173,.T.);
#99=ORIENTED_EDGE('',*,*,#154,.F.);
#100=ORIENTED_EDGE('',*,*,#174,.T.);
#101=ORIENTED_EDGE('',*,*,#175,.F.);
#102=ORIENTED_EDGE('',*,*,#170,.T.);
#103=ORIENTED_EDGE('',*,*,#176,.T.);
#104=ORIENTED_EDGE('',*,*,#172,.F.);
#105=ORIENTED_EDGE('',*,*,#177,.T.);
#106=ORIENTED_EDGE('',*,*,#163,.F.);
#107=ORIENTED_EDGE('',*,*,#178,.T.);
#108=ORIENTED_EDGE('',*,*,#166,.T.);
#109=ORIENTED_EDGE('',*,*,#179,.T.);
#110=ORIENTED_EDGE('',*,*,#180,.F.);
#111=ORIENTED_EDGE('',*,*,#175,.T.);
#112=ORIENTED_EDGE('',*,*,#180,.T.);
#113=ORIENTED_EDGE('',*,*,#176,.F.);
#114=ORIENTED_EDGE('',*,*,#169,.F.);
#115=ORIENTED_EDGE('',*,*,#155,.F.);
#116=ORIENTED_EDGE('',*,*,#173,.F.);
#117=ORIENTED_EDGE('',*,*,#177,.F.);
#118=ORIENTED_EDGE('',*,*,#174,.F.);
#119=ORIENTED_EDGE('',*,*,#153,.F.);
#120=ORIENTED_EDGE('',*,*,#164,.F.);
#121=ORIENTED_EDGE('',*,*,#178,.F.);
#122=ORIENTED_EDGE('',*,*,#165,.F.);
#123=ORIENTED_EDGE('',*,*,#151,.F.);
#124=ORIENTED_EDGE('',*,*,#167,.F.);
#125=ORIENTED_EDGE('',*,*,#179,.F.);
#126=ORIENTED_EDGE('',*,*,#168,.F.);
#127=ORIENTED_EDGE('',*,*,#157,.F.);
#128=ORIENTED_EDGE('',*,*,#171,.F.);
#129=ORIENTED_EDGE('',*,*,#181,.F.);
#130=ORIENTED_EDGE('',*,*,#182,.F.);
#131=ORIENTED_EDGE('',*,*,#183,.T.);
#132=ORIENTED_EDGE('',*,*,#184,.T.);
#133=ORIENTED_EDGE('',*,*,#185,.F.);
#134=ORIENTED_EDGE('',*,*,#160,.F.);
#135=ORIENTED_EDGE('',*,*,#186,.T.);
#136=ORIENTED_EDGE('',*,*,#182,.T.);
#137=ORIENTED_EDGE('',*,*,#187,.F.);
#138=ORIENTED_EDGE('',*,*,#184,.F.);
#139=ORIENTED_EDGE('',*,*,#188,.T.);
#140=ORIENTED_EDGE('',*,*,#158,.T.);
#141=ORIENTED_EDGE('',*,*,#183,.F.);
#142=ORIENTED_EDGE('',*,*,#186,.F.);
#143=ORIENTED_EDGE('',*,*,#159,.F.);
#144=ORIENTED_EDGE('',*,*,#188,.F.);
#145=ORIENTED_EDGE('',*,*,#181,.T.);
#146=ORIENTED_EDGE('',*,*,#187,.T.);
#147=ORIENTED_EDGE('',*,*,#161,.T.);
#148=ORIENTED_EDGE('',*,*,#185,.T.);
#149=EDGE_CURVE('',#189,#189,#217,.T.);
#150=EDGE_CURVE('',#190,#191,#21,.T.);
#151=EDGE_CURVE('',#190,#192,#218,.F.);
#152=EDGE_CURVE('',#192,#193,#22,.T.);
#153=EDGE_CURVE('',#193,#194,#219,.F.);
#154=EDGE_CURVE('',#194,#195,#23,.T.);
#155=EDGE_CURVE('',#195,#196,#220,.F.);
#156=EDGE_CURVE('',#197,#196,#24,.T.);
#157=EDGE_CURVE('',#197,#191,#221,.F.);
#158=EDGE_CURVE('',#198,#199,#25,.T.);
#159=EDGE_CURVE('',#198,#200,#222,.T.);
#160=EDGE_CURVE('',#200,#201,#26,.T.);
#161=EDGE_CURVE('',#199,#201,#223,.T.);
#162=EDGE_CURVE('',#202,#202,#224,.T.);
#163=EDGE_CURVE('',#203,#204,#27,.T.);
#164=EDGE_CURVE('',#204,#193,#28,.T.);
#165=EDGE_CURVE('',#192,#203,#29,.F.);
#166=EDGE_CURVE('',#205,#206,#30,.T.);
#167=EDGE_CURVE('',#205,#190,#31,.T.);
#168=EDGE_CURVE('',#191,#206,#32,.F.);
#169=EDGE_CURVE('',#196,#207,#33,.F.);
#170=EDGE_CURVE('',#208,#207,#34,.T.);
#171=EDGE_CURVE('',#208,#197,#35,.T.);
#172=EDGE_CURVE('',#209,#210,#36,.T.);
#173=EDGE_CURVE('',#210,#195,#37,.T.);
#174=EDGE_CURVE('',#194,#209,#38,.F.);
#175=EDGE_CURVE('',#211,#211,#225,.T.);
#176=EDGE_CURVE('',#207,#210,#226,.T.);
#177=EDGE_CURVE('',#209,#204,#227,.T.);
#178=EDGE_CURVE('',#203,#205,#228,.T.);
#179=EDGE_CURVE('',#206,#208,#229,.T.);
#180=EDGE_CURVE('',#212,#212,#230,.T.);
#181=EDGE_CURVE('',#213,#214,#12,.T.);
#182=EDGE_CURVE('',#215,#213,#39,.T.);
#183=EDGE_CURVE('',#215,#216,#13,.T.);
#184=EDGE_CURVE('',#216,#214,#40,.T.);
#185=EDGE_CURVE('',#201,#213,#41,.T.);
#186=EDGE_CURVE('',#200,#215,#42,.T.);
#187=EDGE_CURVE('',#214,#199,#43,.T.);
#188=EDGE_CURVE('',#216,#198,#44,.T.);
#189=VERTEX_POINT('',#448);
#190=VERTEX_POINT('',#450);
#191=VERTEX_POINT('',#451);
#192=VERTEX_POINT('',#453);
#193=VERTEX_POINT('',#455);
#194=VERTEX_POINT('',#457);
#195=VERTEX_POINT('',#459);
#196=VERTEX_POINT('',#461);
#197=VERTEX_POINT('',#463);
#198=VERTEX_POINT('',#467);
#199=VERTEX_POINT('',#468);
#200=VERTEX_POINT('',#470);
#201=VERTEX_POINT('',#472);
#202=VERTEX_POINT('',#475);
#203=VERTEX_POINT('',#479);
#204=VERTEX_POINT('',#480);
#205=VERTEX_POINT('',#485);
#206=VERTEX_POINT('',#486);
#207=VERTEX_POINT('',#491);
#208=VERTEX_POINT('',#493);
#209=VERTEX_POINT('',#497);
#210=VERTEX_POINT('',#498);
#211=VERTEX_POINT('',#503);
#212=VERTEX_POINT('',#510);
#213=VERTEX_POINT('',#527);
#214=VERTEX_POINT('',#528);
#215=VERTEX_POINT('',#530);
#216=VERTEX_POINT('',#534);
#217=CIRCLE('',#324,0.0075);
#218=CIRCLE('',#325,0.0005);
#219=CIRCLE('',#326,0.0005);
#220=CIRCLE('',#327,0.0005);
#221=CIRCLE('',#328,0.0005);
#222=CIRCLE('',#330,0.0075);
#223=CIRCLE('',#331,0.0075);
#224=CIRCLE('',#332,0.0075);
#225=CIRCLE('',#339,0.00255);
#226=CIRCLE('',#340,0.0005);
#227=CIRCLE('',#341,0.0005);
#228=CIRCLE('',#342,0.0005);
#229=CIRCLE('',#343,0.0005);
#230=CIRCLE('',#345,0.00255);
#231=EDGE_LOOP('',(#69));
#232=EDGE_LOOP('',(#70,#71,#72,#73,#74,#75,#76,#77));
#233=EDGE_LOOP('',(#78,#79,#80,#81));
#234=EDGE_LOOP('',(#82));
#235=EDGE_LOOP('',(#83));
#236=EDGE_LOOP('',(#84));
#237=EDGE_LOOP('',(#85,#86,#87,#88));
#238=EDGE_LOOP('',(#89,#90,#91,#92));
#239=EDGE_LOOP('',(#93,#94,#95,#96));
#240=EDGE_LOOP('',(#97,#98,#99,#100));
#241=EDGE_LOOP('',(#101));
#242=EDGE_LOOP('',(#102,#103,#104,#105,#106,#107,#108,#109));
#243=EDGE_LOOP('',(#110));
#244=EDGE_LOOP('',(#111));
#245=EDGE_LOOP('',(#112));
#246=EDGE_LOOP('',(#113,#114,#115,#116));
#247=EDGE_LOOP('',(#117,#118,#119,#120));
#248=EDGE_LOOP('',(#121,#122,#123,#124));
#249=EDGE_LOOP('',(#125,#126,#127,#128));
#250=EDGE_LOOP('',(#129,#130,#131,#132));
#251=EDGE_LOOP('',(#133,#134,#135,#136));
#252=EDGE_LOOP('',(#137,#138,#139,#140));
#253=EDGE_LOOP('',(#141,#142,#143,#144));
#254=EDGE_LOOP('',(#145,#146,#147,#148));
#255=FACE_BOUND('',#231,.T.);
#256=FACE_BOUND('',#232,.T.);
#257=FACE_BOUND('',#233,.T.);
#258=FACE_BOUND('',#234,.T.);
#259=FACE_BOUND('',#235,.T.);
#260=FACE_BOUND('',#236,.T.);
#261=FACE_BOUND('',#237,.T.);
#262=FACE_BOUND('',#238,.T.);
#263=FACE_BOUND('',#239,.T.);
#264=FACE_BOUND('',#240,.T.);
#265=FACE_BOUND('',#241,.T.);
#266=FACE_BOUND('',#242,.T.);
#267=FACE_BOUND('',#243,.T.);
#268=FACE_BOUND('',#244,.T.);
#269=FACE_BOUND('',#245,.T.);
#270=FACE_BOUND('',#246,.T.);
#271=FACE_BOUND('',#247,.T.);
#272=FACE_BOUND('',#248,.T.);
#273=FACE_BOUND('',#249,.T.);
#274=FACE_BOUND('',#250,.T.);
#275=FACE_BOUND('',#251,.T.);
#276=FACE_BOUND('',#252,.T.);
#277=FACE_BOUND('',#253,.T.);
#278=FACE_BOUND('',#254,.T.);
#279=PLANE('',#323);
#280=PLANE('',#333);
#281=PLANE('',#334);
#282=PLANE('',#335);
#283=PLANE('',#336);
#284=PLANE('',#337);
#285=PLANE('',#338);
#286=PLANE('',#346);
#287=PLANE('',#351);
#288=PLANE('',#352);
#289=PLANE('',#353);
#290=PLANE('',#354);
#291=ADVANCED_FACE('',(#255,#256),#279,.T.);
#292=ADVANCED_FACE('',(#257,#258,#259),#15,.T.);
#293=ADVANCED_FACE('',(#260),#280,.F.);
#294=ADVANCED_FACE('',(#261),#281,.T.);
#295=ADVANCED_FACE('',(#262),#282,.F.);
#296=ADVANCED_FACE('',(#263),#283,.F.);
#297=ADVANCED_FACE('',(#264),#284,.T.);
#298=ADVANCED_FACE('',(#265,#266),#285,.T.);
#299=ADVANCED_FACE('',(#267,#268),#16,.F.);
#300=ADVANCED_FACE('',(#269),#286,.T.);
#301=ADVANCED_FACE('',(#270),#17,.T.);
#302=ADVANCED_FACE('',(#271),#18,.T.);
#303=ADVANCED_FACE('',(#272),#19,.T.);
#304=ADVANCED_FACE('',(#273),#20,.T.);
#305=ADVANCED_FACE('',(#274),#14,.T.);
#306=ADVANCED_FACE('',(#275),#287,.T.);
#307=ADVANCED_FACE('',(#276),#288,.T.);
#308=ADVANCED_FACE('',(#277),#289,.T.);
#309=ADVANCED_FACE('',(#278),#290,.F.);
#310=CLOSED_SHELL('',(#291,#292,#293,#294,#295,#296,#297,#298,#299,#300,
#301,#302,#303,#304,#305,#306,#307,#308,#309));
#311=STYLED_ITEM('',(#312),#319);
#312=PRESENTATION_STYLE_ASSIGNMENT((#313));
#313=SURFACE_STYLE_USAGE(.BOTH.,#314);
#314=SURFACE_SIDE_STYLE('',(#315));
#315=SURFACE_STYLE_FILL_AREA(#316);
#316=FILL_AREA_STYLE('',(#317));
#317=FILL_AREA_STYLE_COLOUR('',#318);
#318=COLOUR_RGB('',0.615686274509804,0.811764705882353,0.929411764705882);
#319=MANIFOLD_SOLID_BREP('Part 1',#310);
#320=SHAPE_DEFINITION_REPRESENTATION(#550,#321);
#321=SHAPE_REPRESENTATION('Part 1',(#322),#545);
#322=AXIS2_PLACEMENT_3D('',#445,#355,#356);
#323=AXIS2_PLACEMENT_3D('',#446,#357,#358);
#324=AXIS2_PLACEMENT_3D('',#447,#359,#360);
#325=AXIS2_PLACEMENT_3D('',#452,#362,#363);
#326=AXIS2_PLACEMENT_3D('',#456,#365,#366);
#327=AXIS2_PLACEMENT_3D('',#460,#368,#369);
#328=AXIS2_PLACEMENT_3D('',#464,#371,#372);
#329=AXIS2_PLACEMENT_3D('',#465,#373,#374);
#330=AXIS2_PLACEMENT_3D('',#469,#376,#377);
#331=AXIS2_PLACEMENT_3D('',#473,#379,#380);
#332=AXIS2_PLACEMENT_3D('',#474,#381,#382);
#333=AXIS2_PLACEMENT_3D('',#476,#383,#384);
#334=AXIS2_PLACEMENT_3D('',#477,#385,#386);
#335=AXIS2_PLACEMENT_3D('',#483,#390,#391);
#336=AXIS2_PLACEMENT_3D('',#489,#395,#396);
#337=AXIS2_PLACEMENT_3D('',#495,#400,#401);
#338=AXIS2_PLACEMENT_3D('',#501,#405,#406);
#339=AXIS2_PLACEMENT_3D('',#502,#407,#408);
#340=AXIS2_PLACEMENT_3D('',#504,#409,#410);
#341=AXIS2_PLACEMENT_3D('',#505,#411,#412);
#342=AXIS2_PLACEMENT_3D('',#506,#413,#414);
#343=AXIS2_PLACEMENT_3D('',#507,#415,#416);
#344=AXIS2_PLACEMENT_3D('',#508,#417,#418);
#345=AXIS2_PLACEMENT_3D('',#509,#419,#420);
#346=AXIS2_PLACEMENT_3D('',#511,#421,#422);
#347=AXIS2_PLACEMENT_3D('',#512,#423,#424);
#348=AXIS2_PLACEMENT_3D('',#513,#425,#426);
#349=AXIS2_PLACEMENT_3D('',#514,#427,#428);
#350=AXIS2_PLACEMENT_3D('',#515,#429,#430);
#351=AXIS2_PLACEMENT_3D('',#536,#433,#434);
#352=AXIS2_PLACEMENT_3D('',#539,#437,#438);
#353=AXIS2_PLACEMENT_3D('',#542,#441,#442);
#354=AXIS2_PLACEMENT_3D('',#543,#443,#444);
#355=DIRECTION('',(0.,0.,1.));
#356=DIRECTION('',(1.,0.,0.));
#357=DIRECTION('',(0.,0.,1.));
#358=DIRECTION('',(1.,0.,0.));
#359=DIRECTION('',(0.,0.,1.));
#360=DIRECTION('',(1.,0.,0.));
#361=DIRECTION('',(-1.,0.,0.));
#362=DIRECTION('',(0.,0.,1.));
#363=DIRECTION('',(1.,0.,0.));
#364=DIRECTION('',(0.,-1.,0.));
#365=DIRECTION('',(0.,0.,1.));
#366=DIRECTION('',(1.,0.,0.));
#367=DIRECTION('',(-1.,0.,0.));
#368=DIRECTION('',(0.,0.,1.));
#369=DIRECTION('',(1.,0.,0.));
#370=DIRECTION('',(0.,-1.,0.));
#371=DIRECTION('',(0.,0.,1.));
#372=DIRECTION('',(1.,0.,0.));
#373=DIRECTION('',(0.,0.,-1.));
#374=DIRECTION('',(-1.,0.,0.));
#375=DIRECTION('',(0.,0.,-1.));
#376=DIRECTION('',(0.,0.,1.));
#377=DIRECTION('',(1.,0.,0.));
#378=DIRECTION('',(0.,0.,-1.));
#379=DIRECTION('',(0.,0.,1.));
#380=DIRECTION('',(1.,0.,0.));
#381=DIRECTION('',(0.,0.,1.));
#382=DIRECTION('',(1.,0.,0.));
#383=DIRECTION('',(0.,0.,1.));
#384=DIRECTION('',(1.,0.,0.));
#385=DIRECTION('',(1.,0.,0.));
#386=DIRECTION('',(0.,0.,-1.));
#387=DIRECTION('',(0.,-1.,0.));
#388=DIRECTION('',(0.,0.,-1.));
#389=DIRECTION('',(0.,0.,-1.));
#390=DIRECTION('',(0.,-1.,0.));
#391=DIRECTION('',(0.,0.,-1.));
#392=DIRECTION('',(-1.,0.,0.));
#393=DIRECTION('',(0.,0.,-1.));
#394=DIRECTION('',(0.,0.,-1.));
#395=DIRECTION('',(1.,0.,0.));
#396=DIRECTION('',(0.,0.,-1.));
#397=DIRECTION('',(0.,0.,-1.));
#398=DIRECTION('',(0.,-1.,0.));
#399=DIRECTION('',(0.,0.,-1.));
#400=DIRECTION('',(0.,-1.,0.));
#401=DIRECTION('',(0.,0.,-1.));
#402=DIRECTION('',(-1.,0.,0.));
#403=DIRECTION('',(0.,0.,-1.));
#404=DIRECTION('',(0.,0.,-1.));
#405=DIRECTION('',(0.,0.,1.));
#406=DIRECTION('',(1.,0.,0.));
#407=DIRECTION('',(0.,0.,1.));
#408=DIRECTION('',(1.,0.,0.));
#409=DIRECTION('',(0.,0.,1.));
#410=DIRECTION('',(1.,0.,0.));
#411=DIRECTION('',(0.,0.,1.));
#412=DIRECTION('',(1.,0.,0.));
#413=DIRECTION('',(0.,0.,1.));
#414=DIRECTION('',(1.,0.,0.));
#415=DIRECTION('',(0.,0.,1.));
#416=DIRECTION('',(1.,0.,0.));
#417=DIRECTION('',(0.,0.,1.));
#418=DIRECTION('',(1.,0.,0.));
#419=DIRECTION('',(0.,0.,1.));
#420=DIRECTION('',(1.,0.,0.));
#421=DIRECTION('',(0.,0.,1.));
#422=DIRECTION('',(1.,0.,0.));
#423=DIRECTION('',(0.,0.,1.));
#424=DIRECTION('',(1.,0.,0.));
#425=DIRECTION('',(0.,0.,-1.));
#426=DIRECTION('',(-1.,0.,0.));
#427=DIRECTION('',(0.,0.,1.));
#428=DIRECTION('',(1.,0.,0.));
#429=DIRECTION('',(0.,0.,-1.));
#430=DIRECTION('',(-1.,0.,0.));
#431=DIRECTION('',(0.,0.,-1.));
#432=DIRECTION('',(0.,0.,-1.));
#433=DIRECTION('',(-1.,0.,0.));
#434=DIRECTION('',(0.,0.,1.));
#435=DIRECTION('',(0.,1.,0.));
#436=DIRECTION('',(0.,1.,0.));
#437=DIRECTION('',(1.,0.,0.));
#438=DIRECTION('',(0.,0.,-1.));
#439=DIRECTION('',(0.,-1.,0.));
#440=DIRECTION('',(0.,-1.,0.));
#441=DIRECTION('',(0.,0.,1.));
#442=DIRECTION('',(1.,0.,0.));
#443=DIRECTION('',(0.,0.,1.));
#444=DIRECTION('',(1.,0.,0.));
#445=CARTESIAN_POINT('',(0.,0.,0.));
#446=CARTESIAN_POINT('',(0.,0.00325,0.011));
#447=CARTESIAN_POINT('',(1.3010426069826E-18,-4.33680868994202E-18,0.011));
#448=CARTESIAN_POINT('',(0.0075,-4.33680868994202E-18,0.011));
#449=CARTESIAN_POINT('',(0.,0.0044,0.011));
#450=CARTESIAN_POINT('',(0.0039,0.0044,0.011));
#451=CARTESIAN_POINT('',(-0.0039,0.0044,0.011));
#452=CARTESIAN_POINT('',(0.0039,0.0039,0.011));
#453=CARTESIAN_POINT('',(0.0044,0.0039,0.011));
#454=CARTESIAN_POINT('',(0.0044,0.,0.011));
#455=CARTESIAN_POINT('',(0.0044,-0.0039,0.011));
#456=CARTESIAN_POINT('',(0.0039,-0.0039,0.011));
#457=CARTESIAN_POINT('',(0.0039,-0.0044,0.011));
#458=CARTESIAN_POINT('',(0.,-0.0044,0.011));
#459=CARTESIAN_POINT('',(-0.0039,-0.0044,0.011));
#460=CARTESIAN_POINT('',(-0.0039,-0.0039,0.011));
#461=CARTESIAN_POINT('',(-0.0044,-0.0039,0.011));
#462=CARTESIAN_POINT('',(-0.0044,0.,0.011));
#463=CARTESIAN_POINT('',(-0.0044,0.0039,0.011));
#464=CARTESIAN_POINT('',(-0.0039,0.0039,0.011));
#465=CARTESIAN_POINT('',(1.3010426069826E-18,-4.33680868994202E-18,0.011));
#466=CARTESIAN_POINT('',(0.0015,0.00734846922834953,0.0095));
#467=CARTESIAN_POINT('',(0.0015,0.00734846922834953,0.0095));
#468=CARTESIAN_POINT('',(0.0015,0.00734846922834953,0.0015));
#469=CARTESIAN_POINT('',(1.3010426069826E-18,-4.33680868994202E-18,0.0095));
#470=CARTESIAN_POINT('',(-0.0015,0.00734846922834953,0.0095));
#471=CARTESIAN_POINT('',(-0.0015,0.00734846922834953,0.0095));
#472=CARTESIAN_POINT('',(-0.0015,0.00734846922834953,0.0015));
#473=CARTESIAN_POINT('',(1.3010426069826E-18,-4.33680868994202E-18,0.0015));
#474=CARTESIAN_POINT('',(1.3010426069826E-18,-4.33680868994202E-18,0.));
#475=CARTESIAN_POINT('',(0.0075,-4.33680868994202E-18,0.));
#476=CARTESIAN_POINT('',(0.,0.00325,0.));
#477=CARTESIAN_POINT('',(0.0044,0.,0.016));
#478=CARTESIAN_POINT('',(0.0044,0.,0.016));
#479=CARTESIAN_POINT('',(0.0044,0.0039,0.016));
#480=CARTESIAN_POINT('',(0.0044,-0.0039,0.016));
#481=CARTESIAN_POINT('',(0.0044,-0.0039,0.016));
#482=CARTESIAN_POINT('',(0.0044,0.0039,0.016));
#483=CARTESIAN_POINT('',(0.,0.0044,0.016));
#484=CARTESIAN_POINT('',(0.,0.0044,0.016));
#485=CARTESIAN_POINT('',(0.0039,0.0044,0.016));
#486=CARTESIAN_POINT('',(-0.0039,0.0044,0.016));
#487=CARTESIAN_POINT('',(0.0039,0.0044,0.011));
#488=CARTESIAN_POINT('',(-0.0039,0.0044,0.016));
#489=CARTESIAN_POINT('',(-0.0044,0.,0.016));
#490=CARTESIAN_POINT('',(-0.0044,-0.0039,0.016));
#491=CARTESIAN_POINT('',(-0.0044,-0.0039,0.016));
#492=CARTESIAN_POINT('',(-0.0044,0.,0.016));
#493=CARTESIAN_POINT('',(-0.0044,0.0039,0.016));
#494=CARTESIAN_POINT('',(-0.0044,0.0039,0.016));
#495=CARTESIAN_POINT('',(0.,-0.0044,0.016));
#496=CARTESIAN_POINT('',(0.,-0.0044,0.016));
#497=CARTESIAN_POINT('',(0.0039,-0.0044,0.016));
#498=CARTESIAN_POINT('',(-0.0039,-0.0044,0.016));
#499=CARTESIAN_POINT('',(-0.0039,-0.0044,0.011));
#500=CARTESIAN_POINT('',(0.0039,-0.0044,0.016));
#501=CARTESIAN_POINT('',(3.46944695195361E-18,-3.46944695195361E-18,0.016));
#502=CARTESIAN_POINT('',(0.,1.56142466891287E-19,0.016));
#503=CARTESIAN_POINT('',(0.00255,1.56142466891287E-19,0.016));
#504=CARTESIAN_POINT('',(-0.0039,-0.0039,0.016));
#505=CARTESIAN_POINT('',(0.0039,-0.0039,0.016));
#506=CARTESIAN_POINT('',(0.0039,0.0039,0.016));
#507=CARTESIAN_POINT('',(-0.0039,0.0039,0.016));
#508=CARTESIAN_POINT('',(0.,1.56142466891287E-19,0.001));
#509=CARTESIAN_POINT('',(0.,1.56142466891287E-19,0.001));
#510=CARTESIAN_POINT('',(0.00255,1.56142466891287E-19,0.001));
#511=CARTESIAN_POINT('',(0.,0.,0.001));
#512=CARTESIAN_POINT('',(-0.0039,-0.0039,0.016));
#513=CARTESIAN_POINT('',(0.0039,-0.0039,0.016));
#514=CARTESIAN_POINT('',(0.0039,0.0039,0.016));
#515=CARTESIAN_POINT('',(-0.0039,0.0039,0.016));
#516=CARTESIAN_POINT('',(-0.0015,0.0105128268101179,0.0095));
#517=CARTESIAN_POINT('',(-0.0015,0.0105128268101179,0.0015));
#518=CARTESIAN_POINT('',(-0.0005,0.013392837045867,0.0095));
#519=CARTESIAN_POINT('',(-0.0005,0.013392837045867,0.0015));
#520=CARTESIAN_POINT('',(0.0005,0.013392837045867,0.0095));
#521=CARTESIAN_POINT('',(0.0005,0.013392837045867,0.0015));
#522=CARTESIAN_POINT('',(0.0015,0.0105128268101179,0.0095));
#523=CARTESIAN_POINT('',(0.0015,0.0105128268101179,0.0015));
#524=CARTESIAN_POINT('',(-0.0015,0.0105128268101179,0.0015));
#525=CARTESIAN_POINT('',(9.27501703283473E-20,0.0148328421637416,0.0015));
#526=CARTESIAN_POINT('',(0.0015,0.0105128268101179,0.0015));
#527=CARTESIAN_POINT('',(-0.0015,0.0105128268101179,0.0015));
#528=CARTESIAN_POINT('',(0.0015,0.0105128268101179,0.0015));
#529=CARTESIAN_POINT('',(-0.0015,0.0105128268101179,0.0095));
#530=CARTESIAN_POINT('',(-0.0015,0.0105128268101179,0.0095));
#531=CARTESIAN_POINT('',(-0.0015,0.0105128268101179,0.0095));
#532=CARTESIAN_POINT('',(9.27501703283473E-20,0.0148328421637416,0.0095));
#533=CARTESIAN_POINT('',(0.0015,0.0105128268101179,0.0095));
#534=CARTESIAN_POINT('',(0.0015,0.0105128268101179,0.0095));
#535=CARTESIAN_POINT('',(0.0015,0.0105128268101179,0.0095));
#536=CARTESIAN_POINT('',(-0.0015,0.00951282681011795,0.0095));
#537=CARTESIAN_POINT('',(-0.0015,0.00951282681011795,0.0015));
#538=CARTESIAN_POINT('',(-0.0015,0.00951282681011795,0.0095));
#539=CARTESIAN_POINT('',(0.0015,0.00793064801923374,0.0095));
#540=CARTESIAN_POINT('',(0.0015,0.00793064801923374,0.0015));
#541=CARTESIAN_POINT('',(0.0015,0.00793064801923374,0.0095));
#542=CARTESIAN_POINT('',(0.,0.00325,0.0095));
#543=CARTESIAN_POINT('',(0.,0.00325,0.0015));
#544=MECHANICAL_DESIGN_GEOMETRIC_PRESENTATION_REPRESENTATION('',(#311),
#545);
#545=(
GEOMETRIC_REPRESENTATION_CONTEXT(3)
GLOBAL_UNCERTAINTY_ASSIGNED_CONTEXT((#546))
GLOBAL_UNIT_ASSIGNED_CONTEXT((#549,#548,#547))
REPRESENTATION_CONTEXT('Part 1','TOP_LEVEL_ASSEMBLY_PART')
);
#546=UNCERTAINTY_MEASURE_WITH_UNIT(LENGTH_MEASURE(2.E-5),#549,
'DISTANCE_ACCURACY_VALUE','Maximum Tolerance applied to model');
#547=(
NAMED_UNIT(*)
SI_UNIT($,.STERADIAN.)
SOLID_ANGLE_UNIT()
);
#548=(
NAMED_UNIT(*)
PLANE_ANGLE_UNIT()
SI_UNIT($,.RADIAN.)
);
#549=(
LENGTH_UNIT()
NAMED_UNIT(*)
SI_UNIT($,.METRE.)
);
#550=PRODUCT_DEFINITION_SHAPE('','',#551);
#551=PRODUCT_DEFINITION('','',#553,#552);
#552=PRODUCT_DEFINITION_CONTEXT('',#559,'design');
#553=PRODUCT_DEFINITION_FORMATION_WITH_SPECIFIED_SOURCE('','',#555,
 .NOT_KNOWN.);
#554=PRODUCT_RELATED_PRODUCT_CATEGORY('','',(#555));
#555=PRODUCT('Part 1','Part 1','Part 1',(#557));
#556=PRODUCT_CATEGORY('','');
#557=PRODUCT_CONTEXT('',#559,'mechanical');
#558=APPLICATION_PROTOCOL_DEFINITION('international standard',
'ap242_managed_model_based_3d_engineering',2020,#559);
#559=APPLICATION_CONTEXT('managed model based 3d engineering');
ENDSEC;
END-ISO-10303-21;
