ISO-10303-21;
HEADER;
/* Generated by software containing ST-Developer
 * from STEP Tools, Inc. (www.steptools.com) 
 */
/* OPTION: using custom renumber hook */

FILE_DESCRIPTION(
/* description */ ('STEP AP242 Edition 2',
'CAx-IF Rec.Pracs.---Representation and Presentation of Product Manufa
cturing Information (PMI)---4.0---2014-10-13',
'CAx-IF Rec.Pracs.---3D Tessellated Geometry---0.4---2014-09-14','2;1',
'CAx-IF Rec.Pracs.---User Defined Attributes---1.5---2016-08-15'),
/* implementation_level */ '2;1');

FILE_NAME(
/* name */ 'transparent_layer - Default',
/* time_stamp */ '2026-09-16T23:10:17Z',
/* author */ (''),
/* organization */ (''),
/* preprocessor_version */ 'ST-DEVELOPER v20',
/* originating_system */ 'ONSHAPE BY PTC INC, 1.220',
/* authorisation */ '  ');

FILE_SCHEMA (('AP242_MANAGED_MODEL_BASED_3D_ENGINEERING_MIM_LF { 1 0 10303 442 3 1 4 }'));
ENDSEC;

DATA;
#10=SHAPE_REPRESENTATION_RELATIONSHIP('','',#783,#11);
#11=ADVANCED_BREP_SHAPE_REPRESENTATION('',(#781),#1316);
#12=CYLINDRICAL_SURFACE('',#805,0.054075);
#13=CYLINDRICAL_SURFACE('',#807,0.054075);
#14=CYLINDRICAL_SURFACE('',#810,0.054075);
#15=CYLINDRICAL_SURFACE('',#812,0.054075);
#16=CYLINDRICAL_SURFACE('',#814,0.0525000000000008);
#17=CYLINDRICAL_SURFACE('',#818,0.0525000000000008);
#18=CYLINDRICAL_SURFACE('',#822,0.0525000000000008);
#19=CYLINDRICAL_SURFACE('',#826,0.0525000000000008);
#20=CYLINDRICAL_SURFACE('',#830,0.0466725);
#21=CYLINDRICAL_SURFACE('',#832,0.054075);
#22=CYLINDRICAL_SURFACE('',#852,0.0041275);
#23=CYLINDRICAL_SURFACE('',#854,0.0041275);
#24=CYLINDRICAL_SURFACE('',#862,0.0014499971);
#25=CYLINDRICAL_SURFACE('',#863,0.0014499971);
#26=LINE('',#1097,#95);
#27=LINE('',#1102,#96);
#28=LINE('',#1106,#97);
#29=LINE('',#1110,#98);
#30=LINE('',#1114,#99);
#31=LINE('',#1118,#100);
#32=LINE('',#1122,#101);
#33=LINE('',#1126,#102);
#34=LINE('',#1130,#103);
#35=LINE('',#1134,#104);
#36=LINE('',#1138,#105);
#37=LINE('',#1142,#106);
#38=LINE('',#1146,#107);
#39=LINE('',#1151,#108);
#40=LINE('',#1155,#109);
#41=LINE('',#1159,#110);
#42=LINE('',#1168,#111);
#43=LINE('',#1169,#112);
#44=LINE('',#1170,#113);
#45=LINE('',#1171,#114);
#46=LINE('',#1173,#115);
#47=LINE('',#1178,#116);
#48=LINE('',#1179,#117);
#49=LINE('',#1180,#118);
#50=LINE('',#1181,#119);
#51=LINE('',#1185,#120);
#52=LINE('',#1189,#121);
#53=LINE('',#1190,#122);
#54=LINE('',#1191,#123);
#55=LINE('',#1193,#124);
#56=LINE('',#1197,#125);
#57=LINE('',#1198,#126);
#58=LINE('',#1199,#127);
#59=LINE('',#1201,#128);
#60=LINE('',#1205,#129);
#61=LINE('',#1207,#130);
#62=LINE('',#1209,#131);
#63=LINE('',#1211,#132);
#64=LINE('',#1213,#133);
#65=LINE('',#1215,#134);
#66=LINE('',#1219,#135);
#67=LINE('',#1221,#136);
#68=LINE('',#1223,#137);
#69=LINE('',#1225,#138);
#70=LINE('',#1229,#139);
#71=LINE('',#1231,#140);
#72=LINE('',#1233,#141);
#73=LINE('',#1235,#142);
#74=LINE('',#1237,#143);
#75=LINE('',#1241,#144);
#76=LINE('',#1243,#145);
#77=LINE('',#1245,#146);
#78=LINE('',#1248,#147);
#79=LINE('',#1250,#148);
#80=LINE('',#1252,#149);
#81=LINE('',#1254,#150);
#82=LINE('',#1260,#151);
#83=LINE('',#1263,#152);
#84=LINE('',#1264,#153);
#85=LINE('',#1266,#154);
#86=LINE('',#1267,#155);
#87=LINE('',#1272,#156);
#88=LINE('',#1274,#157);
#89=LINE('',#1276,#158);
#90=LINE('',#1278,#159);
#91=LINE('',#1281,#160);
#92=LINE('',#1282,#161);
#93=LINE('',#1284,#162);
#94=LINE('',#1285,#163);
#95=VECTOR('',#870,1.);
#96=VECTOR('',#873,1.);
#97=VECTOR('',#876,1.);
#98=VECTOR('',#879,1.);
#99=VECTOR('',#882,1.);
#100=VECTOR('',#885,1.);
#101=VECTOR('',#888,1.);
#102=VECTOR('',#891,1.);
#103=VECTOR('',#894,1.);
#104=VECTOR('',#897,1.);
#105=VECTOR('',#900,1.);
#106=VECTOR('',#903,1.);
#107=VECTOR('',#908,1.);
#108=VECTOR('',#911,1.);
#109=VECTOR('',#914,1.);
#110=VECTOR('',#917,1.);
#111=VECTOR('',#926,1.);
#112=VECTOR('',#927,1.);
#113=VECTOR('',#928,1.);
#114=VECTOR('',#929,1.);
#115=VECTOR('',#932,1.);
#116=VECTOR('',#935,1.);
#117=VECTOR('',#936,1.);
#118=VECTOR('',#937,1.);
#119=VECTOR('',#938,1.);
#120=VECTOR('',#943,1.);
#121=VECTOR('',#946,1.);
#122=VECTOR('',#947,1.);
#123=VECTOR('',#948,1.);
#124=VECTOR('',#951,1.);
#125=VECTOR('',#954,1.);
#126=VECTOR('',#955,1.);
#127=VECTOR('',#956,1.);
#128=VECTOR('',#959,1.);
#129=VECTOR('',#962,1.);
#130=VECTOR('',#965,1.);
#131=VECTOR('',#966,1.);
#132=VECTOR('',#969,1.);
#133=VECTOR('',#970,1.);
#134=VECTOR('',#973,1.);
#135=VECTOR('',#976,1.);
#136=VECTOR('',#979,1.);
#137=VECTOR('',#982,1.);
#138=VECTOR('',#985,1.);
#139=VECTOR('',#988,1.);
#140=VECTOR('',#991,1.);
#141=VECTOR('',#992,1.);
#142=VECTOR('',#995,1.);
#143=VECTOR('',#998,1.);
#144=VECTOR('',#1001,1.);
#145=VECTOR('',#1004,1.);
#146=VECTOR('',#1007,1.);
#147=VECTOR('',#1012,1.);
#148=VECTOR('',#1013,1.);
#149=VECTOR('',#1014,1.);
#150=VECTOR('',#1017,1.);
#151=VECTOR('',#1024,1.);
#152=VECTOR('',#1025,1.);
#153=VECTOR('',#1026,1.);
#154=VECTOR('',#1029,1.);
#155=VECTOR('',#1030,1.);
#156=VECTOR('',#1037,1.);
#157=VECTOR('',#1038,1.);
#158=VECTOR('',#1039,1.);
#159=VECTOR('',#1042,1.);
#160=VECTOR('',#1043,1.);
#161=VECTOR('',#1044,1.);
#162=VECTOR('',#1047,1.);
#163=VECTOR('',#1048,1.);
#164=ORIENTED_EDGE('',*,*,#376,.F.);
#165=ORIENTED_EDGE('',*,*,#377,.F.);
#166=ORIENTED_EDGE('',*,*,#378,.F.);
#167=ORIENTED_EDGE('',*,*,#379,.F.);
#168=ORIENTED_EDGE('',*,*,#380,.F.);
#169=ORIENTED_EDGE('',*,*,#381,.F.);
#170=ORIENTED_EDGE('',*,*,#382,.F.);
#171=ORIENTED_EDGE('',*,*,#383,.F.);
#172=ORIENTED_EDGE('',*,*,#384,.F.);
#173=ORIENTED_EDGE('',*,*,#385,.F.);
#174=ORIENTED_EDGE('',*,*,#386,.F.);
#175=ORIENTED_EDGE('',*,*,#387,.F.);
#176=ORIENTED_EDGE('',*,*,#388,.F.);
#177=ORIENTED_EDGE('',*,*,#389,.F.);
#178=ORIENTED_EDGE('',*,*,#390,.F.);
#179=ORIENTED_EDGE('',*,*,#391,.F.);
#180=ORIENTED_EDGE('',*,*,#392,.F.);
#181=ORIENTED_EDGE('',*,*,#393,.F.);
#182=ORIENTED_EDGE('',*,*,#394,.F.);
#183=ORIENTED_EDGE('',*,*,#395,.F.);
#184=ORIENTED_EDGE('',*,*,#396,.F.);
#185=ORIENTED_EDGE('',*,*,#397,.F.);
#186=ORIENTED_EDGE('',*,*,#398,.F.);
#187=ORIENTED_EDGE('',*,*,#399,.F.);
#188=ORIENTED_EDGE('',*,*,#400,.F.);
#189=ORIENTED_EDGE('',*,*,#401,.F.);
#190=ORIENTED_EDGE('',*,*,#402,.T.);
#191=ORIENTED_EDGE('',*,*,#403,.F.);
#192=ORIENTED_EDGE('',*,*,#404,.T.);
#193=ORIENTED_EDGE('',*,*,#405,.F.);
#194=ORIENTED_EDGE('',*,*,#406,.T.);
#195=ORIENTED_EDGE('',*,*,#407,.F.);
#196=ORIENTED_EDGE('',*,*,#408,.T.);
#197=ORIENTED_EDGE('',*,*,#409,.F.);
#198=ORIENTED_EDGE('',*,*,#410,.F.);
#199=ORIENTED_EDGE('',*,*,#411,.T.);
#200=ORIENTED_EDGE('',*,*,#384,.T.);
#201=ORIENTED_EDGE('',*,*,#412,.F.);
#202=ORIENTED_EDGE('',*,*,#406,.F.);
#203=ORIENTED_EDGE('',*,*,#413,.T.);
#204=ORIENTED_EDGE('',*,*,#388,.T.);
#205=ORIENTED_EDGE('',*,*,#414,.F.);
#206=ORIENTED_EDGE('',*,*,#415,.F.);
#207=ORIENTED_EDGE('',*,*,#416,.T.);
#208=ORIENTED_EDGE('',*,*,#417,.T.);
#209=ORIENTED_EDGE('',*,*,#396,.T.);
#210=ORIENTED_EDGE('',*,*,#418,.F.);
#211=ORIENTED_EDGE('',*,*,#402,.F.);
#212=ORIENTED_EDGE('',*,*,#419,.T.);
#213=ORIENTED_EDGE('',*,*,#400,.T.);
#214=ORIENTED_EDGE('',*,*,#420,.F.);
#215=ORIENTED_EDGE('',*,*,#421,.F.);
#216=ORIENTED_EDGE('',*,*,#382,.T.);
#217=ORIENTED_EDGE('',*,*,#422,.F.);
#218=ORIENTED_EDGE('',*,*,#423,.F.);
#219=ORIENTED_EDGE('',*,*,#424,.T.);
#220=ORIENTED_EDGE('',*,*,#378,.T.);
#221=ORIENTED_EDGE('',*,*,#425,.F.);
#222=ORIENTED_EDGE('',*,*,#408,.F.);
#223=ORIENTED_EDGE('',*,*,#426,.T.);
#224=ORIENTED_EDGE('',*,*,#394,.T.);
#225=ORIENTED_EDGE('',*,*,#427,.F.);
#226=ORIENTED_EDGE('',*,*,#428,.F.);
#227=ORIENTED_EDGE('',*,*,#429,.T.);
#228=ORIENTED_EDGE('',*,*,#390,.T.);
#229=ORIENTED_EDGE('',*,*,#430,.F.);
#230=ORIENTED_EDGE('',*,*,#404,.F.);
#231=ORIENTED_EDGE('',*,*,#431,.T.);
#232=ORIENTED_EDGE('',*,*,#386,.T.);
#233=ORIENTED_EDGE('',*,*,#432,.F.);
#234=ORIENTED_EDGE('',*,*,#433,.F.);
#235=ORIENTED_EDGE('',*,*,#434,.T.);
#236=ORIENTED_EDGE('',*,*,#385,.T.);
#237=ORIENTED_EDGE('',*,*,#411,.F.);
#238=ORIENTED_EDGE('',*,*,#435,.F.);
#239=ORIENTED_EDGE('',*,*,#436,.F.);
#240=ORIENTED_EDGE('',*,*,#432,.T.);
#241=ORIENTED_EDGE('',*,*,#387,.T.);
#242=ORIENTED_EDGE('',*,*,#434,.F.);
#243=ORIENTED_EDGE('',*,*,#437,.F.);
#244=ORIENTED_EDGE('',*,*,#438,.T.);
#245=ORIENTED_EDGE('',*,*,#414,.T.);
#246=ORIENTED_EDGE('',*,*,#380,.T.);
#247=ORIENTED_EDGE('',*,*,#439,.F.);
#248=ORIENTED_EDGE('',*,*,#440,.F.);
#249=ORIENTED_EDGE('',*,*,#441,.T.);
#250=ORIENTED_EDGE('',*,*,#379,.T.);
#251=ORIENTED_EDGE('',*,*,#424,.F.);
#252=ORIENTED_EDGE('',*,*,#442,.F.);
#253=ORIENTED_EDGE('',*,*,#439,.T.);
#254=ORIENTED_EDGE('',*,*,#381,.T.);
#255=ORIENTED_EDGE('',*,*,#441,.F.);
#256=ORIENTED_EDGE('',*,*,#443,.F.);
#257=ORIENTED_EDGE('',*,*,#422,.T.);
#258=ORIENTED_EDGE('',*,*,#398,.T.);
#259=ORIENTED_EDGE('',*,*,#444,.F.);
#260=ORIENTED_EDGE('',*,*,#445,.F.);
#261=ORIENTED_EDGE('',*,*,#446,.T.);
#262=ORIENTED_EDGE('',*,*,#397,.T.);
#263=ORIENTED_EDGE('',*,*,#417,.F.);
#264=ORIENTED_EDGE('',*,*,#447,.F.);
#265=ORIENTED_EDGE('',*,*,#448,.F.);
#266=ORIENTED_EDGE('',*,*,#444,.T.);
#267=ORIENTED_EDGE('',*,*,#399,.T.);
#268=ORIENTED_EDGE('',*,*,#446,.F.);
#269=ORIENTED_EDGE('',*,*,#449,.F.);
#270=ORIENTED_EDGE('',*,*,#420,.T.);
#271=ORIENTED_EDGE('',*,*,#392,.T.);
#272=ORIENTED_EDGE('',*,*,#450,.F.);
#273=ORIENTED_EDGE('',*,*,#451,.F.);
#274=ORIENTED_EDGE('',*,*,#452,.T.);
#275=ORIENTED_EDGE('',*,*,#391,.T.);
#276=ORIENTED_EDGE('',*,*,#429,.F.);
#277=ORIENTED_EDGE('',*,*,#453,.F.);
#278=ORIENTED_EDGE('',*,*,#450,.T.);
#279=ORIENTED_EDGE('',*,*,#393,.T.);
#280=ORIENTED_EDGE('',*,*,#452,.F.);
#281=ORIENTED_EDGE('',*,*,#454,.F.);
#282=ORIENTED_EDGE('',*,*,#427,.T.);
#283=ORIENTED_EDGE('',*,*,#409,.T.);
#284=ORIENTED_EDGE('',*,*,#376,.T.);
#285=ORIENTED_EDGE('',*,*,#415,.T.);
#286=ORIENTED_EDGE('',*,*,#455,.F.);
#287=ORIENTED_EDGE('',*,*,#456,.F.);
#288=ORIENTED_EDGE('',*,*,#457,.T.);
#289=ORIENTED_EDGE('',*,*,#458,.T.);
#290=ORIENTED_EDGE('',*,*,#459,.F.);
#291=ORIENTED_EDGE('',*,*,#447,.T.);
#292=ORIENTED_EDGE('',*,*,#460,.T.);
#293=ORIENTED_EDGE('',*,*,#461,.T.);
#294=ORIENTED_EDGE('',*,*,#462,.F.);
#295=ORIENTED_EDGE('',*,*,#458,.F.);
#296=ORIENTED_EDGE('',*,*,#463,.T.);
#297=ORIENTED_EDGE('',*,*,#456,.T.);
#298=ORIENTED_EDGE('',*,*,#464,.F.);
#299=ORIENTED_EDGE('',*,*,#461,.F.);
#300=ORIENTED_EDGE('',*,*,#465,.T.);
#301=ORIENTED_EDGE('',*,*,#466,.T.);
#302=ORIENTED_EDGE('',*,*,#457,.F.);
#303=ORIENTED_EDGE('',*,*,#465,.F.);
#304=ORIENTED_EDGE('',*,*,#463,.F.);
#305=ORIENTED_EDGE('',*,*,#460,.F.);
#306=ORIENTED_EDGE('',*,*,#416,.F.);
#307=ORIENTED_EDGE('',*,*,#438,.F.);
#308=ORIENTED_EDGE('',*,*,#467,.T.);
#309=ORIENTED_EDGE('',*,*,#468,.F.);
#310=ORIENTED_EDGE('',*,*,#469,.F.);
#311=ORIENTED_EDGE('',*,*,#470,.T.);
#312=ORIENTED_EDGE('',*,*,#471,.T.);
#313=ORIENTED_EDGE('',*,*,#435,.T.);
#314=ORIENTED_EDGE('',*,*,#472,.F.);
#315=ORIENTED_EDGE('',*,*,#468,.T.);
#316=ORIENTED_EDGE('',*,*,#473,.T.);
#317=ORIENTED_EDGE('',*,*,#470,.F.);
#318=ORIENTED_EDGE('',*,*,#474,.F.);
#319=ORIENTED_EDGE('',*,*,#475,.F.);
#320=ORIENTED_EDGE('',*,*,#469,.T.);
#321=ORIENTED_EDGE('',*,*,#474,.T.);
#322=ORIENTED_EDGE('',*,*,#472,.T.);
#323=ORIENTED_EDGE('',*,*,#410,.T.);
#324=ORIENTED_EDGE('',*,*,#405,.T.);
#325=ORIENTED_EDGE('',*,*,#430,.T.);
#326=ORIENTED_EDGE('',*,*,#389,.T.);
#327=ORIENTED_EDGE('',*,*,#413,.F.);
#328=ORIENTED_EDGE('',*,*,#403,.T.);
#329=ORIENTED_EDGE('',*,*,#418,.T.);
#330=ORIENTED_EDGE('',*,*,#395,.T.);
#331=ORIENTED_EDGE('',*,*,#431,.F.);
#332=ORIENTED_EDGE('',*,*,#401,.T.);
#333=ORIENTED_EDGE('',*,*,#425,.T.);
#334=ORIENTED_EDGE('',*,*,#377,.T.);
#335=ORIENTED_EDGE('',*,*,#419,.F.);
#336=ORIENTED_EDGE('',*,*,#407,.T.);
#337=ORIENTED_EDGE('',*,*,#412,.T.);
#338=ORIENTED_EDGE('',*,*,#383,.T.);
#339=ORIENTED_EDGE('',*,*,#426,.F.);
#340=ORIENTED_EDGE('',*,*,#476,.F.);
#341=ORIENTED_EDGE('',*,*,#433,.T.);
#342=ORIENTED_EDGE('',*,*,#436,.T.);
#343=ORIENTED_EDGE('',*,*,#471,.F.);
#344=ORIENTED_EDGE('',*,*,#473,.F.);
#345=ORIENTED_EDGE('',*,*,#467,.F.);
#346=ORIENTED_EDGE('',*,*,#437,.T.);
#347=ORIENTED_EDGE('',*,*,#477,.F.);
#348=ORIENTED_EDGE('',*,*,#445,.T.);
#349=ORIENTED_EDGE('',*,*,#448,.T.);
#350=ORIENTED_EDGE('',*,*,#459,.T.);
#351=ORIENTED_EDGE('',*,*,#462,.T.);
#352=ORIENTED_EDGE('',*,*,#464,.T.);
#353=ORIENTED_EDGE('',*,*,#455,.T.);
#354=ORIENTED_EDGE('',*,*,#421,.T.);
#355=ORIENTED_EDGE('',*,*,#449,.T.);
#356=ORIENTED_EDGE('',*,*,#478,.F.);
#357=ORIENTED_EDGE('',*,*,#466,.F.);
#358=ORIENTED_EDGE('',*,*,#479,.F.);
#359=ORIENTED_EDGE('',*,*,#475,.T.);
#360=ORIENTED_EDGE('',*,*,#480,.F.);
#361=ORIENTED_EDGE('',*,*,#479,.T.);
#362=ORIENTED_EDGE('',*,*,#481,.F.);
#363=ORIENTED_EDGE('',*,*,#478,.T.);
#364=ORIENTED_EDGE('',*,*,#440,.T.);
#365=ORIENTED_EDGE('',*,*,#442,.T.);
#366=ORIENTED_EDGE('',*,*,#423,.T.);
#367=ORIENTED_EDGE('',*,*,#443,.T.);
#368=ORIENTED_EDGE('',*,*,#451,.T.);
#369=ORIENTED_EDGE('',*,*,#453,.T.);
#370=ORIENTED_EDGE('',*,*,#428,.T.);
#371=ORIENTED_EDGE('',*,*,#454,.T.);
#372=ORIENTED_EDGE('',*,*,#477,.T.);
#373=ORIENTED_EDGE('',*,*,#481,.T.);
#374=ORIENTED_EDGE('',*,*,#476,.T.);
#375=ORIENTED_EDGE('',*,*,#480,.T.);
#376=EDGE_CURVE('',#482,#482,#555,.T.);
#377=EDGE_CURVE('',#483,#484,#26,.T.);
#378=EDGE_CURVE('',#485,#483,#556,.T.);
#379=EDGE_CURVE('',#486,#485,#27,.T.);
#380=EDGE_CURVE('',#487,#486,#557,.T.);
#381=EDGE_CURVE('',#488,#487,#28,.T.);
#382=EDGE_CURVE('',#489,#488,#558,.T.);
#383=EDGE_CURVE('',#490,#489,#29,.T.);
#384=EDGE_CURVE('',#491,#490,#559,.T.);
#385=EDGE_CURVE('',#492,#491,#30,.T.);
#386=EDGE_CURVE('',#493,#492,#560,.T.);
#387=EDGE_CURVE('',#494,#493,#31,.T.);
#388=EDGE_CURVE('',#495,#494,#561,.T.);
#389=EDGE_CURVE('',#496,#495,#32,.T.);
#390=EDGE_CURVE('',#497,#496,#562,.T.);
#391=EDGE_CURVE('',#498,#497,#33,.T.);
#392=EDGE_CURVE('',#499,#498,#563,.T.);
#393=EDGE_CURVE('',#500,#499,#34,.T.);
#394=EDGE_CURVE('',#501,#500,#564,.T.);
#395=EDGE_CURVE('',#502,#501,#35,.T.);
#396=EDGE_CURVE('',#503,#502,#565,.T.);
#397=EDGE_CURVE('',#504,#503,#36,.T.);
#398=EDGE_CURVE('',#505,#504,#566,.T.);
#399=EDGE_CURVE('',#506,#505,#37,.T.);
#400=EDGE_CURVE('',#484,#506,#567,.T.);
#401=EDGE_CURVE('',#507,#508,#38,.T.);
#402=EDGE_CURVE('',#507,#509,#568,.T.);
#403=EDGE_CURVE('',#510,#509,#39,.T.);
#404=EDGE_CURVE('',#510,#511,#569,.T.);
#405=EDGE_CURVE('',#512,#511,#40,.T.);
#406=EDGE_CURVE('',#512,#513,#570,.T.);
#407=EDGE_CURVE('',#514,#513,#41,.T.);
#408=EDGE_CURVE('',#514,#508,#571,.T.);
#409=EDGE_CURVE('',#515,#515,#572,.T.);
#410=EDGE_CURVE('',#516,#517,#573,.T.);
#411=EDGE_CURVE('',#516,#491,#42,.T.);
#412=EDGE_CURVE('',#513,#490,#43,.T.);
#413=EDGE_CURVE('',#512,#495,#44,.T.);
#414=EDGE_CURVE('',#517,#494,#45,.T.);
#415=EDGE_CURVE('',#518,#519,#46,.T.);
#416=EDGE_CURVE('',#518,#520,#574,.T.);
#417=EDGE_CURVE('',#520,#503,#47,.T.);
#418=EDGE_CURVE('',#509,#502,#48,.T.);
#419=EDGE_CURVE('',#507,#484,#49,.T.);
#420=EDGE_CURVE('',#521,#506,#50,.T.);
#421=EDGE_CURVE('',#519,#521,#575,.T.);
#422=EDGE_CURVE('',#522,#488,#51,.T.);
#423=EDGE_CURVE('',#523,#522,#576,.T.);
#424=EDGE_CURVE('',#523,#485,#52,.T.);
#425=EDGE_CURVE('',#508,#483,#53,.T.);
#426=EDGE_CURVE('',#514,#489,#54,.T.);
#427=EDGE_CURVE('',#524,#500,#55,.T.);
#428=EDGE_CURVE('',#525,#524,#577,.T.);
#429=EDGE_CURVE('',#525,#497,#56,.T.);
#430=EDGE_CURVE('',#511,#496,#57,.T.);
#431=EDGE_CURVE('',#510,#501,#58,.T.);
#432=EDGE_CURVE('',#526,#492,#59,.T.);
#433=EDGE_CURVE('',#527,#526,#578,.T.);
#434=EDGE_CURVE('',#527,#493,#60,.T.);
#435=EDGE_CURVE('',#528,#516,#61,.T.);
#436=EDGE_CURVE('',#526,#528,#62,.T.);
#437=EDGE_CURVE('',#529,#527,#63,.T.);
#438=EDGE_CURVE('',#529,#517,#64,.T.);
#439=EDGE_CURVE('',#530,#486,#65,.T.);
#440=EDGE_CURVE('',#531,#530,#579,.T.);
#441=EDGE_CURVE('',#531,#487,#66,.T.);
#442=EDGE_CURVE('',#530,#523,#67,.T.);
#443=EDGE_CURVE('',#522,#531,#68,.T.);
#444=EDGE_CURVE('',#532,#504,#69,.T.);
#445=EDGE_CURVE('',#533,#532,#580,.T.);
#446=EDGE_CURVE('',#533,#505,#70,.T.);
#447=EDGE_CURVE('',#534,#520,#71,.T.);
#448=EDGE_CURVE('',#532,#534,#72,.T.);
#449=EDGE_CURVE('',#521,#533,#73,.T.);
#450=EDGE_CURVE('',#535,#498,#74,.T.);
#451=EDGE_CURVE('',#536,#535,#581,.T.);
#452=EDGE_CURVE('',#536,#499,#75,.T.);
#453=EDGE_CURVE('',#535,#525,#76,.T.);
#454=EDGE_CURVE('',#524,#536,#77,.T.);
#455=EDGE_CURVE('',#537,#519,#78,.T.);
#456=EDGE_CURVE('',#538,#537,#79,.T.);
#457=EDGE_CURVE('',#538,#518,#80,.T.);
#458=EDGE_CURVE('',#539,#540,#81,.T.);
#459=EDGE_CURVE('',#534,#540,#582,.T.);
#460=EDGE_CURVE('',#520,#539,#583,.T.);
#461=EDGE_CURVE('',#541,#542,#82,.T.);
#462=EDGE_CURVE('',#540,#542,#83,.T.);
#463=EDGE_CURVE('',#539,#541,#84,.T.);
#464=EDGE_CURVE('',#542,#537,#85,.T.);
#465=EDGE_CURVE('',#541,#538,#86,.T.);
#466=EDGE_CURVE('',#543,#543,#584,.T.);
#467=EDGE_CURVE('',#529,#544,#87,.T.);
#468=EDGE_CURVE('',#545,#544,#88,.T.);
#469=EDGE_CURVE('',#517,#545,#89,.T.);
#470=EDGE_CURVE('',#546,#547,#90,.T.);
#471=EDGE_CURVE('',#547,#528,#91,.T.);
#472=EDGE_CURVE('',#546,#516,#92,.T.);
#473=EDGE_CURVE('',#544,#547,#93,.T.);
#474=EDGE_CURVE('',#545,#546,#94,.T.);
#475=EDGE_CURVE('',#548,#548,#585,.T.);
#476=EDGE_CURVE('',#549,#549,#586,.T.);
#477=EDGE_CURVE('',#550,#550,#587,.T.);
#478=EDGE_CURVE('',#551,#551,#588,.T.);
#479=EDGE_CURVE('',#552,#552,#589,.T.);
#480=EDGE_CURVE('',#553,#553,#590,.T.);
#481=EDGE_CURVE('',#554,#554,#591,.T.);
#482=VERTEX_POINT('',#1096);
#483=VERTEX_POINT('',#1098);
#484=VERTEX_POINT('',#1099);
#485=VERTEX_POINT('',#1101);
#486=VERTEX_POINT('',#1103);
#487=VERTEX_POINT('',#1105);
#488=VERTEX_POINT('',#1107);
#489=VERTEX_POINT('',#1109);
#490=VERTEX_POINT('',#1111);
#491=VERTEX_POINT('',#1113);
#492=VERTEX_POINT('',#1115);
#493=VERTEX_POINT('',#1117);
#494=VERTEX_POINT('',#1119);
#495=VERTEX_POINT('',#1121);
#496=VERTEX_POINT('',#1123);
#497=VERTEX_POINT('',#1125);
#498=VERTEX_POINT('',#1127);
#499=VERTEX_POINT('',#1129);
#500=VERTEX_POINT('',#1131);
#501=VERTEX_POINT('',#1133);
#502=VERTEX_POINT('',#1135);
#503=VERTEX_POINT('',#1137);
#504=VERTEX_POINT('',#1139);
#505=VERTEX_POINT('',#1141);
#506=VERTEX_POINT('',#1143);
#507=VERTEX_POINT('',#1147);
#508=VERTEX_POINT('',#1148);
#509=VERTEX_POINT('',#1150);
#510=VERTEX_POINT('',#1152);
#511=VERTEX_POINT('',#1154);
#512=VERTEX_POINT('',#1156);
#513=VERTEX_POINT('',#1158);
#514=VERTEX_POINT('',#1160);
#515=VERTEX_POINT('',#1163);
#516=VERTEX_POINT('',#1166);
#517=VERTEX_POINT('',#1167);
#518=VERTEX_POINT('',#1174);
#519=VERTEX_POINT('',#1175);
#520=VERTEX_POINT('',#1177);
#521=VERTEX_POINT('',#1182);
#522=VERTEX_POINT('',#1186);
#523=VERTEX_POINT('',#1188);
#524=VERTEX_POINT('',#1194);
#525=VERTEX_POINT('',#1196);
#526=VERTEX_POINT('',#1202);
#527=VERTEX_POINT('',#1204);
#528=VERTEX_POINT('',#1208);
#529=VERTEX_POINT('',#1212);
#530=VERTEX_POINT('',#1216);
#531=VERTEX_POINT('',#1218);
#532=VERTEX_POINT('',#1226);
#533=VERTEX_POINT('',#1228);
#534=VERTEX_POINT('',#1232);
#535=VERTEX_POINT('',#1238);
#536=VERTEX_POINT('',#1240);
#537=VERTEX_POINT('',#1249);
#538=VERTEX_POINT('',#1251);
#539=VERTEX_POINT('',#1255);
#540=VERTEX_POINT('',#1256);
#541=VERTEX_POINT('',#1261);
#542=VERTEX_POINT('',#1262);
#543=VERTEX_POINT('',#1270);
#544=VERTEX_POINT('',#1273);
#545=VERTEX_POINT('',#1275);
#546=VERTEX_POINT('',#1279);
#547=VERTEX_POINT('',#1280);
#548=VERTEX_POINT('',#1288);
#549=VERTEX_POINT('',#1295);
#550=VERTEX_POINT('',#1298);
#551=VERTEX_POINT('',#1301);
#552=VERTEX_POINT('',#1304);
#553=VERTEX_POINT('',#1307);
#554=VERTEX_POINT('',#1310);
#555=CIRCLE('',#786,0.0466725);
#556=CIRCLE('',#787,0.054075);
#557=CIRCLE('',#788,0.0525000000000008);
#558=CIRCLE('',#789,0.054075);
#559=CIRCLE('',#790,0.054075);
#560=CIRCLE('',#791,0.0525000000000008);
#561=CIRCLE('',#792,0.054075);
#562=CIRCLE('',#793,0.054075);
#563=CIRCLE('',#794,0.0525000000000008);
#564=CIRCLE('',#795,0.054075);
#565=CIRCLE('',#796,0.054075);
#566=CIRCLE('',#797,0.0525000000000008);
#567=CIRCLE('',#798,0.054075);
#568=CIRCLE('',#800,0.054075);
#569=CIRCLE('',#801,0.054075);
#570=CIRCLE('',#802,0.054075);
#571=CIRCLE('',#803,0.054075);
#572=CIRCLE('',#804,0.0466725);
#573=CIRCLE('',#806,0.0540750000000006);
#574=CIRCLE('',#808,0.054075);
#575=CIRCLE('',#809,0.0540750000000006);
#576=CIRCLE('',#811,0.0540750000000006);
#577=CIRCLE('',#813,0.0540750000000006);
#578=CIRCLE('',#815,0.0525000000000008);
#579=CIRCLE('',#819,0.0525000000000008);
#580=CIRCLE('',#823,0.0525000000000008);
#581=CIRCLE('',#827,0.0525000000000008);
#582=CIRCLE('',#833,0.054075);
#583=CIRCLE('',#834,0.054075);
#584=CIRCLE('',#838,0.0041275);
#585=CIRCLE('',#843,0.0041275);
#586=CIRCLE('',#849,0.0014499971);
#587=CIRCLE('',#851,0.0014499971);
#588=CIRCLE('',#853,0.0041275);
#589=CIRCLE('',#855,0.0041275);
#590=CIRCLE('',#857,0.0014499971);
#591=CIRCLE('',#859,0.0014499971);
#592=EDGE_LOOP('',(#164));
#593=EDGE_LOOP('',(#165,#166,#167,#168,#169,#170,#171,#172,#173,#174,#175,
#176,#177,#178,#179,#180,#181,#182,#183,#184,#185,#186,#187,#188));
#594=EDGE_LOOP('',(#189,#190,#191,#192,#193,#194,#195,#196));
#595=EDGE_LOOP('',(#197));
#596=EDGE_LOOP('',(#198,#199,#200,#201,#202,#203,#204,#205));
#597=EDGE_LOOP('',(#206,#207,#208,#209,#210,#211,#212,#213,#214,#215));
#598=EDGE_LOOP('',(#216,#217,#218,#219,#220,#221,#222,#223));
#599=EDGE_LOOP('',(#224,#225,#226,#227,#228,#229,#230,#231));
#600=EDGE_LOOP('',(#232,#233,#234,#235));
#601=EDGE_LOOP('',(#236,#237,#238,#239,#240));
#602=EDGE_LOOP('',(#241,#242,#243,#244,#245));
#603=EDGE_LOOP('',(#246,#247,#248,#249));
#604=EDGE_LOOP('',(#250,#251,#252,#253));
#605=EDGE_LOOP('',(#254,#255,#256,#257));
#606=EDGE_LOOP('',(#258,#259,#260,#261));
#607=EDGE_LOOP('',(#262,#263,#264,#265,#266));
#608=EDGE_LOOP('',(#267,#268,#269,#270));
#609=EDGE_LOOP('',(#271,#272,#273,#274));
#610=EDGE_LOOP('',(#275,#276,#277,#278));
#611=EDGE_LOOP('',(#279,#280,#281,#282));
#612=EDGE_LOOP('',(#283));
#613=EDGE_LOOP('',(#284));
#614=EDGE_LOOP('',(#285,#286,#287,#288));
#615=EDGE_LOOP('',(#289,#290,#291,#292));
#616=EDGE_LOOP('',(#293,#294,#295,#296));
#617=EDGE_LOOP('',(#297,#298,#299,#300));
#618=EDGE_LOOP('',(#301));
#619=EDGE_LOOP('',(#302,#303,#304,#305,#306));
#620=EDGE_LOOP('',(#307,#308,#309,#310));
#621=EDGE_LOOP('',(#311,#312,#313,#314));
#622=EDGE_LOOP('',(#315,#316,#317,#318));
#623=EDGE_LOOP('',(#319));
#624=EDGE_LOOP('',(#320,#321,#322,#323));
#625=EDGE_LOOP('',(#324,#325,#326,#327));
#626=EDGE_LOOP('',(#328,#329,#330,#331));
#627=EDGE_LOOP('',(#332,#333,#334,#335));
#628=EDGE_LOOP('',(#336,#337,#338,#339));
#629=EDGE_LOOP('',(#340));
#630=EDGE_LOOP('',(#341,#342,#343,#344,#345,#346));
#631=EDGE_LOOP('',(#347));
#632=EDGE_LOOP('',(#348,#349,#350,#351,#352,#353,#354,#355));
#633=EDGE_LOOP('',(#356));
#634=EDGE_LOOP('',(#357));
#635=EDGE_LOOP('',(#358));
#636=EDGE_LOOP('',(#359));
#637=EDGE_LOOP('',(#360));
#638=EDGE_LOOP('',(#361));
#639=EDGE_LOOP('',(#362));
#640=EDGE_LOOP('',(#363));
#641=EDGE_LOOP('',(#364,#365,#366,#367));
#642=EDGE_LOOP('',(#368,#369,#370,#371));
#643=EDGE_LOOP('',(#372));
#644=EDGE_LOOP('',(#373));
#645=EDGE_LOOP('',(#374));
#646=EDGE_LOOP('',(#375));
#647=FACE_BOUND('',#592,.T.);
#648=FACE_BOUND('',#593,.T.);
#649=FACE_BOUND('',#594,.T.);
#650=FACE_BOUND('',#595,.T.);
#651=FACE_BOUND('',#596,.T.);
#652=FACE_BOUND('',#597,.T.);
#653=FACE_BOUND('',#598,.T.);
#654=FACE_BOUND('',#599,.T.);
#655=FACE_BOUND('',#600,.T.);
#656=FACE_BOUND('',#601,.T.);
#657=FACE_BOUND('',#602,.T.);
#658=FACE_BOUND('',#603,.T.);
#659=FACE_BOUND('',#604,.T.);
#660=FACE_BOUND('',#605,.T.);
#661=FACE_BOUND('',#606,.T.);
#662=FACE_BOUND('',#607,.T.);
#663=FACE_BOUND('',#608,.T.);
#664=FACE_BOUND('',#609,.T.);
#665=FACE_BOUND('',#610,.T.);
#666=FACE_BOUND('',#611,.T.);
#667=FACE_BOUND('',#612,.T.);
#668=FACE_BOUND('',#613,.T.);
#669=FACE_BOUND('',#614,.T.);
#670=FACE_BOUND('',#615,.T.);
#671=FACE_BOUND('',#616,.T.);
#672=FACE_BOUND('',#617,.T.);
#673=FACE_BOUND('',#618,.T.);
#674=FACE_BOUND('',#619,.T.);
#675=FACE_BOUND('',#620,.T.);
#676=FACE_BOUND('',#621,.T.);
#677=FACE_BOUND('',#622,.T.);
#678=FACE_BOUND('',#623,.T.);
#679=FACE_BOUND('',#624,.T.);
#680=FACE_BOUND('',#625,.T.);
#681=FACE_BOUND('',#626,.T.);
#682=FACE_BOUND('',#627,.T.);
#683=FACE_BOUND('',#628,.T.);
#684=FACE_BOUND('',#629,.T.);
#685=FACE_BOUND('',#630,.T.);
#686=FACE_BOUND('',#631,.T.);
#687=FACE_BOUND('',#632,.T.);
#688=FACE_BOUND('',#633,.T.);
#689=FACE_BOUND('',#634,.T.);
#690=FACE_BOUND('',#635,.T.);
#691=FACE_BOUND('',#636,.T.);
#692=FACE_BOUND('',#637,.T.);
#693=FACE_BOUND('',#638,.T.);
#694=FACE_BOUND('',#639,.T.);
#695=FACE_BOUND('',#640,.T.);
#696=FACE_BOUND('',#641,.T.);
#697=FACE_BOUND('',#642,.T.);
#698=FACE_BOUND('',#643,.T.);
#699=FACE_BOUND('',#644,.T.);
#700=FACE_BOUND('',#645,.T.);
#701=FACE_BOUND('',#646,.T.);
#702=PLANE('',#785);
#703=PLANE('',#799);
#704=PLANE('',#816);
#705=PLANE('',#817);
#706=PLANE('',#820);
#707=PLANE('',#821);
#708=PLANE('',#824);
#709=PLANE('',#825);
#710=PLANE('',#828);
#711=PLANE('',#829);
#712=PLANE('',#831);
#713=PLANE('',#835);
#714=PLANE('',#836);
#715=PLANE('',#837);
#716=PLANE('',#839);
#717=PLANE('',#840);
#718=PLANE('',#841);
#719=PLANE('',#842);
#720=PLANE('',#844);
#721=PLANE('',#845);
#722=PLANE('',#846);
#723=PLANE('',#847);
#724=PLANE('',#848);
#725=PLANE('',#850);
#726=PLANE('',#856);
#727=PLANE('',#858);
#728=PLANE('',#860);
#729=PLANE('',#861);
#730=ADVANCED_FACE('',(#647,#648),#702,.F.);
#731=ADVANCED_FACE('',(#649,#650),#703,.T.);
#732=ADVANCED_FACE('',(#651),#12,.T.);
#733=ADVANCED_FACE('',(#652),#13,.T.);
#734=ADVANCED_FACE('',(#653),#14,.T.);
#735=ADVANCED_FACE('',(#654),#15,.T.);
#736=ADVANCED_FACE('',(#655),#16,.F.);
#737=ADVANCED_FACE('',(#656),#704,.F.);
#738=ADVANCED_FACE('',(#657),#705,.F.);
#739=ADVANCED_FACE('',(#658),#17,.F.);
#740=ADVANCED_FACE('',(#659),#706,.F.);
#741=ADVANCED_FACE('',(#660),#707,.F.);
#742=ADVANCED_FACE('',(#661),#18,.F.);
#743=ADVANCED_FACE('',(#662),#708,.F.);
#744=ADVANCED_FACE('',(#663),#709,.F.);
#745=ADVANCED_FACE('',(#664),#19,.F.);
#746=ADVANCED_FACE('',(#665),#710,.F.);
#747=ADVANCED_FACE('',(#666),#711,.F.);
#748=ADVANCED_FACE('',(#667,#668),#20,.F.);
#749=ADVANCED_FACE('',(#669),#712,.T.);
#750=ADVANCED_FACE('',(#670),#21,.F.);
#751=ADVANCED_FACE('',(#671),#713,.T.);
#752=ADVANCED_FACE('',(#672),#714,.T.);
#753=ADVANCED_FACE('',(#673,#674),#715,.F.);
#754=ADVANCED_FACE('',(#675),#716,.F.);
#755=ADVANCED_FACE('',(#676),#717,.F.);
#756=ADVANCED_FACE('',(#677),#718,.F.);
#757=ADVANCED_FACE('',(#678,#679),#719,.F.);
#758=ADVANCED_FACE('',(#680),#720,.F.);
#759=ADVANCED_FACE('',(#681),#721,.F.);
#760=ADVANCED_FACE('',(#682),#722,.F.);
#761=ADVANCED_FACE('',(#683),#723,.F.);
#762=ADVANCED_FACE('',(#684,#685),#724,.T.);
#763=ADVANCED_FACE('',(#686,#687),#725,.T.);
#764=ADVANCED_FACE('',(#688,#689),#22,.F.);
#765=ADVANCED_FACE('',(#690,#691),#23,.F.);
#766=ADVANCED_FACE('',(#692,#693),#726,.T.);
#767=ADVANCED_FACE('',(#694,#695),#727,.T.);
#768=ADVANCED_FACE('',(#696),#728,.T.);
#769=ADVANCED_FACE('',(#697),#729,.T.);
#770=ADVANCED_FACE('',(#698,#699),#24,.F.);
#771=ADVANCED_FACE('',(#700,#701),#25,.F.);
#772=CLOSED_SHELL('',(#730,#731,#732,#733,#734,#735,#736,#737,#738,#739,
#740,#741,#742,#743,#744,#745,#746,#747,#748,#749,#750,#751,#752,#753,#754,
#755,#756,#757,#758,#759,#760,#761,#762,#763,#764,#765,#766,#767,#768,#769,
#770,#771));
#773=STYLED_ITEM('',(#774),#781);
#774=PRESENTATION_STYLE_ASSIGNMENT((#775));
#775=SURFACE_STYLE_USAGE(.BOTH.,#776);
#776=SURFACE_SIDE_STYLE('',(#777));
#777=SURFACE_STYLE_FILL_AREA(#778);
#778=FILL_AREA_STYLE('',(#779));
#779=FILL_AREA_STYLE_COLOUR('',#780);
#780=COLOUR_RGB('',0.96078431372549,0.835294117647059,0.470588235294118);
#781=MANIFOLD_SOLID_BREP('Default',#772);
#782=SHAPE_DEFINITION_REPRESENTATION(#1321,#783);
#783=SHAPE_REPRESENTATION('Default',(#784),#1316);
#784=AXIS2_PLACEMENT_3D('',#1093,#864,#865);
#785=AXIS2_PLACEMENT_3D('',#1094,#866,#867);
#786=AXIS2_PLACEMENT_3D('',#1095,#868,#869);
#787=AXIS2_PLACEMENT_3D('',#1100,#871,#872);
#788=AXIS2_PLACEMENT_3D('',#1104,#874,#875);
#789=AXIS2_PLACEMENT_3D('',#1108,#877,#878);
#790=AXIS2_PLACEMENT_3D('',#1112,#880,#881);
#791=AXIS2_PLACEMENT_3D('',#1116,#883,#884);
#792=AXIS2_PLACEMENT_3D('',#1120,#886,#887);
#793=AXIS2_PLACEMENT_3D('',#1124,#889,#890);
#794=AXIS2_PLACEMENT_3D('',#1128,#892,#893);
#795=AXIS2_PLACEMENT_3D('',#1132,#895,#896);
#796=AXIS2_PLACEMENT_3D('',#1136,#898,#899);
#797=AXIS2_PLACEMENT_3D('',#1140,#901,#902);
#798=AXIS2_PLACEMENT_3D('',#1144,#904,#905);
#799=AXIS2_PLACEMENT_3D('',#1145,#906,#907);
#800=AXIS2_PLACEMENT_3D('',#1149,#909,#910);
#801=AXIS2_PLACEMENT_3D('',#1153,#912,#913);
#802=AXIS2_PLACEMENT_3D('',#1157,#915,#916);
#803=AXIS2_PLACEMENT_3D('',#1161,#918,#919);
#804=AXIS2_PLACEMENT_3D('',#1162,#920,#921);
#805=AXIS2_PLACEMENT_3D('',#1164,#922,#923);
#806=AXIS2_PLACEMENT_3D('',#1165,#924,#925);
#807=AXIS2_PLACEMENT_3D('',#1172,#930,#931);
#808=AXIS2_PLACEMENT_3D('',#1176,#933,#934);
#809=AXIS2_PLACEMENT_3D('',#1183,#939,#940);
#810=AXIS2_PLACEMENT_3D('',#1184,#941,#942);
#811=AXIS2_PLACEMENT_3D('',#1187,#944,#945);
#812=AXIS2_PLACEMENT_3D('',#1192,#949,#950);
#813=AXIS2_PLACEMENT_3D('',#1195,#952,#953);
#814=AXIS2_PLACEMENT_3D('',#1200,#957,#958);
#815=AXIS2_PLACEMENT_3D('',#1203,#960,#961);
#816=AXIS2_PLACEMENT_3D('',#1206,#963,#964);
#817=AXIS2_PLACEMENT_3D('',#1210,#967,#968);
#818=AXIS2_PLACEMENT_3D('',#1214,#971,#972);
#819=AXIS2_PLACEMENT_3D('',#1217,#974,#975);
#820=AXIS2_PLACEMENT_3D('',#1220,#977,#978);
#821=AXIS2_PLACEMENT_3D('',#1222,#980,#981);
#822=AXIS2_PLACEMENT_3D('',#1224,#983,#984);
#823=AXIS2_PLACEMENT_3D('',#1227,#986,#987);
#824=AXIS2_PLACEMENT_3D('',#1230,#989,#990);
#825=AXIS2_PLACEMENT_3D('',#1234,#993,#994);
#826=AXIS2_PLACEMENT_3D('',#1236,#996,#997);
#827=AXIS2_PLACEMENT_3D('',#1239,#999,#1000);
#828=AXIS2_PLACEMENT_3D('',#1242,#1002,#1003);
#829=AXIS2_PLACEMENT_3D('',#1244,#1005,#1006);
#830=AXIS2_PLACEMENT_3D('',#1246,#1008,#1009);
#831=AXIS2_PLACEMENT_3D('',#1247,#1010,#1011);
#832=AXIS2_PLACEMENT_3D('',#1253,#1015,#1016);
#833=AXIS2_PLACEMENT_3D('',#1257,#1018,#1019);
#834=AXIS2_PLACEMENT_3D('',#1258,#1020,#1021);
#835=AXIS2_PLACEMENT_3D('',#1259,#1022,#1023);
#836=AXIS2_PLACEMENT_3D('',#1265,#1027,#1028);
#837=AXIS2_PLACEMENT_3D('',#1268,#1031,#1032);
#838=AXIS2_PLACEMENT_3D('',#1269,#1033,#1034);
#839=AXIS2_PLACEMENT_3D('',#1271,#1035,#1036);
#840=AXIS2_PLACEMENT_3D('',#1277,#1040,#1041);
#841=AXIS2_PLACEMENT_3D('',#1283,#1045,#1046);
#842=AXIS2_PLACEMENT_3D('',#1286,#1049,#1050);
#843=AXIS2_PLACEMENT_3D('',#1287,#1051,#1052);
#844=AXIS2_PLACEMENT_3D('',#1289,#1053,#1054);
#845=AXIS2_PLACEMENT_3D('',#1290,#1055,#1056);
#846=AXIS2_PLACEMENT_3D('',#1291,#1057,#1058);
#847=AXIS2_PLACEMENT_3D('',#1292,#1059,#1060);
#848=AXIS2_PLACEMENT_3D('',#1293,#1061,#1062);
#849=AXIS2_PLACEMENT_3D('',#1294,#1063,#1064);
#850=AXIS2_PLACEMENT_3D('',#1296,#1065,#1066);
#851=AXIS2_PLACEMENT_3D('',#1297,#1067,#1068);
#852=AXIS2_PLACEMENT_3D('',#1299,#1069,#1070);
#853=AXIS2_PLACEMENT_3D('',#1300,#1071,#1072);
#854=AXIS2_PLACEMENT_3D('',#1302,#1073,#1074);
#855=AXIS2_PLACEMENT_3D('',#1303,#1075,#1076);
#856=AXIS2_PLACEMENT_3D('',#1305,#1077,#1078);
#857=AXIS2_PLACEMENT_3D('',#1306,#1079,#1080);
#858=AXIS2_PLACEMENT_3D('',#1308,#1081,#1082);
#859=AXIS2_PLACEMENT_3D('',#1309,#1083,#1084);
#860=AXIS2_PLACEMENT_3D('',#1311,#1085,#1086);
#861=AXIS2_PLACEMENT_3D('',#1312,#1087,#1088);
#862=AXIS2_PLACEMENT_3D('',#1313,#1089,#1090);
#863=AXIS2_PLACEMENT_3D('',#1314,#1091,#1092);
#864=DIRECTION('',(0.,0.,1.));
#865=DIRECTION('',(1.,0.,0.));
#866=DIRECTION('',(0.,1.,0.));
#867=DIRECTION('',(0.,0.,1.));
#868=DIRECTION('',(0.,-1.,0.));
#869=DIRECTION('',(0.,0.,-1.));
#870=DIRECTION('',(-0.707106781186543,0.,0.707106781186552));
#871=DIRECTION('',(0.,1.,0.));
#872=DIRECTION('',(0.,0.,1.));
#873=DIRECTION('',(-0.486274592443665,0.,-0.873806054421545));
#874=DIRECTION('',(0.,1.,0.));
#875=DIRECTION('',(-1.,0.,3.49148133884314E-15));
#876=DIRECTION('',(-0.519693841497627,0.,0.854352568386986));
#877=DIRECTION('',(0.,1.,0.));
#878=DIRECTION('',(0.,0.,1.));
#879=DIRECTION('',(-0.707106781186553,0.,-0.707106781186543));
#880=DIRECTION('',(0.,1.,0.));
#881=DIRECTION('',(0.,0.,1.));
#882=DIRECTION('',(0.873806054421546,0.,-0.486274592443662));
#883=DIRECTION('',(0.,1.,0.));
#884=DIRECTION('',(0.,0.,-1.));
#885=DIRECTION('',(-0.854352568386985,0.,-0.51969384149763));
#886=DIRECTION('',(0.,1.,0.));
#887=DIRECTION('',(0.,0.,1.));
#888=DIRECTION('',(0.707106781186543,0.,-0.707106781186553));
#889=DIRECTION('',(0.,1.,0.));
#890=DIRECTION('',(0.,0.,1.));
#891=DIRECTION('',(0.486274592443672,0.,0.873806054421541));
#892=DIRECTION('',(0.,1.,0.));
#893=DIRECTION('',(1.,0.,-1.04744440165294E-14));
#894=DIRECTION('',(0.519693841497621,0.,-0.85435256838699));
#895=DIRECTION('',(0.,1.,0.));
#896=DIRECTION('',(0.,0.,1.));
#897=DIRECTION('',(0.707106781186552,0.,0.707106781186543));
#898=DIRECTION('',(0.,1.,0.));
#899=DIRECTION('',(0.,0.,1.));
#900=DIRECTION('',(-0.873806054421546,0.,0.486274592443662));
#901=DIRECTION('',(0.,1.,0.));
#902=DIRECTION('',(0.,0.,1.));
#903=DIRECTION('',(0.854352568386985,0.,0.51969384149763));
#904=DIRECTION('',(0.,1.,0.));
#905=DIRECTION('',(0.,0.,1.));
#906=DIRECTION('',(0.,1.,0.));
#907=DIRECTION('',(0.,0.,1.));
#908=DIRECTION('',(0.707106781186543,0.,-0.707106781186552));
#909=DIRECTION('',(0.,1.,0.));
#910=DIRECTION('',(0.,0.,1.));
#911=DIRECTION('',(-0.707106781186552,0.,-0.707106781186543));
#912=DIRECTION('',(0.,1.,0.));
#913=DIRECTION('',(0.,0.,1.));
#914=DIRECTION('',(-0.707106781186543,0.,0.707106781186553));
#915=DIRECTION('',(0.,1.,0.));
#916=DIRECTION('',(0.,0.,1.));
#917=DIRECTION('',(0.707106781186553,0.,0.707106781186543));
#918=DIRECTION('',(0.,1.,0.));
#919=DIRECTION('',(0.,0.,1.));
#920=DIRECTION('',(0.,1.,0.));
#921=DIRECTION('',(0.,0.,1.));
#922=DIRECTION('',(0.,-1.,0.));
#923=DIRECTION('',(0.,0.,-1.));
#924=DIRECTION('',(0.,-1.,0.));
#925=DIRECTION('',(0.,0.,-1.));
#926=DIRECTION('',(0.,1.,0.));
#927=DIRECTION('',(0.,-1.,0.));
#928=DIRECTION('',(0.,-1.,0.));
#929=DIRECTION('',(0.,1.,0.));
#930=DIRECTION('',(0.,-1.,0.));
#931=DIRECTION('',(0.,0.,-1.));
#932=DIRECTION('',(0.,-1.,0.));
#933=DIRECTION('',(0.,1.,0.));
#934=DIRECTION('',(0.,0.,-1.));
#935=DIRECTION('',(0.,1.,0.));
#936=DIRECTION('',(0.,-1.,0.));
#937=DIRECTION('',(0.,-1.,0.));
#938=DIRECTION('',(0.,1.,0.));
#939=DIRECTION('',(0.,-1.,0.));
#940=DIRECTION('',(0.,0.,1.));
#941=DIRECTION('',(0.,-1.,0.));
#942=DIRECTION('',(0.,0.,-1.));
#943=DIRECTION('',(0.,1.,0.));
#944=DIRECTION('',(0.,-1.,0.));
#945=DIRECTION('',(-1.,0.,3.49148133884314E-15));
#946=DIRECTION('',(0.,1.,0.));
#947=DIRECTION('',(0.,-1.,0.));
#948=DIRECTION('',(0.,-1.,0.));
#949=DIRECTION('',(0.,-1.,0.));
#950=DIRECTION('',(0.,0.,-1.));
#951=DIRECTION('',(0.,1.,0.));
#952=DIRECTION('',(0.,-1.,0.));
#953=DIRECTION('',(1.,0.,-1.04744440165294E-14));
#954=DIRECTION('',(0.,1.,0.));
#955=DIRECTION('',(0.,-1.,0.));
#956=DIRECTION('',(0.,-1.,0.));
#957=DIRECTION('',(0.,1.,0.));
#958=DIRECTION('',(0.,0.,1.));
#959=DIRECTION('',(0.,1.,0.));
#960=DIRECTION('',(0.,1.,0.));
#961=DIRECTION('',(0.,0.,-1.));
#962=DIRECTION('',(0.,1.,0.));
#963=DIRECTION('',(0.486274592443662,0.,0.873806054421546));
#964=DIRECTION('',(0.873806054421546,0.,-0.486274592443662));
#965=DIRECTION('',(0.,1.,0.));
#966=DIRECTION('',(0.873806054421546,0.,-0.486274592443662));
#967=DIRECTION('',(0.519693841497629,0.,-0.854352568386985));
#968=DIRECTION('',(-0.854352568386985,0.,-0.519693841497629));
#969=DIRECTION('',(-0.854352568386985,0.,-0.51969384149763));
#970=DIRECTION('',(0.,1.,0.));
#971=DIRECTION('',(0.,1.,0.));
#972=DIRECTION('',(0.,0.,1.));
#973=DIRECTION('',(0.,1.,0.));
#974=DIRECTION('',(0.,1.,0.));
#975=DIRECTION('',(-1.,0.,3.49148133884314E-15));
#976=DIRECTION('',(0.,1.,0.));
#977=DIRECTION('',(0.873806054421545,0.,-0.486274592443665));
#978=DIRECTION('',(-0.486274592443665,0.,-0.873806054421545));
#979=DIRECTION('',(-0.486274592443665,0.,-0.873806054421545));
#980=DIRECTION('',(-0.854352568386986,0.,-0.519693841497626));
#981=DIRECTION('',(-0.519693841497627,0.,0.854352568386987));
#982=DIRECTION('',(-0.519693841497627,0.,0.854352568386986));
#983=DIRECTION('',(0.,1.,0.));
#984=DIRECTION('',(0.,0.,1.));
#985=DIRECTION('',(0.,1.,0.));
#986=DIRECTION('',(0.,1.,0.));
#987=DIRECTION('',(0.,0.,1.));
#988=DIRECTION('',(0.,1.,0.));
#989=DIRECTION('',(-0.486274592443662,0.,-0.873806054421546));
#990=DIRECTION('',(-0.873806054421546,0.,0.486274592443662));
#991=DIRECTION('',(0.,1.,0.));
#992=DIRECTION('',(-0.873806054421546,0.,0.486274592443662));
#993=DIRECTION('',(-0.519693841497629,0.,0.854352568386985));
#994=DIRECTION('',(0.854352568386985,0.,0.519693841497629));
#995=DIRECTION('',(0.854352568386985,0.,0.51969384149763));
#996=DIRECTION('',(0.,1.,0.));
#997=DIRECTION('',(0.,0.,1.));
#998=DIRECTION('',(0.,1.,0.));
#999=DIRECTION('',(0.,1.,0.));
#1000=DIRECTION('',(1.,0.,-1.04744440165294E-14));
#1001=DIRECTION('',(0.,1.,0.));
#1002=DIRECTION('',(-0.873806054421541,0.,0.486274592443672));
#1003=DIRECTION('',(0.486274592443672,0.,0.873806054421541));
#1004=DIRECTION('',(0.486274592443672,0.,0.873806054421541));
#1005=DIRECTION('',(0.85435256838699,0.,0.51969384149762));
#1006=DIRECTION('',(0.519693841497621,0.,-0.85435256838699));
#1007=DIRECTION('',(0.519693841497621,0.,-0.85435256838699));
#1008=DIRECTION('',(0.,-1.,0.));
#1009=DIRECTION('',(0.,0.,-1.));
#1010=DIRECTION('',(0.,0.,-1.));
#1011=DIRECTION('',(-1.,0.,0.));
#1012=DIRECTION('',(1.,0.,0.));
#1013=DIRECTION('',(0.,-1.,0.));
#1014=DIRECTION('',(1.,0.,0.));
#1015=DIRECTION('',(0.,-1.,0.));
#1016=DIRECTION('',(0.,0.,-1.));
#1017=DIRECTION('',(0.,-1.,0.));
#1018=DIRECTION('',(0.,1.,0.));
#1019=DIRECTION('',(0.,0.,-1.));
#1020=DIRECTION('',(0.,1.,0.));
#1021=DIRECTION('',(0.,0.,-1.));
#1022=DIRECTION('',(0.,0.,1.));
#1023=DIRECTION('',(1.,0.,0.));
#1024=DIRECTION('',(0.,-1.,0.));
#1025=DIRECTION('',(-1.,0.,0.));
#1026=DIRECTION('',(-1.,0.,0.));
#1027=DIRECTION('',(-1.,0.,0.));
#1028=DIRECTION('',(0.,0.,1.));
#1029=DIRECTION('',(0.,0.,-1.));
#1030=DIRECTION('',(0.,0.,-1.));
#1031=DIRECTION('',(0.,-1.,0.));
#1032=DIRECTION('',(1.,0.,0.));
#1033=DIRECTION('',(0.,-1.,0.));
#1034=DIRECTION('',(0.,0.,1.));
#1035=DIRECTION('',(0.,0.,-1.));
#1036=DIRECTION('',(-1.,0.,0.));
#1037=DIRECTION('',(1.,0.,0.));
#1038=DIRECTION('',(0.,-1.,0.));
#1039=DIRECTION('',(1.,0.,0.));
#1040=DIRECTION('',(0.,0.,1.));
#1041=DIRECTION('',(1.,0.,0.));
#1042=DIRECTION('',(0.,-1.,0.));
#1043=DIRECTION('',(-1.,0.,0.));
#1044=DIRECTION('',(-1.,0.,0.));
#1045=DIRECTION('',(-1.,0.,0.));
#1046=DIRECTION('',(0.,0.,1.));
#1047=DIRECTION('',(0.,0.,-1.));
#1048=DIRECTION('',(0.,0.,-1.));
#1049=DIRECTION('',(0.,-1.,0.));
#1050=DIRECTION('',(1.,0.,0.));
#1051=DIRECTION('',(0.,1.,0.));
#1052=DIRECTION('',(0.,0.,1.));
#1053=DIRECTION('',(-0.707106781186553,0.,-0.707106781186543));
#1054=DIRECTION('',(-0.707106781186543,0.,0.707106781186553));
#1055=DIRECTION('',(0.707106781186543,0.,-0.707106781186552));
#1056=DIRECTION('',(-0.707106781186552,0.,-0.707106781186543));
#1057=DIRECTION('',(0.707106781186552,0.,0.707106781186543));
#1058=DIRECTION('',(0.707106781186543,0.,-0.707106781186552));
#1059=DIRECTION('',(-0.707106781186543,0.,0.707106781186553));
#1060=DIRECTION('',(0.707106781186553,0.,0.707106781186543));
#1061=DIRECTION('',(0.,-1.,0.));
#1062=DIRECTION('',(0.,0.,-1.));
#1063=DIRECTION('',(0.,-1.,0.));
#1064=DIRECTION('',(0.,0.,-1.));
#1065=DIRECTION('',(0.,-1.,0.));
#1066=DIRECTION('',(0.,0.,1.));
#1067=DIRECTION('',(0.,-1.,0.));
#1068=DIRECTION('',(0.,0.,-1.));
#1069=DIRECTION('',(0.,1.,0.));
#1070=DIRECTION('',(0.,0.,1.));
#1071=DIRECTION('',(0.,1.,0.));
#1072=DIRECTION('',(0.,0.,1.));
#1073=DIRECTION('',(0.,1.,0.));
#1074=DIRECTION('',(0.,0.,1.));
#1075=DIRECTION('',(0.,1.,0.));
#1076=DIRECTION('',(0.,0.,1.));
#1077=DIRECTION('',(0.,1.,0.));
#1078=DIRECTION('',(-1.,0.,0.));
#1079=DIRECTION('',(0.,1.,0.));
#1080=DIRECTION('',(0.,0.,1.));
#1081=DIRECTION('',(0.,1.,0.));
#1082=DIRECTION('',(-1.,0.,0.));
#1083=DIRECTION('',(0.,1.,0.));
#1084=DIRECTION('',(0.,0.,1.));
#1085=DIRECTION('',(0.,-1.,0.));
#1086=DIRECTION('',(-1.,0.,3.49148133884314E-15));
#1087=DIRECTION('',(0.,-1.,0.));
#1088=DIRECTION('',(1.,0.,-1.04744440165294E-14));
#1089=DIRECTION('',(0.,1.,0.));
#1090=DIRECTION('',(0.,0.,1.));
#1091=DIRECTION('',(0.,1.,0.));
#1092=DIRECTION('',(0.,0.,1.));
#1093=CARTESIAN_POINT('',(0.,0.,0.));
#1094=CARTESIAN_POINT('',(0.015225,0.,-0.015225));
#1095=CARTESIAN_POINT('',(0.,0.,2.85786638666024E-18));
#1096=CARTESIAN_POINT('',(0.,0.,-0.0466725));
#1097=CARTESIAN_POINT('',(-0.0374582974137933,0.,-0.0374582974137928));
#1098=CARTESIAN_POINT('',(-0.029781789916251,0.,-0.0451348049113353));
#1099=CARTESIAN_POINT('',(-0.0451348049113354,0.,-0.0297817899162508));
#1100=CARTESIAN_POINT('',(0.,0.,0.));
#1101=CARTESIAN_POINT('',(-0.0262952985864132,0.,-0.0472510623928328));
#1102=CARTESIAN_POINT('',(-0.0255294161033143,0.,-0.0458748178571189));
#1103=CARTESIAN_POINT('',(-0.0255294161033143,0.,-0.0458748178571189));
#1104=CARTESIAN_POINT('',(6.32174569853995E-18,0.,6.33867958121925E-16));
#1105=CARTESIAN_POINT('',(0.025529416103381,0.,-0.0458748178570824));
#1106=CARTESIAN_POINT('',(0.026348528463408,0.,-0.0472214005808064));
#1107=CARTESIAN_POINT('',(0.026348528463408,0.,-0.0472214005808064));
#1108=CARTESIAN_POINT('',(0.,0.,0.));
#1109=CARTESIAN_POINT('',(0.0297817899162509,0.,-0.0451348049113353));
#1110=CARTESIAN_POINT('',(0.0374582974137928,0.,-0.0374582974137933));
#1111=CARTESIAN_POINT('',(0.0451348049113352,0.,-0.0297817899162511));
#1112=CARTESIAN_POINT('',(0.,0.,0.));
#1113=CARTESIAN_POINT('',(0.0472510623928329,0.,-0.026295298586413));
#1114=CARTESIAN_POINT('',(0.045874817857119,0.,-0.0255294161033142));
#1115=CARTESIAN_POINT('',(0.045874817857119,0.,-0.0255294161033142));
#1116=CARTESIAN_POINT('',(-6.33867958121925E-16,0.,6.32174569853775E-18));
#1117=CARTESIAN_POINT('',(0.0458748178570823,0.,0.0255294161033812));
#1118=CARTESIAN_POINT('',(0.0472214005808063,0.,0.0263485284634081));
#1119=CARTESIAN_POINT('',(0.0472214005808063,0.,0.0263485284634081));
#1120=CARTESIAN_POINT('',(0.,0.,0.));
#1121=CARTESIAN_POINT('',(0.0451348049113355,0.,0.0297817899162508));
#1122=CARTESIAN_POINT('',(0.0374582974137933,0.,0.0374582974137928));
#1123=CARTESIAN_POINT('',(0.0297817899162511,0.,0.0451348049113351));
#1124=CARTESIAN_POINT('',(0.,0.,0.));
#1125=CARTESIAN_POINT('',(0.0262952985864135,0.,0.0472510623928326));
#1126=CARTESIAN_POINT('',(0.0255294161033147,0.,0.0458748178571187));
#1127=CARTESIAN_POINT('',(0.0255294161033147,0.,0.0458748178571187));
#1128=CARTESIAN_POINT('',(-6.32174569854438E-18,0.,-6.33867958121925E-16));
#1129=CARTESIAN_POINT('',(-0.0255294161033807,0.,0.0458748178570826));
#1130=CARTESIAN_POINT('',(-0.0263485284634076,0.,0.0472214005808066));
#1131=CARTESIAN_POINT('',(-0.0263485284634076,0.,0.0472214005808066));
#1132=CARTESIAN_POINT('',(0.,0.,0.));
#1133=CARTESIAN_POINT('',(-0.0297817899162503,0.,0.0451348049113357));
#1134=CARTESIAN_POINT('',(-0.0374582974137928,0.,0.0374582974137933));
#1135=CARTESIAN_POINT('',(-0.0451348049113353,0.,0.029781789916251));
#1136=CARTESIAN_POINT('',(0.,0.,0.));
#1137=CARTESIAN_POINT('',(-0.0472510623928329,0.,0.026295298586413));
#1138=CARTESIAN_POINT('',(-0.045874817857119,0.,0.0255294161033142));
#1139=CARTESIAN_POINT('',(-0.045874817857119,0.,0.0255294161033142));
#1140=CARTESIAN_POINT('',(6.33867958121925E-16,0.,-6.32174569853775E-18));
#1141=CARTESIAN_POINT('',(-0.0458748178570823,0.,-0.0255294161033812));
#1142=CARTESIAN_POINT('',(-0.0472214005808063,0.,-0.0263485284634081));
#1143=CARTESIAN_POINT('',(-0.0472214005808063,0.,-0.0263485284634081));
#1144=CARTESIAN_POINT('',(0.,0.,0.));
#1145=CARTESIAN_POINT('',(0.015225,0.0021,-0.015225));
#1146=CARTESIAN_POINT('',(-0.0222332974137934,0.0021,-0.0526832974137929));
#1147=CARTESIAN_POINT('',(-0.0451348049113354,0.0021,-0.0297817899162508));
#1148=CARTESIAN_POINT('',(-0.029781789916251,0.0021,-0.0451348049113353));
#1149=CARTESIAN_POINT('',(0.,0.0021,0.));
#1150=CARTESIAN_POINT('',(-0.0451348049113353,0.0021,0.029781789916251));
#1151=CARTESIAN_POINT('',(-0.0374582974137927,0.0021,0.0374582974137934));
#1152=CARTESIAN_POINT('',(-0.0297817899162503,0.0021,0.0451348049113357));
#1153=CARTESIAN_POINT('',(0.,0.0021,0.));
#1154=CARTESIAN_POINT('',(0.0297817899162511,0.0021,0.0451348049113351));
#1155=CARTESIAN_POINT('',(0.0526832974137932,0.0021,0.0222332974137927));
#1156=CARTESIAN_POINT('',(0.0451348049113355,0.0021,0.0297817899162508));
#1157=CARTESIAN_POINT('',(0.,0.0021,0.));
#1158=CARTESIAN_POINT('',(0.0451348049113352,0.0021,-0.0297817899162511));
#1159=CARTESIAN_POINT('',(0.0374582974137929,0.0021,-0.0374582974137932));
#1160=CARTESIAN_POINT('',(0.0297817899162509,0.0021,-0.0451348049113353));
#1161=CARTESIAN_POINT('',(0.,0.0021,0.));
#1162=CARTESIAN_POINT('',(0.,0.0021,2.85786638666024E-18));
#1163=CARTESIAN_POINT('',(0.,0.0021,0.0466725));
#1164=CARTESIAN_POINT('',(0.,0.0021,0.));
#1165=CARTESIAN_POINT('',(-6.33867958121925E-16,-0.0051235,6.32174569853775E-18));
#1166=CARTESIAN_POINT('',(0.0472510623928329,-0.0051235,-0.026295298586413));
#1167=CARTESIAN_POINT('',(0.0472214005808063,-0.0051235,0.0263485284634081));
#1168=CARTESIAN_POINT('',(0.0472510623928329,-0.0091875,-0.026295298586413));
#1169=CARTESIAN_POINT('',(0.0451348049113352,0.0021,-0.0297817899162511));
#1170=CARTESIAN_POINT('',(0.0451348049113355,0.0021,0.0297817899162508));
#1171=CARTESIAN_POINT('',(0.0472214005808063,-0.0091875,0.0263485284634081));
#1172=CARTESIAN_POINT('',(0.,0.0021,0.));
#1173=CARTESIAN_POINT('',(-0.0472510623928329,-0.0051235,-0.026295298586413));
#1174=CARTESIAN_POINT('',(-0.0472510623928329,-0.0051235,-0.026295298586413));
#1175=CARTESIAN_POINT('',(-0.0472510623928329,-0.0216335,-0.026295298586413));
#1176=CARTESIAN_POINT('',(5.55111512312578E-17,-0.0051235,3.46944695195361E-18));
#1177=CARTESIAN_POINT('',(-0.0472510623928329,-0.0051235,0.026295298586413));
#1178=CARTESIAN_POINT('',(-0.0472510623928329,-0.0091875,0.026295298586413));
#1179=CARTESIAN_POINT('',(-0.0451348049113353,0.0021,0.029781789916251));
#1180=CARTESIAN_POINT('',(-0.0451348049113354,0.0021,-0.0297817899162508));
#1181=CARTESIAN_POINT('',(-0.0472214005808063,-0.0091875,-0.0263485284634081));
#1182=CARTESIAN_POINT('',(-0.0472214005808063,-0.0216335,-0.0263485284634081));
#1183=CARTESIAN_POINT('',(6.33867958121925E-16,-0.0216335,-6.32174569853775E-18));
#1184=CARTESIAN_POINT('',(0.,0.0021,0.));
#1185=CARTESIAN_POINT('',(0.026348528463408,-0.0091875,-0.0472214005808064));
#1186=CARTESIAN_POINT('',(0.026348528463408,-0.0216335,-0.0472214005808064));
#1187=CARTESIAN_POINT('',(6.32174569853995E-18,-0.0216335,6.33867958121925E-16));
#1188=CARTESIAN_POINT('',(-0.0262952985864132,-0.0216335,-0.0472510623928328));
#1189=CARTESIAN_POINT('',(-0.0262952985864132,-0.0091875,-0.0472510623928328));
#1190=CARTESIAN_POINT('',(-0.029781789916251,0.0021,-0.0451348049113353));
#1191=CARTESIAN_POINT('',(0.0297817899162509,0.0021,-0.0451348049113353));
#1192=CARTESIAN_POINT('',(0.,0.0021,0.));
#1193=CARTESIAN_POINT('',(-0.0263485284634076,-0.0091875,0.0472214005808066));
#1194=CARTESIAN_POINT('',(-0.0263485284634076,-0.0216335,0.0472214005808066));
#1195=CARTESIAN_POINT('',(-6.32174569854438E-18,-0.0216335,-6.33867958121925E-16));
#1196=CARTESIAN_POINT('',(0.0262952985864135,-0.0216335,0.0472510623928327));
#1197=CARTESIAN_POINT('',(0.0262952985864135,-0.0091875,0.0472510623928327));
#1198=CARTESIAN_POINT('',(0.0297817899162511,0.0021,0.0451348049113351));
#1199=CARTESIAN_POINT('',(-0.0297817899162503,0.0021,0.0451348049113357));
#1200=CARTESIAN_POINT('',(-6.33867958121925E-16,-0.0091875,6.32174569853775E-18));
#1201=CARTESIAN_POINT('',(0.045874817857119,-0.0091875,-0.0255294161033142));
#1202=CARTESIAN_POINT('',(0.045874817857119,-0.0216335,-0.0255294161033142));
#1203=CARTESIAN_POINT('',(-6.33867958121925E-16,-0.0216335,6.32174569853775E-18));
#1204=CARTESIAN_POINT('',(0.0458748178570823,-0.0216335,0.0255294161033812));
#1205=CARTESIAN_POINT('',(0.0458748178570823,-0.0091875,0.0255294161033812));
#1206=CARTESIAN_POINT('',(0.045874817857119,-0.0091875,-0.0255294161033142));
#1207=CARTESIAN_POINT('',(0.0472510623928329,-0.0091875,-0.026295298586413));
#1208=CARTESIAN_POINT('',(0.0472510623928329,-0.0216335,-0.026295298586413));
#1209=CARTESIAN_POINT('',(0.045874817857119,-0.0216335,-0.0255294161033142));
#1210=CARTESIAN_POINT('',(0.0472214005808063,-0.0091875,0.0263485284634081));
#1211=CARTESIAN_POINT('',(0.0472214005808063,-0.0216335,0.0263485284634081));
#1212=CARTESIAN_POINT('',(0.0472214005808063,-0.0216335,0.0263485284634081));
#1213=CARTESIAN_POINT('',(0.0472214005808063,-0.0091875,0.0263485284634081));
#1214=CARTESIAN_POINT('',(6.32174569853995E-18,-0.0091875,6.33867958121925E-16));
#1215=CARTESIAN_POINT('',(-0.0255294161033143,-0.0091875,-0.0458748178571189));
#1216=CARTESIAN_POINT('',(-0.0255294161033143,-0.0216335,-0.0458748178571189));
#1217=CARTESIAN_POINT('',(6.32174569853995E-18,-0.0216335,6.33867958121925E-16));
#1218=CARTESIAN_POINT('',(0.025529416103381,-0.0216335,-0.0458748178570824));
#1219=CARTESIAN_POINT('',(0.025529416103381,-0.0091875,-0.0458748178570824));
#1220=CARTESIAN_POINT('',(-0.0255294161033143,-0.0091875,-0.0458748178571189));
#1221=CARTESIAN_POINT('',(-0.0255294161033143,-0.0216335,-0.0458748178571189));
#1222=CARTESIAN_POINT('',(0.026348528463408,-0.0091875,-0.0472214005808064));
#1223=CARTESIAN_POINT('',(0.026348528463408,-0.0216335,-0.0472214005808064));
#1224=CARTESIAN_POINT('',(6.33867958121925E-16,-0.0091875,-6.32174569853775E-18));
#1225=CARTESIAN_POINT('',(-0.045874817857119,-0.0091875,0.0255294161033142));
#1226=CARTESIAN_POINT('',(-0.045874817857119,-0.0216335,0.0255294161033142));
#1227=CARTESIAN_POINT('',(6.33867958121925E-16,-0.0216335,-6.32174569853775E-18));
#1228=CARTESIAN_POINT('',(-0.0458748178570823,-0.0216335,-0.0255294161033812));
#1229=CARTESIAN_POINT('',(-0.0458748178570823,-0.0091875,-0.0255294161033812));
#1230=CARTESIAN_POINT('',(-0.045874817857119,-0.0091875,0.0255294161033142));
#1231=CARTESIAN_POINT('',(-0.0472510623928329,-0.0091875,0.026295298586413));
#1232=CARTESIAN_POINT('',(-0.0472510623928329,-0.0216335,0.026295298586413));
#1233=CARTESIAN_POINT('',(-0.045874817857119,-0.0216335,0.0255294161033142));
#1234=CARTESIAN_POINT('',(-0.0472214005808063,-0.0091875,-0.0263485284634081));
#1235=CARTESIAN_POINT('',(-0.0472214005808063,-0.0216335,-0.0263485284634081));
#1236=CARTESIAN_POINT('',(-6.32174569854438E-18,-0.0091875,-6.33867958121925E-16));
#1237=CARTESIAN_POINT('',(0.0255294161033147,-0.0091875,0.0458748178571187));
#1238=CARTESIAN_POINT('',(0.0255294161033147,-0.0216335,0.0458748178571187));
#1239=CARTESIAN_POINT('',(-6.32174569854438E-18,-0.0216335,-6.33867958121925E-16));
#1240=CARTESIAN_POINT('',(-0.0255294161033807,-0.0216335,0.0458748178570826));
#1241=CARTESIAN_POINT('',(-0.0255294161033807,-0.0091875,0.0458748178570826));
#1242=CARTESIAN_POINT('',(0.0255294161033147,-0.0091875,0.0458748178571187));
#1243=CARTESIAN_POINT('',(0.0255294161033147,-0.0216335,0.0458748178571187));
#1244=CARTESIAN_POINT('',(-0.0263485284634076,-0.0091875,0.0472214005808066));
#1245=CARTESIAN_POINT('',(-0.0263485284634076,-0.0216335,0.0472214005808066));
#1246=CARTESIAN_POINT('',(0.,0.02667,2.85786638666024E-18));
#1247=CARTESIAN_POINT('',(-0.0599510623928329,-0.0051235,-0.026295298586413));
#1248=CARTESIAN_POINT('',(-0.0599510623928329,-0.0216335,-0.026295298586413));
#1249=CARTESIAN_POINT('',(-0.0726510623928329,-0.0216335,-0.026295298586413));
#1250=CARTESIAN_POINT('',(-0.0726510623928329,-0.0051235,-0.026295298586413));
#1251=CARTESIAN_POINT('',(-0.0726510623928329,-0.0051235,-0.026295298586413));
#1252=CARTESIAN_POINT('',(-0.0599510623928329,-0.0051235,-0.026295298586413));
#1253=CARTESIAN_POINT('',(5.55111512312578E-17,-0.0051235,3.46944695195361E-18));
#1254=CARTESIAN_POINT('',(-0.0472214005808063,-0.0051235,0.0263485284634081));
#1255=CARTESIAN_POINT('',(-0.0472214005808063,-0.0051235,0.0263485284634081));
#1256=CARTESIAN_POINT('',(-0.0472214005808063,-0.0216335,0.0263485284634081));
#1257=CARTESIAN_POINT('',(5.55111512312578E-17,-0.0216335,3.46944695195361E-18));
#1258=CARTESIAN_POINT('',(5.55111512312578E-17,-0.0051235,3.46944695195361E-18));
#1259=CARTESIAN_POINT('',(-0.0599362314868196,-0.0051235,0.0263485284634081));
#1260=CARTESIAN_POINT('',(-0.0726510623928329,-0.0051235,0.0263485284634081));
#1261=CARTESIAN_POINT('',(-0.0726510623928329,-0.0051235,0.0263485284634081));
#1262=CARTESIAN_POINT('',(-0.0726510623928329,-0.0216335,0.0263485284634081));
#1263=CARTESIAN_POINT('',(-0.0599362314868196,-0.0216335,0.0263485284634081));
#1264=CARTESIAN_POINT('',(-0.0599362314868196,-0.0051235,0.0263485284634081));
#1265=CARTESIAN_POINT('',(-0.0726510623928329,-0.0051235,2.66149384975621E-5));
#1266=CARTESIAN_POINT('',(-0.0726510623928329,-0.0216335,2.66149384975621E-5));
#1267=CARTESIAN_POINT('',(-0.0726510623928329,-0.0051235,2.66149384975621E-5));
#1268=CARTESIAN_POINT('',(0.,-0.0051235,2.6614938497569E-5));
#1269=CARTESIAN_POINT('',(-0.0635,-0.0051235,2.52736483174035E-19));
#1270=CARTESIAN_POINT('',(-0.0635,-0.0051235,0.0041275));
#1271=CARTESIAN_POINT('',(0.0599362314868196,-0.0051235,0.0263485284634081));
#1272=CARTESIAN_POINT('',(0.0599362314868196,-0.0216335,0.0263485284634081));
#1273=CARTESIAN_POINT('',(0.0726510623928329,-0.0216335,0.0263485284634081));
#1274=CARTESIAN_POINT('',(0.0726510623928329,-0.0051235,0.0263485284634081));
#1275=CARTESIAN_POINT('',(0.0726510623928329,-0.0051235,0.0263485284634081));
#1276=CARTESIAN_POINT('',(0.0599362314868196,-0.0051235,0.0263485284634081));
#1277=CARTESIAN_POINT('',(0.0599510623928329,-0.0051235,-0.026295298586413));
#1278=CARTESIAN_POINT('',(0.0726510623928329,-0.0051235,-0.026295298586413));
#1279=CARTESIAN_POINT('',(0.0726510623928329,-0.0051235,-0.026295298586413));
#1280=CARTESIAN_POINT('',(0.0726510623928329,-0.0216335,-0.026295298586413));
#1281=CARTESIAN_POINT('',(0.0599510623928329,-0.0216335,-0.026295298586413));
#1282=CARTESIAN_POINT('',(0.0599510623928329,-0.0051235,-0.026295298586413));
#1283=CARTESIAN_POINT('',(0.0726510623928329,-0.0051235,2.66149384975621E-5));
#1284=CARTESIAN_POINT('',(0.0726510623928329,-0.0216335,2.66149384975621E-5));
#1285=CARTESIAN_POINT('',(0.0726510623928329,-0.0051235,2.66149384975621E-5));
#1286=CARTESIAN_POINT('',(0.,-0.0051235,2.6614938497569E-5));
#1287=CARTESIAN_POINT('',(0.0635,-0.0051235,2.52736483174035E-19));
#1288=CARTESIAN_POINT('',(0.0635,-0.0051235,0.0041275));
#1289=CARTESIAN_POINT('',(0.0374582974137933,0.0254,0.0374582974137928));
#1290=CARTESIAN_POINT('',(-0.0374582974137928,0.0254,0.0374582974137933));
#1291=CARTESIAN_POINT('',(-0.0374582974137933,0.0254,-0.0374582974137928));
#1292=CARTESIAN_POINT('',(0.0374582974137928,0.0254,-0.0374582974137933));
#1293=CARTESIAN_POINT('',(-6.33867958121925E-16,-0.0216335,6.32174569853775E-18));
#1294=CARTESIAN_POINT('',(0.0635,-0.0216335,3.41523198538433E-19));
#1295=CARTESIAN_POINT('',(0.0635,-0.0216335,-0.0014499971));
#1296=CARTESIAN_POINT('',(6.33867958121925E-16,-0.0216335,-6.32174569853775E-18));
#1297=CARTESIAN_POINT('',(-0.0635,-0.0216335,3.41523198538433E-19));
#1298=CARTESIAN_POINT('',(-0.0635,-0.0216335,-0.0014499971));
#1299=CARTESIAN_POINT('',(-0.0635,-0.0305235,2.52736483174035E-19));
#1300=CARTESIAN_POINT('',(-0.0635,-0.0197285,2.52736483174035E-19));
#1301=CARTESIAN_POINT('',(-0.0635,-0.0197285,0.0041275));
#1302=CARTESIAN_POINT('',(0.0635,-0.0305235,2.52736483174035E-19));
#1303=CARTESIAN_POINT('',(0.0635,-0.0197285,2.52736483174035E-19));
#1304=CARTESIAN_POINT('',(0.0635,-0.0197285,0.0041275));
#1305=CARTESIAN_POINT('',(0.00251178119641644,-0.0197285,2.6614938497569E-5));
#1306=CARTESIAN_POINT('',(0.0635,-0.0197285,3.41523198538433E-19));
#1307=CARTESIAN_POINT('',(0.0635,-0.0197285,0.0014499971));
#1308=CARTESIAN_POINT('',(0.00251178119641644,-0.0197285,2.6614938497569E-5));
#1309=CARTESIAN_POINT('',(-0.0635,-0.0197285,3.41523198538433E-19));
#1310=CARTESIAN_POINT('',(-0.0635,-0.0197285,0.0014499971));
#1311=CARTESIAN_POINT('',(6.32174569853995E-18,-0.0216335,6.33867958121925E-16));
#1312=CARTESIAN_POINT('',(-6.32174569854438E-18,-0.0216335,-6.33867958121925E-16));
#1313=CARTESIAN_POINT('',(-0.0635,-0.0451285,3.41523198538433E-19));
#1314=CARTESIAN_POINT('',(0.0635,-0.0451285,3.41523198538433E-19));
#1315=MECHANICAL_DESIGN_GEOMETRIC_PRESENTATION_REPRESENTATION('',(#773),
#1316);
#1316=(
GEOMETRIC_REPRESENTATION_CONTEXT(3)
GLOBAL_UNCERTAINTY_ASSIGNED_CONTEXT((#1317))
GLOBAL_UNIT_ASSIGNED_CONTEXT((#1320,#1319,#1318))
REPRESENTATION_CONTEXT('Default','TOP_LEVEL_ASSEMBLY_PART')
);
#1317=UNCERTAINTY_MEASURE_WITH_UNIT(LENGTH_MEASURE(1.E-8),#1320,
'DISTANCE_ACCURACY_VALUE','Maximum Tolerance applied to model');
#1318=(
NAMED_UNIT(*)
SI_UNIT($,.STERADIAN.)
SOLID_ANGLE_UNIT()
);
#1319=(
NAMED_UNIT(*)
PLANE_ANGLE_UNIT()
SI_UNIT($,.RADIAN.)
);
#1320=(
LENGTH_UNIT()
NAMED_UNIT(*)
SI_UNIT($,.METRE.)
);
#1321=PRODUCT_DEFINITION_SHAPE('','',#1322);
#1322=PRODUCT_DEFINITION('','',#1324,#1323);
#1323=PRODUCT_DEFINITION_CONTEXT('',#1330,'design');
#1324=PRODUCT_DEFINITION_FORMATION_WITH_SPECIFIED_SOURCE('','',#1326,
 .NOT_KNOWN.);
#1325=PRODUCT_RELATED_PRODUCT_CATEGORY('','',(#1326));
#1326=PRODUCT('Default','Default','Default',(#1328));
#1327=PRODUCT_CATEGORY('','');
#1328=PRODUCT_CONTEXT('',#1330,'mechanical');
#1329=APPLICATION_PROTOCOL_DEFINITION('international standard',
'ap242_managed_model_based_3d_engineering',2020,#1330);
#1330=APPLICATION_CONTEXT('managed model based 3d engineering');
ENDSEC;
END-ISO-10303-21;
