ISO-10303-21;
HEADER;
/* Generated by software containing ST-Developer
 * from STEP Tools, Inc. (www.steptools.com) 
 */
/* OPTION: using custom renumber hook */

FILE_DESCRIPTION(
/* description */ ('STEP AP242 Edition 2',
'CAx-IF Rec.Pracs.---Representation and Presentation of Product Manufa
cturing Information (PMI)---4.0---2014-10-13',
'CAx-IF Rec.Pracs.---3D Tessellated Geometry---0.4---2014-09-14','2;1',
'CAx-IF Rec.Pracs.---User Defined Attributes---1.5---2016-08-15'),
/* implementation_level */ '2;1');

FILE_NAME(
/* name */ 'Part Studio 1 - Part 1',
/* time_stamp */ '2026-09-16T23:09:40Z',
/* author */ (''),
/* organization */ (''),
/* preprocessor_version */ 'ST-DEVELOPER v20',
/* originating_system */ 'ONSHAPE BY PTC INC, 1.220',
/* authorisation */ '  ');

FILE_SCHEMA (('AP242_MANAGED_MODEL_BASED_3D_ENGINEERING_MIM_LF { 1 0 10303 442 3 1 4 }'));
ENDSEC;

DATA;
#10=SHAPE_REPRESENTATION_RELATIONSHIP('','',#1099,#11);
#11=ADVANCED_BREP_SHAPE_REPRESENTATION('',(#1097),#1845);
#12=ORIENTED_CLOSED_SHELL('',*,#1088,.F.);
#13=B_SPLINE_SURFACE_WITH_KNOTS('',3,1,((#1619,#1620),(#1621,#1622),(#1623,
#1624),(#1625,#1626)),.SURF_OF_LINEAR_EXTRUSION.,.F.,.F.,.F.,(4,4),(2,2),
(0.00992714573979859,0.9900728542602),(0.,1.),.PIECEWISE_BEZIER_KNOTS.);
#14=B_SPLINE_SURFACE_WITH_KNOTS('',3,1,((#1638,#1639),(#1640,#1641),(#1642,
#1643),(#1644,#1645)),.SURF_OF_LINEAR_EXTRUSION.,.F.,.F.,.F.,(4,4),(2,2),
(0.00992714573979898,0.990072854260201),(0.,1.),
 .PIECEWISE_BEZIER_KNOTS.);
#15=B_SPLINE_SURFACE_WITH_KNOTS('',3,1,((#1661,#1662),(#1663,#1664),(#1665,
#1666),(#1667,#1668)),.SURF_OF_LINEAR_EXTRUSION.,.F.,.F.,.F.,(4,4),(2,2),
(0.00992714573979962,0.990072854260201),(0.,1.),
 .PIECEWISE_BEZIER_KNOTS.);
#16=B_SPLINE_SURFACE_WITH_KNOTS('',3,1,((#1684,#1685),(#1686,#1687),(#1688,
#1689),(#1690,#1691)),.SURF_OF_LINEAR_EXTRUSION.,.F.,.F.,.F.,(4,4),(2,2),
(0.00992714573979804,0.9900728542602),(0.,1.),.PIECEWISE_BEZIER_KNOTS.);
#17=B_SPLINE_SURFACE_WITH_KNOTS('',3,1,((#1707,#1708),(#1709,#1710),(#1711,
#1712),(#1713,#1714)),.SURF_OF_LINEAR_EXTRUSION.,.F.,.F.,.F.,(4,4),(2,2),
(0.00992714573979954,0.9900728542602),(0.,1.),.PIECEWISE_BEZIER_KNOTS.);
#18=B_SPLINE_SURFACE_WITH_KNOTS('',3,1,((#1730,#1731),(#1732,#1733),(#1734,
#1735),(#1736,#1737)),.SURF_OF_LINEAR_EXTRUSION.,.F.,.F.,.F.,(4,4),(2,2),
(0.00992714573979938,0.990072854260202),(0.,1.),
 .PIECEWISE_BEZIER_KNOTS.);
#19=B_SPLINE_SURFACE_WITH_KNOTS('',3,1,((#1753,#1754),(#1755,#1756),(#1757,
#1758),(#1759,#1760)),.SURF_OF_LINEAR_EXTRUSION.,.F.,.F.,.F.,(4,4),(2,2),
(0.00992714573979959,0.9900728542602),(0.,1.),.PIECEWISE_BEZIER_KNOTS.);
#20=B_SPLINE_SURFACE_WITH_KNOTS('',3,1,((#1776,#1777),(#1778,#1779),(#1780,
#1781),(#1782,#1783)),.SURF_OF_LINEAR_EXTRUSION.,.F.,.F.,.F.,(4,4),(2,2),
(0.00992714573979977,0.990072854260202),(0.,1.),
 .PIECEWISE_BEZIER_KNOTS.);
#21=B_SPLINE_CURVE_WITH_KNOTS('',2,(#1523,#1524,#1525),.UNSPECIFIED.,.F.,
 .F.,(3,3),(0.,1.),.PIECEWISE_BEZIER_KNOTS.);
#22=B_SPLINE_CURVE_WITH_KNOTS('',2,(#1535,#1536,#1537),.UNSPECIFIED.,.F.,
 .F.,(3,3),(0.,1.),.PIECEWISE_BEZIER_KNOTS.);
#23=B_SPLINE_CURVE_WITH_KNOTS('',2,(#1546,#1547,#1548),.UNSPECIFIED.,.F.,
 .F.,(3,3),(0.,1.),.PIECEWISE_BEZIER_KNOTS.);
#24=B_SPLINE_CURVE_WITH_KNOTS('',2,(#1557,#1558,#1559),.UNSPECIFIED.,.F.,
 .F.,(3,3),(0.,1.),.PIECEWISE_BEZIER_KNOTS.);
#25=B_SPLINE_CURVE_WITH_KNOTS('',2,(#1568,#1569,#1570),.UNSPECIFIED.,.F.,
 .F.,(3,3),(0.,1.),.PIECEWISE_BEZIER_KNOTS.);
#26=B_SPLINE_CURVE_WITH_KNOTS('',2,(#1579,#1580,#1581),.UNSPECIFIED.,.F.,
 .F.,(3,3),(0.,1.),.PIECEWISE_BEZIER_KNOTS.);
#27=B_SPLINE_CURVE_WITH_KNOTS('',2,(#1590,#1591,#1592),.UNSPECIFIED.,.F.,
 .F.,(3,3),(0.,1.),.PIECEWISE_BEZIER_KNOTS.);
#28=B_SPLINE_CURVE_WITH_KNOTS('',2,(#1601,#1602,#1603),.UNSPECIFIED.,.F.,
 .F.,(3,3),(0.,1.),.PIECEWISE_BEZIER_KNOTS.);
#29=B_SPLINE_CURVE_WITH_KNOTS('',2,(#1629,#1630,#1631),.UNSPECIFIED.,.F.,
 .F.,(3,3),(0.,1.),.PIECEWISE_BEZIER_KNOTS.);
#30=B_SPLINE_CURVE_WITH_KNOTS('',2,(#1648,#1649,#1650),.UNSPECIFIED.,.F.,
 .F.,(3,3),(0.,1.),.PIECEWISE_BEZIER_KNOTS.);
#31=B_SPLINE_CURVE_WITH_KNOTS('',2,(#1671,#1672,#1673),.UNSPECIFIED.,.F.,
 .F.,(3,3),(0.,1.),.PIECEWISE_BEZIER_KNOTS.);
#32=B_SPLINE_CURVE_WITH_KNOTS('',2,(#1694,#1695,#1696),.UNSPECIFIED.,.F.,
 .F.,(3,3),(0.,1.),.PIECEWISE_BEZIER_KNOTS.);
#33=B_SPLINE_CURVE_WITH_KNOTS('',2,(#1717,#1718,#1719),.UNSPECIFIED.,.F.,
 .F.,(3,3),(0.,1.),.PIECEWISE_BEZIER_KNOTS.);
#34=B_SPLINE_CURVE_WITH_KNOTS('',2,(#1740,#1741,#1742),.UNSPECIFIED.,.F.,
 .F.,(3,3),(0.,1.),.PIECEWISE_BEZIER_KNOTS.);
#35=B_SPLINE_CURVE_WITH_KNOTS('',2,(#1763,#1764,#1765),.UNSPECIFIED.,.F.,
 .F.,(3,3),(0.,1.),.PIECEWISE_BEZIER_KNOTS.);
#36=B_SPLINE_CURVE_WITH_KNOTS('',2,(#1786,#1787,#1788),.UNSPECIFIED.,.F.,
 .F.,(3,3),(0.,1.),.PIECEWISE_BEZIER_KNOTS.);
#37=TOROIDAL_SURFACE('',#1130,0.003125,0.000175);
#38=TOROIDAL_SURFACE('',#1169,0.003125,0.000175);
#39=PLANE('',#1128);
#40=PLANE('',#1131);
#41=PLANE('',#1132);
#42=PLANE('',#1133);
#43=PLANE('',#1134);
#44=PLANE('',#1135);
#45=PLANE('',#1136);
#46=PLANE('',#1137);
#47=PLANE('',#1138);
#48=PLANE('',#1139);
#49=PLANE('',#1140);
#50=PLANE('',#1141);
#51=PLANE('',#1142);
#52=PLANE('',#1143);
#53=PLANE('',#1144);
#54=PLANE('',#1145);
#55=PLANE('',#1146);
#56=PLANE('',#1147);
#57=PLANE('',#1148);
#58=PLANE('',#1149);
#59=PLANE('',#1150);
#60=PLANE('',#1151);
#61=PLANE('',#1152);
#62=PLANE('',#1153);
#63=PLANE('',#1154);
#64=PLANE('',#1155);
#65=PLANE('',#1156);
#66=PLANE('',#1157);
#67=PLANE('',#1158);
#68=PLANE('',#1159);
#69=PLANE('',#1160);
#70=PLANE('',#1161);
#71=PLANE('',#1162);
#72=PLANE('',#1163);
#73=PLANE('',#1167);
#74=PLANE('',#1170);
#75=PLANE('',#1174);
#76=PLANE('',#1175);
#77=CIRCLE('',#1102,0.0055);
#78=CIRCLE('',#1103,0.0055);
#79=CIRCLE('',#1105,0.0055);
#80=CIRCLE('',#1106,0.0055);
#81=CIRCLE('',#1108,0.0055);
#82=CIRCLE('',#1109,0.0055);
#83=CIRCLE('',#1111,0.0055);
#84=CIRCLE('',#1112,0.0055);
#85=CIRCLE('',#1114,0.0055);
#86=CIRCLE('',#1115,0.0055);
#87=CIRCLE('',#1117,0.0055);
#88=CIRCLE('',#1118,0.0055);
#89=CIRCLE('',#1120,0.0055);
#90=CIRCLE('',#1121,0.0055);
#91=CIRCLE('',#1123,0.0055);
#92=CIRCLE('',#1124,0.0055);
#93=CIRCLE('',#1126,0.0033);
#94=CIRCLE('',#1127,0.0033);
#95=CIRCLE('',#1129,0.003125);
#96=CIRCLE('',#1165,0.0033);
#97=CIRCLE('',#1166,0.0033);
#98=CIRCLE('',#1168,0.003125);
#99=CIRCLE('',#1172,0.00275);
#100=CIRCLE('',#1173,0.00275);
#101=ORIENTED_EDGE('',*,*,#405,.F.);
#102=ORIENTED_EDGE('',*,*,#406,.T.);
#103=ORIENTED_EDGE('',*,*,#407,.T.);
#104=ORIENTED_EDGE('',*,*,#408,.F.);
#105=ORIENTED_EDGE('',*,*,#409,.T.);
#106=ORIENTED_EDGE('',*,*,#410,.T.);
#107=ORIENTED_EDGE('',*,*,#411,.F.);
#108=ORIENTED_EDGE('',*,*,#412,.F.);
#109=ORIENTED_EDGE('',*,*,#413,.T.);
#110=ORIENTED_EDGE('',*,*,#414,.T.);
#111=ORIENTED_EDGE('',*,*,#415,.F.);
#112=ORIENTED_EDGE('',*,*,#416,.F.);
#113=ORIENTED_EDGE('',*,*,#417,.T.);
#114=ORIENTED_EDGE('',*,*,#418,.T.);
#115=ORIENTED_EDGE('',*,*,#419,.F.);
#116=ORIENTED_EDGE('',*,*,#420,.F.);
#117=ORIENTED_EDGE('',*,*,#421,.T.);
#118=ORIENTED_EDGE('',*,*,#422,.T.);
#119=ORIENTED_EDGE('',*,*,#423,.F.);
#120=ORIENTED_EDGE('',*,*,#424,.F.);
#121=ORIENTED_EDGE('',*,*,#425,.T.);
#122=ORIENTED_EDGE('',*,*,#426,.T.);
#123=ORIENTED_EDGE('',*,*,#427,.F.);
#124=ORIENTED_EDGE('',*,*,#428,.F.);
#125=ORIENTED_EDGE('',*,*,#429,.T.);
#126=ORIENTED_EDGE('',*,*,#430,.T.);
#127=ORIENTED_EDGE('',*,*,#431,.F.);
#128=ORIENTED_EDGE('',*,*,#432,.F.);
#129=ORIENTED_EDGE('',*,*,#433,.T.);
#130=ORIENTED_EDGE('',*,*,#434,.T.);
#131=ORIENTED_EDGE('',*,*,#435,.F.);
#132=ORIENTED_EDGE('',*,*,#436,.F.);
#133=ORIENTED_EDGE('',*,*,#437,.T.);
#134=ORIENTED_EDGE('',*,*,#438,.T.);
#135=ORIENTED_EDGE('',*,*,#439,.T.);
#136=ORIENTED_EDGE('',*,*,#437,.F.);
#137=ORIENTED_EDGE('',*,*,#439,.F.);
#138=ORIENTED_EDGE('',*,*,#438,.F.);
#139=ORIENTED_EDGE('',*,*,#440,.T.);
#140=ORIENTED_EDGE('',*,*,#441,.T.);
#141=ORIENTED_EDGE('',*,*,#442,.F.);
#142=ORIENTED_EDGE('',*,*,#409,.F.);
#143=ORIENTED_EDGE('',*,*,#443,.T.);
#144=ORIENTED_EDGE('',*,*,#444,.T.);
#145=ORIENTED_EDGE('',*,*,#445,.T.);
#146=ORIENTED_EDGE('',*,*,#446,.T.);
#147=ORIENTED_EDGE('',*,*,#447,.F.);
#148=ORIENTED_EDGE('',*,*,#413,.F.);
#149=ORIENTED_EDGE('',*,*,#448,.T.);
#150=ORIENTED_EDGE('',*,*,#449,.T.);
#151=ORIENTED_EDGE('',*,*,#450,.T.);
#152=ORIENTED_EDGE('',*,*,#451,.T.);
#153=ORIENTED_EDGE('',*,*,#452,.F.);
#154=ORIENTED_EDGE('',*,*,#417,.F.);
#155=ORIENTED_EDGE('',*,*,#453,.T.);
#156=ORIENTED_EDGE('',*,*,#454,.T.);
#157=ORIENTED_EDGE('',*,*,#455,.T.);
#158=ORIENTED_EDGE('',*,*,#456,.T.);
#159=ORIENTED_EDGE('',*,*,#457,.F.);
#160=ORIENTED_EDGE('',*,*,#421,.F.);
#161=ORIENTED_EDGE('',*,*,#458,.T.);
#162=ORIENTED_EDGE('',*,*,#459,.T.);
#163=ORIENTED_EDGE('',*,*,#460,.T.);
#164=ORIENTED_EDGE('',*,*,#461,.T.);
#165=ORIENTED_EDGE('',*,*,#462,.F.);
#166=ORIENTED_EDGE('',*,*,#425,.F.);
#167=ORIENTED_EDGE('',*,*,#463,.T.);
#168=ORIENTED_EDGE('',*,*,#464,.T.);
#169=ORIENTED_EDGE('',*,*,#465,.T.);
#170=ORIENTED_EDGE('',*,*,#466,.T.);
#171=ORIENTED_EDGE('',*,*,#467,.F.);
#172=ORIENTED_EDGE('',*,*,#429,.F.);
#173=ORIENTED_EDGE('',*,*,#468,.T.);
#174=ORIENTED_EDGE('',*,*,#469,.T.);
#175=ORIENTED_EDGE('',*,*,#470,.T.);
#176=ORIENTED_EDGE('',*,*,#471,.T.);
#177=ORIENTED_EDGE('',*,*,#472,.F.);
#178=ORIENTED_EDGE('',*,*,#433,.F.);
#179=ORIENTED_EDGE('',*,*,#473,.T.);
#180=ORIENTED_EDGE('',*,*,#474,.T.);
#181=ORIENTED_EDGE('',*,*,#475,.T.);
#182=ORIENTED_EDGE('',*,*,#476,.T.);
#183=ORIENTED_EDGE('',*,*,#477,.F.);
#184=ORIENTED_EDGE('',*,*,#406,.F.);
#185=ORIENTED_EDGE('',*,*,#478,.T.);
#186=ORIENTED_EDGE('',*,*,#479,.T.);
#187=ORIENTED_EDGE('',*,*,#436,.T.);
#188=ORIENTED_EDGE('',*,*,#480,.T.);
#189=ORIENTED_EDGE('',*,*,#481,.T.);
#190=ORIENTED_EDGE('',*,*,#473,.F.);
#191=ORIENTED_EDGE('',*,*,#477,.T.);
#192=ORIENTED_EDGE('',*,*,#482,.T.);
#193=ORIENTED_EDGE('',*,*,#483,.F.);
#194=ORIENTED_EDGE('',*,*,#407,.F.);
#195=ORIENTED_EDGE('',*,*,#484,.T.);
#196=ORIENTED_EDGE('',*,*,#485,.T.);
#197=ORIENTED_EDGE('',*,*,#486,.T.);
#198=ORIENTED_EDGE('',*,*,#475,.F.);
#199=ORIENTED_EDGE('',*,*,#472,.T.);
#200=ORIENTED_EDGE('',*,*,#487,.T.);
#201=ORIENTED_EDGE('',*,*,#488,.F.);
#202=ORIENTED_EDGE('',*,*,#434,.F.);
#203=ORIENTED_EDGE('',*,*,#489,.T.);
#204=ORIENTED_EDGE('',*,*,#490,.T.);
#205=ORIENTED_EDGE('',*,*,#491,.T.);
#206=ORIENTED_EDGE('',*,*,#470,.F.);
#207=ORIENTED_EDGE('',*,*,#432,.T.);
#208=ORIENTED_EDGE('',*,*,#492,.T.);
#209=ORIENTED_EDGE('',*,*,#493,.T.);
#210=ORIENTED_EDGE('',*,*,#468,.F.);
#211=ORIENTED_EDGE('',*,*,#467,.T.);
#212=ORIENTED_EDGE('',*,*,#494,.T.);
#213=ORIENTED_EDGE('',*,*,#495,.F.);
#214=ORIENTED_EDGE('',*,*,#430,.F.);
#215=ORIENTED_EDGE('',*,*,#496,.T.);
#216=ORIENTED_EDGE('',*,*,#497,.T.);
#217=ORIENTED_EDGE('',*,*,#498,.T.);
#218=ORIENTED_EDGE('',*,*,#465,.F.);
#219=ORIENTED_EDGE('',*,*,#428,.T.);
#220=ORIENTED_EDGE('',*,*,#499,.T.);
#221=ORIENTED_EDGE('',*,*,#500,.T.);
#222=ORIENTED_EDGE('',*,*,#463,.F.);
#223=ORIENTED_EDGE('',*,*,#462,.T.);
#224=ORIENTED_EDGE('',*,*,#501,.T.);
#225=ORIENTED_EDGE('',*,*,#502,.F.);
#226=ORIENTED_EDGE('',*,*,#426,.F.);
#227=ORIENTED_EDGE('',*,*,#503,.T.);
#228=ORIENTED_EDGE('',*,*,#504,.T.);
#229=ORIENTED_EDGE('',*,*,#505,.T.);
#230=ORIENTED_EDGE('',*,*,#460,.F.);
#231=ORIENTED_EDGE('',*,*,#424,.T.);
#232=ORIENTED_EDGE('',*,*,#506,.T.);
#233=ORIENTED_EDGE('',*,*,#507,.T.);
#234=ORIENTED_EDGE('',*,*,#458,.F.);
#235=ORIENTED_EDGE('',*,*,#457,.T.);
#236=ORIENTED_EDGE('',*,*,#508,.T.);
#237=ORIENTED_EDGE('',*,*,#509,.F.);
#238=ORIENTED_EDGE('',*,*,#422,.F.);
#239=ORIENTED_EDGE('',*,*,#510,.T.);
#240=ORIENTED_EDGE('',*,*,#511,.T.);
#241=ORIENTED_EDGE('',*,*,#512,.T.);
#242=ORIENTED_EDGE('',*,*,#455,.F.);
#243=ORIENTED_EDGE('',*,*,#420,.T.);
#244=ORIENTED_EDGE('',*,*,#513,.T.);
#245=ORIENTED_EDGE('',*,*,#514,.T.);
#246=ORIENTED_EDGE('',*,*,#453,.F.);
#247=ORIENTED_EDGE('',*,*,#452,.T.);
#248=ORIENTED_EDGE('',*,*,#515,.T.);
#249=ORIENTED_EDGE('',*,*,#516,.F.);
#250=ORIENTED_EDGE('',*,*,#418,.F.);
#251=ORIENTED_EDGE('',*,*,#517,.T.);
#252=ORIENTED_EDGE('',*,*,#518,.T.);
#253=ORIENTED_EDGE('',*,*,#519,.T.);
#254=ORIENTED_EDGE('',*,*,#450,.F.);
#255=ORIENTED_EDGE('',*,*,#416,.T.);
#256=ORIENTED_EDGE('',*,*,#520,.T.);
#257=ORIENTED_EDGE('',*,*,#521,.T.);
#258=ORIENTED_EDGE('',*,*,#448,.F.);
#259=ORIENTED_EDGE('',*,*,#447,.T.);
#260=ORIENTED_EDGE('',*,*,#522,.T.);
#261=ORIENTED_EDGE('',*,*,#523,.F.);
#262=ORIENTED_EDGE('',*,*,#414,.F.);
#263=ORIENTED_EDGE('',*,*,#524,.T.);
#264=ORIENTED_EDGE('',*,*,#525,.T.);
#265=ORIENTED_EDGE('',*,*,#526,.T.);
#266=ORIENTED_EDGE('',*,*,#445,.F.);
#267=ORIENTED_EDGE('',*,*,#412,.T.);
#268=ORIENTED_EDGE('',*,*,#527,.T.);
#269=ORIENTED_EDGE('',*,*,#528,.T.);
#270=ORIENTED_EDGE('',*,*,#443,.F.);
#271=ORIENTED_EDGE('',*,*,#442,.T.);
#272=ORIENTED_EDGE('',*,*,#529,.T.);
#273=ORIENTED_EDGE('',*,*,#530,.F.);
#274=ORIENTED_EDGE('',*,*,#410,.F.);
#275=ORIENTED_EDGE('',*,*,#531,.T.);
#276=ORIENTED_EDGE('',*,*,#532,.T.);
#277=ORIENTED_EDGE('',*,*,#533,.T.);
#278=ORIENTED_EDGE('',*,*,#440,.F.);
#279=ORIENTED_EDGE('',*,*,#405,.T.);
#280=ORIENTED_EDGE('',*,*,#534,.T.);
#281=ORIENTED_EDGE('',*,*,#535,.T.);
#282=ORIENTED_EDGE('',*,*,#478,.F.);
#283=ORIENTED_EDGE('',*,*,#441,.F.);
#284=ORIENTED_EDGE('',*,*,#533,.F.);
#285=ORIENTED_EDGE('',*,*,#536,.T.);
#286=ORIENTED_EDGE('',*,*,#529,.F.);
#287=ORIENTED_EDGE('',*,*,#479,.F.);
#288=ORIENTED_EDGE('',*,*,#535,.F.);
#289=ORIENTED_EDGE('',*,*,#537,.T.);
#290=ORIENTED_EDGE('',*,*,#531,.F.);
#291=ORIENTED_EDGE('',*,*,#446,.F.);
#292=ORIENTED_EDGE('',*,*,#526,.F.);
#293=ORIENTED_EDGE('',*,*,#538,.T.);
#294=ORIENTED_EDGE('',*,*,#522,.F.);
#295=ORIENTED_EDGE('',*,*,#444,.F.);
#296=ORIENTED_EDGE('',*,*,#528,.F.);
#297=ORIENTED_EDGE('',*,*,#539,.T.);
#298=ORIENTED_EDGE('',*,*,#524,.F.);
#299=ORIENTED_EDGE('',*,*,#451,.F.);
#300=ORIENTED_EDGE('',*,*,#519,.F.);
#301=ORIENTED_EDGE('',*,*,#540,.T.);
#302=ORIENTED_EDGE('',*,*,#515,.F.);
#303=ORIENTED_EDGE('',*,*,#449,.F.);
#304=ORIENTED_EDGE('',*,*,#521,.F.);
#305=ORIENTED_EDGE('',*,*,#541,.T.);
#306=ORIENTED_EDGE('',*,*,#517,.F.);
#307=ORIENTED_EDGE('',*,*,#456,.F.);
#308=ORIENTED_EDGE('',*,*,#512,.F.);
#309=ORIENTED_EDGE('',*,*,#542,.T.);
#310=ORIENTED_EDGE('',*,*,#508,.F.);
#311=ORIENTED_EDGE('',*,*,#454,.F.);
#312=ORIENTED_EDGE('',*,*,#514,.F.);
#313=ORIENTED_EDGE('',*,*,#543,.T.);
#314=ORIENTED_EDGE('',*,*,#510,.F.);
#315=ORIENTED_EDGE('',*,*,#461,.F.);
#316=ORIENTED_EDGE('',*,*,#505,.F.);
#317=ORIENTED_EDGE('',*,*,#544,.T.);
#318=ORIENTED_EDGE('',*,*,#501,.F.);
#319=ORIENTED_EDGE('',*,*,#459,.F.);
#320=ORIENTED_EDGE('',*,*,#507,.F.);
#321=ORIENTED_EDGE('',*,*,#545,.T.);
#322=ORIENTED_EDGE('',*,*,#503,.F.);
#323=ORIENTED_EDGE('',*,*,#466,.F.);
#324=ORIENTED_EDGE('',*,*,#498,.F.);
#325=ORIENTED_EDGE('',*,*,#546,.T.);
#326=ORIENTED_EDGE('',*,*,#494,.F.);
#327=ORIENTED_EDGE('',*,*,#464,.F.);
#328=ORIENTED_EDGE('',*,*,#500,.F.);
#329=ORIENTED_EDGE('',*,*,#547,.T.);
#330=ORIENTED_EDGE('',*,*,#496,.F.);
#331=ORIENTED_EDGE('',*,*,#471,.F.);
#332=ORIENTED_EDGE('',*,*,#491,.F.);
#333=ORIENTED_EDGE('',*,*,#548,.T.);
#334=ORIENTED_EDGE('',*,*,#487,.F.);
#335=ORIENTED_EDGE('',*,*,#469,.F.);
#336=ORIENTED_EDGE('',*,*,#493,.F.);
#337=ORIENTED_EDGE('',*,*,#549,.T.);
#338=ORIENTED_EDGE('',*,*,#489,.F.);
#339=ORIENTED_EDGE('',*,*,#476,.F.);
#340=ORIENTED_EDGE('',*,*,#486,.F.);
#341=ORIENTED_EDGE('',*,*,#550,.T.);
#342=ORIENTED_EDGE('',*,*,#482,.F.);
#343=ORIENTED_EDGE('',*,*,#474,.F.);
#344=ORIENTED_EDGE('',*,*,#481,.F.);
#345=ORIENTED_EDGE('',*,*,#551,.T.);
#346=ORIENTED_EDGE('',*,*,#484,.F.);
#347=ORIENTED_EDGE('',*,*,#552,.F.);
#348=ORIENTED_EDGE('',*,*,#553,.F.);
#349=ORIENTED_EDGE('',*,*,#554,.F.);
#350=ORIENTED_EDGE('',*,*,#552,.T.);
#351=ORIENTED_EDGE('',*,*,#554,.T.);
#352=ORIENTED_EDGE('',*,*,#553,.T.);
#353=ORIENTED_EDGE('',*,*,#532,.F.);
#354=ORIENTED_EDGE('',*,*,#537,.F.);
#355=ORIENTED_EDGE('',*,*,#534,.F.);
#356=ORIENTED_EDGE('',*,*,#408,.T.);
#357=ORIENTED_EDGE('',*,*,#483,.T.);
#358=ORIENTED_EDGE('',*,*,#550,.F.);
#359=ORIENTED_EDGE('',*,*,#485,.F.);
#360=ORIENTED_EDGE('',*,*,#551,.F.);
#361=ORIENTED_EDGE('',*,*,#480,.F.);
#362=ORIENTED_EDGE('',*,*,#435,.T.);
#363=ORIENTED_EDGE('',*,*,#488,.T.);
#364=ORIENTED_EDGE('',*,*,#548,.F.);
#365=ORIENTED_EDGE('',*,*,#490,.F.);
#366=ORIENTED_EDGE('',*,*,#549,.F.);
#367=ORIENTED_EDGE('',*,*,#492,.F.);
#368=ORIENTED_EDGE('',*,*,#431,.T.);
#369=ORIENTED_EDGE('',*,*,#495,.T.);
#370=ORIENTED_EDGE('',*,*,#546,.F.);
#371=ORIENTED_EDGE('',*,*,#497,.F.);
#372=ORIENTED_EDGE('',*,*,#547,.F.);
#373=ORIENTED_EDGE('',*,*,#499,.F.);
#374=ORIENTED_EDGE('',*,*,#427,.T.);
#375=ORIENTED_EDGE('',*,*,#502,.T.);
#376=ORIENTED_EDGE('',*,*,#544,.F.);
#377=ORIENTED_EDGE('',*,*,#504,.F.);
#378=ORIENTED_EDGE('',*,*,#545,.F.);
#379=ORIENTED_EDGE('',*,*,#506,.F.);
#380=ORIENTED_EDGE('',*,*,#423,.T.);
#381=ORIENTED_EDGE('',*,*,#509,.T.);
#382=ORIENTED_EDGE('',*,*,#542,.F.);
#383=ORIENTED_EDGE('',*,*,#511,.F.);
#384=ORIENTED_EDGE('',*,*,#543,.F.);
#385=ORIENTED_EDGE('',*,*,#513,.F.);
#386=ORIENTED_EDGE('',*,*,#419,.T.);
#387=ORIENTED_EDGE('',*,*,#516,.T.);
#388=ORIENTED_EDGE('',*,*,#540,.F.);
#389=ORIENTED_EDGE('',*,*,#518,.F.);
#390=ORIENTED_EDGE('',*,*,#541,.F.);
#391=ORIENTED_EDGE('',*,*,#520,.F.);
#392=ORIENTED_EDGE('',*,*,#415,.T.);
#393=ORIENTED_EDGE('',*,*,#523,.T.);
#394=ORIENTED_EDGE('',*,*,#538,.F.);
#395=ORIENTED_EDGE('',*,*,#525,.F.);
#396=ORIENTED_EDGE('',*,*,#539,.F.);
#397=ORIENTED_EDGE('',*,*,#527,.F.);
#398=ORIENTED_EDGE('',*,*,#411,.T.);
#399=ORIENTED_EDGE('',*,*,#530,.T.);
#400=ORIENTED_EDGE('',*,*,#536,.F.);
#401=ORIENTED_EDGE('',*,*,#555,.T.);
#402=ORIENTED_EDGE('',*,*,#556,.F.);
#403=ORIENTED_EDGE('',*,*,#555,.F.);
#404=ORIENTED_EDGE('',*,*,#556,.T.);
#405=EDGE_CURVE('',#557,#558,#661,.T.);
#406=EDGE_CURVE('',#557,#559,#77,.T.);
#407=EDGE_CURVE('',#559,#560,#662,.T.);
#408=EDGE_CURVE('',#558,#560,#78,.T.);
#409=EDGE_CURVE('',#561,#562,#79,.T.);
#410=EDGE_CURVE('',#562,#563,#663,.T.);
#411=EDGE_CURVE('',#564,#563,#80,.T.);
#412=EDGE_CURVE('',#561,#564,#664,.T.);
#413=EDGE_CURVE('',#565,#566,#81,.T.);
#414=EDGE_CURVE('',#566,#567,#665,.T.);
#415=EDGE_CURVE('',#568,#567,#82,.T.);
#416=EDGE_CURVE('',#565,#568,#666,.T.);
#417=EDGE_CURVE('',#569,#570,#83,.T.);
#418=EDGE_CURVE('',#570,#571,#667,.T.);
#419=EDGE_CURVE('',#572,#571,#84,.T.);
#420=EDGE_CURVE('',#569,#572,#668,.T.);
#421=EDGE_CURVE('',#573,#574,#85,.T.);
#422=EDGE_CURVE('',#574,#575,#669,.T.);
#423=EDGE_CURVE('',#576,#575,#86,.T.);
#424=EDGE_CURVE('',#573,#576,#670,.T.);
#425=EDGE_CURVE('',#577,#578,#87,.T.);
#426=EDGE_CURVE('',#578,#579,#671,.T.);
#427=EDGE_CURVE('',#580,#579,#88,.T.);
#428=EDGE_CURVE('',#577,#580,#672,.T.);
#429=EDGE_CURVE('',#581,#582,#89,.T.);
#430=EDGE_CURVE('',#582,#583,#673,.T.);
#431=EDGE_CURVE('',#584,#583,#90,.T.);
#432=EDGE_CURVE('',#581,#584,#674,.T.);
#433=EDGE_CURVE('',#585,#586,#91,.T.);
#434=EDGE_CURVE('',#586,#587,#675,.T.);
#435=EDGE_CURVE('',#588,#587,#92,.T.);
#436=EDGE_CURVE('',#585,#588,#676,.T.);
#437=EDGE_CURVE('',#589,#589,#93,.F.);
#438=EDGE_CURVE('',#590,#590,#94,.T.);
#439=EDGE_CURVE('',#591,#591,#95,.T.);
#440=EDGE_CURVE('',#592,#593,#21,.T.);
#441=EDGE_CURVE('',#593,#594,#677,.F.);
#442=EDGE_CURVE('',#562,#594,#678,.T.);
#443=EDGE_CURVE('',#561,#595,#679,.T.);
#444=EDGE_CURVE('',#595,#596,#680,.F.);
#445=EDGE_CURVE('',#596,#597,#22,.T.);
#446=EDGE_CURVE('',#597,#598,#681,.F.);
#447=EDGE_CURVE('',#566,#598,#682,.T.);
#448=EDGE_CURVE('',#565,#599,#683,.T.);
#449=EDGE_CURVE('',#599,#600,#684,.F.);
#450=EDGE_CURVE('',#600,#601,#23,.T.);
#451=EDGE_CURVE('',#601,#602,#685,.F.);
#452=EDGE_CURVE('',#570,#602,#686,.T.);
#453=EDGE_CURVE('',#569,#603,#687,.T.);
#454=EDGE_CURVE('',#603,#604,#688,.F.);
#455=EDGE_CURVE('',#604,#605,#24,.T.);
#456=EDGE_CURVE('',#605,#606,#689,.F.);
#457=EDGE_CURVE('',#574,#606,#690,.T.);
#458=EDGE_CURVE('',#573,#607,#691,.T.);
#459=EDGE_CURVE('',#607,#608,#692,.F.);
#460=EDGE_CURVE('',#608,#609,#25,.T.);
#461=EDGE_CURVE('',#609,#610,#693,.F.);
#462=EDGE_CURVE('',#578,#610,#694,.T.);
#463=EDGE_CURVE('',#577,#611,#695,.T.);
#464=EDGE_CURVE('',#611,#612,#696,.F.);
#465=EDGE_CURVE('',#612,#613,#26,.T.);
#466=EDGE_CURVE('',#613,#614,#697,.F.);
#467=EDGE_CURVE('',#582,#614,#698,.T.);
#468=EDGE_CURVE('',#581,#615,#699,.T.);
#469=EDGE_CURVE('',#615,#616,#700,.F.);
#470=EDGE_CURVE('',#616,#617,#27,.T.);
#471=EDGE_CURVE('',#617,#618,#701,.F.);
#472=EDGE_CURVE('',#586,#618,#702,.T.);
#473=EDGE_CURVE('',#585,#619,#703,.T.);
#474=EDGE_CURVE('',#619,#620,#704,.F.);
#475=EDGE_CURVE('',#620,#621,#28,.T.);
#476=EDGE_CURVE('',#621,#622,#705,.F.);
#477=EDGE_CURVE('',#559,#622,#706,.T.);
#478=EDGE_CURVE('',#557,#623,#707,.T.);
#479=EDGE_CURVE('',#623,#592,#708,.F.);
#480=EDGE_CURVE('',#588,#624,#709,.T.);
#481=EDGE_CURVE('',#624,#619,#710,.T.);
#482=EDGE_CURVE('',#622,#625,#711,.T.);
#483=EDGE_CURVE('',#560,#625,#712,.T.);
#484=EDGE_CURVE('',#620,#626,#713,.T.);
#485=EDGE_CURVE('',#626,#627,#29,.T.);
#486=EDGE_CURVE('',#627,#621,#714,.F.);
#487=EDGE_CURVE('',#618,#628,#715,.T.);
#488=EDGE_CURVE('',#587,#628,#716,.T.);
#489=EDGE_CURVE('',#616,#629,#717,.T.);
#490=EDGE_CURVE('',#629,#630,#30,.T.);
#491=EDGE_CURVE('',#630,#617,#718,.F.);
#492=EDGE_CURVE('',#584,#631,#719,.T.);
#493=EDGE_CURVE('',#631,#615,#720,.T.);
#494=EDGE_CURVE('',#614,#632,#721,.T.);
#495=EDGE_CURVE('',#583,#632,#722,.T.);
#496=EDGE_CURVE('',#612,#633,#723,.T.);
#497=EDGE_CURVE('',#633,#634,#31,.T.);
#498=EDGE_CURVE('',#634,#613,#724,.F.);
#499=EDGE_CURVE('',#580,#635,#725,.T.);
#500=EDGE_CURVE('',#635,#611,#726,.T.);
#501=EDGE_CURVE('',#610,#636,#727,.T.);
#502=EDGE_CURVE('',#579,#636,#728,.T.);
#503=EDGE_CURVE('',#608,#637,#729,.T.);
#504=EDGE_CURVE('',#637,#638,#32,.T.);
#505=EDGE_CURVE('',#638,#609,#730,.F.);
#506=EDGE_CURVE('',#576,#639,#731,.T.);
#507=EDGE_CURVE('',#639,#607,#732,.T.);
#508=EDGE_CURVE('',#606,#640,#733,.T.);
#509=EDGE_CURVE('',#575,#640,#734,.T.);
#510=EDGE_CURVE('',#604,#641,#735,.T.);
#511=EDGE_CURVE('',#641,#642,#33,.T.);
#512=EDGE_CURVE('',#642,#605,#736,.F.);
#513=EDGE_CURVE('',#572,#643,#737,.T.);
#514=EDGE_CURVE('',#643,#603,#738,.T.);
#515=EDGE_CURVE('',#602,#644,#739,.T.);
#516=EDGE_CURVE('',#571,#644,#740,.T.);
#517=EDGE_CURVE('',#600,#645,#741,.T.);
#518=EDGE_CURVE('',#645,#646,#34,.T.);
#519=EDGE_CURVE('',#646,#601,#742,.F.);
#520=EDGE_CURVE('',#568,#647,#743,.T.);
#521=EDGE_CURVE('',#647,#599,#744,.T.);
#522=EDGE_CURVE('',#598,#648,#745,.T.);
#523=EDGE_CURVE('',#567,#648,#746,.T.);
#524=EDGE_CURVE('',#596,#649,#747,.T.);
#525=EDGE_CURVE('',#649,#650,#35,.T.);
#526=EDGE_CURVE('',#650,#597,#748,.F.);
#527=EDGE_CURVE('',#564,#651,#749,.T.);
#528=EDGE_CURVE('',#651,#595,#750,.T.);
#529=EDGE_CURVE('',#594,#652,#751,.T.);
#530=EDGE_CURVE('',#563,#652,#752,.T.);
#531=EDGE_CURVE('',#592,#653,#753,.T.);
#532=EDGE_CURVE('',#653,#654,#36,.T.);
#533=EDGE_CURVE('',#654,#593,#754,.F.);
#534=EDGE_CURVE('',#558,#655,#755,.T.);
#535=EDGE_CURVE('',#655,#623,#756,.T.);
#536=EDGE_CURVE('',#654,#652,#757,.F.);
#537=EDGE_CURVE('',#655,#653,#758,.F.);
#538=EDGE_CURVE('',#650,#648,#759,.F.);
#539=EDGE_CURVE('',#651,#649,#760,.F.);
#540=EDGE_CURVE('',#646,#644,#761,.F.);
#541=EDGE_CURVE('',#647,#645,#762,.F.);
#542=EDGE_CURVE('',#642,#640,#763,.F.);
#543=EDGE_CURVE('',#643,#641,#764,.F.);
#544=EDGE_CURVE('',#638,#636,#765,.F.);
#545=EDGE_CURVE('',#639,#637,#766,.F.);
#546=EDGE_CURVE('',#634,#632,#767,.F.);
#547=EDGE_CURVE('',#635,#633,#768,.F.);
#548=EDGE_CURVE('',#630,#628,#769,.F.);
#549=EDGE_CURVE('',#631,#629,#770,.F.);
#550=EDGE_CURVE('',#627,#625,#771,.F.);
#551=EDGE_CURVE('',#624,#626,#772,.F.);
#552=EDGE_CURVE('',#656,#656,#96,.F.);
#553=EDGE_CURVE('',#657,#657,#97,.T.);
#554=EDGE_CURVE('',#658,#658,#98,.T.);
#555=EDGE_CURVE('',#659,#659,#99,.T.);
#556=EDGE_CURVE('',#660,#660,#100,.T.);
#557=VERTEX_POINT('',#1443);
#558=VERTEX_POINT('',#1444);
#559=VERTEX_POINT('',#1446);
#560=VERTEX_POINT('',#1448);
#561=VERTEX_POINT('',#1452);
#562=VERTEX_POINT('',#1453);
#563=VERTEX_POINT('',#1455);
#564=VERTEX_POINT('',#1457);
#565=VERTEX_POINT('',#1461);
#566=VERTEX_POINT('',#1462);
#567=VERTEX_POINT('',#1464);
#568=VERTEX_POINT('',#1466);
#569=VERTEX_POINT('',#1470);
#570=VERTEX_POINT('',#1471);
#571=VERTEX_POINT('',#1473);
#572=VERTEX_POINT('',#1475);
#573=VERTEX_POINT('',#1479);
#574=VERTEX_POINT('',#1480);
#575=VERTEX_POINT('',#1482);
#576=VERTEX_POINT('',#1484);
#577=VERTEX_POINT('',#1488);
#578=VERTEX_POINT('',#1489);
#579=VERTEX_POINT('',#1491);
#580=VERTEX_POINT('',#1493);
#581=VERTEX_POINT('',#1497);
#582=VERTEX_POINT('',#1498);
#583=VERTEX_POINT('',#1500);
#584=VERTEX_POINT('',#1502);
#585=VERTEX_POINT('',#1506);
#586=VERTEX_POINT('',#1507);
#587=VERTEX_POINT('',#1509);
#588=VERTEX_POINT('',#1511);
#589=VERTEX_POINT('',#1515);
#590=VERTEX_POINT('',#1517);
#591=VERTEX_POINT('',#1520);
#592=VERTEX_POINT('',#1526);
#593=VERTEX_POINT('',#1527);
#594=VERTEX_POINT('',#1529);
#595=VERTEX_POINT('',#1532);
#596=VERTEX_POINT('',#1534);
#597=VERTEX_POINT('',#1538);
#598=VERTEX_POINT('',#1540);
#599=VERTEX_POINT('',#1543);
#600=VERTEX_POINT('',#1545);
#601=VERTEX_POINT('',#1549);
#602=VERTEX_POINT('',#1551);
#603=VERTEX_POINT('',#1554);
#604=VERTEX_POINT('',#1556);
#605=VERTEX_POINT('',#1560);
#606=VERTEX_POINT('',#1562);
#607=VERTEX_POINT('',#1565);
#608=VERTEX_POINT('',#1567);
#609=VERTEX_POINT('',#1571);
#610=VERTEX_POINT('',#1573);
#611=VERTEX_POINT('',#1576);
#612=VERTEX_POINT('',#1578);
#613=VERTEX_POINT('',#1582);
#614=VERTEX_POINT('',#1584);
#615=VERTEX_POINT('',#1587);
#616=VERTEX_POINT('',#1589);
#617=VERTEX_POINT('',#1593);
#618=VERTEX_POINT('',#1595);
#619=VERTEX_POINT('',#1598);
#620=VERTEX_POINT('',#1600);
#621=VERTEX_POINT('',#1604);
#622=VERTEX_POINT('',#1606);
#623=VERTEX_POINT('',#1609);
#624=VERTEX_POINT('',#1613);
#625=VERTEX_POINT('',#1617);
#626=VERTEX_POINT('',#1628);
#627=VERTEX_POINT('',#1632);
#628=VERTEX_POINT('',#1636);
#629=VERTEX_POINT('',#1647);
#630=VERTEX_POINT('',#1651);
#631=VERTEX_POINT('',#1655);
#632=VERTEX_POINT('',#1659);
#633=VERTEX_POINT('',#1670);
#634=VERTEX_POINT('',#1674);
#635=VERTEX_POINT('',#1678);
#636=VERTEX_POINT('',#1682);
#637=VERTEX_POINT('',#1693);
#638=VERTEX_POINT('',#1697);
#639=VERTEX_POINT('',#1701);
#640=VERTEX_POINT('',#1705);
#641=VERTEX_POINT('',#1716);
#642=VERTEX_POINT('',#1720);
#643=VERTEX_POINT('',#1724);
#644=VERTEX_POINT('',#1728);
#645=VERTEX_POINT('',#1739);
#646=VERTEX_POINT('',#1743);
#647=VERTEX_POINT('',#1747);
#648=VERTEX_POINT('',#1751);
#649=VERTEX_POINT('',#1762);
#650=VERTEX_POINT('',#1766);
#651=VERTEX_POINT('',#1770);
#652=VERTEX_POINT('',#1774);
#653=VERTEX_POINT('',#1785);
#654=VERTEX_POINT('',#1789);
#655=VERTEX_POINT('',#1793);
#656=VERTEX_POINT('',#1829);
#657=VERTEX_POINT('',#1831);
#658=VERTEX_POINT('',#1834);
#659=VERTEX_POINT('',#1839);
#660=VERTEX_POINT('',#1841);
#661=LINE('',#1442,#773);
#662=LINE('',#1447,#774);
#663=LINE('',#1454,#775);
#664=LINE('',#1458,#776);
#665=LINE('',#1463,#777);
#666=LINE('',#1467,#778);
#667=LINE('',#1472,#779);
#668=LINE('',#1476,#780);
#669=LINE('',#1481,#781);
#670=LINE('',#1485,#782);
#671=LINE('',#1490,#783);
#672=LINE('',#1494,#784);
#673=LINE('',#1499,#785);
#674=LINE('',#1503,#786);
#675=LINE('',#1508,#787);
#676=LINE('',#1512,#788);
#677=LINE('',#1528,#789);
#678=LINE('',#1530,#790);
#679=LINE('',#1531,#791);
#680=LINE('',#1533,#792);
#681=LINE('',#1539,#793);
#682=LINE('',#1541,#794);
#683=LINE('',#1542,#795);
#684=LINE('',#1544,#796);
#685=LINE('',#1550,#797);
#686=LINE('',#1552,#798);
#687=LINE('',#1553,#799);
#688=LINE('',#1555,#800);
#689=LINE('',#1561,#801);
#690=LINE('',#1563,#802);
#691=LINE('',#1564,#803);
#692=LINE('',#1566,#804);
#693=LINE('',#1572,#805);
#694=LINE('',#1574,#806);
#695=LINE('',#1575,#807);
#696=LINE('',#1577,#808);
#697=LINE('',#1583,#809);
#698=LINE('',#1585,#810);
#699=LINE('',#1586,#811);
#700=LINE('',#1588,#812);
#701=LINE('',#1594,#813);
#702=LINE('',#1596,#814);
#703=LINE('',#1597,#815);
#704=LINE('',#1599,#816);
#705=LINE('',#1605,#817);
#706=LINE('',#1607,#818);
#707=LINE('',#1608,#819);
#708=LINE('',#1610,#820);
#709=LINE('',#1612,#821);
#710=LINE('',#1614,#822);
#711=LINE('',#1616,#823);
#712=LINE('',#1618,#824);
#713=LINE('',#1627,#825);
#714=LINE('',#1633,#826);
#715=LINE('',#1635,#827);
#716=LINE('',#1637,#828);
#717=LINE('',#1646,#829);
#718=LINE('',#1652,#830);
#719=LINE('',#1654,#831);
#720=LINE('',#1656,#832);
#721=LINE('',#1658,#833);
#722=LINE('',#1660,#834);
#723=LINE('',#1669,#835);
#724=LINE('',#1675,#836);
#725=LINE('',#1677,#837);
#726=LINE('',#1679,#838);
#727=LINE('',#1681,#839);
#728=LINE('',#1683,#840);
#729=LINE('',#1692,#841);
#730=LINE('',#1698,#842);
#731=LINE('',#1700,#843);
#732=LINE('',#1702,#844);
#733=LINE('',#1704,#845);
#734=LINE('',#1706,#846);
#735=LINE('',#1715,#847);
#736=LINE('',#1721,#848);
#737=LINE('',#1723,#849);
#738=LINE('',#1725,#850);
#739=LINE('',#1727,#851);
#740=LINE('',#1729,#852);
#741=LINE('',#1738,#853);
#742=LINE('',#1744,#854);
#743=LINE('',#1746,#855);
#744=LINE('',#1748,#856);
#745=LINE('',#1750,#857);
#746=LINE('',#1752,#858);
#747=LINE('',#1761,#859);
#748=LINE('',#1767,#860);
#749=LINE('',#1769,#861);
#750=LINE('',#1771,#862);
#751=LINE('',#1773,#863);
#752=LINE('',#1775,#864);
#753=LINE('',#1784,#865);
#754=LINE('',#1790,#866);
#755=LINE('',#1792,#867);
#756=LINE('',#1794,#868);
#757=LINE('',#1796,#869);
#758=LINE('',#1798,#870);
#759=LINE('',#1800,#871);
#760=LINE('',#1802,#872);
#761=LINE('',#1804,#873);
#762=LINE('',#1806,#874);
#763=LINE('',#1808,#875);
#764=LINE('',#1810,#876);
#765=LINE('',#1812,#877);
#766=LINE('',#1814,#878);
#767=LINE('',#1816,#879);
#768=LINE('',#1818,#880);
#769=LINE('',#1820,#881);
#770=LINE('',#1822,#882);
#771=LINE('',#1824,#883);
#772=LINE('',#1826,#884);
#773=VECTOR('',#1180,1.);
#774=VECTOR('',#1183,1.);
#775=VECTOR('',#1190,1.);
#776=VECTOR('',#1193,1.);
#777=VECTOR('',#1198,1.);
#778=VECTOR('',#1201,1.);
#779=VECTOR('',#1206,1.);
#780=VECTOR('',#1209,1.);
#781=VECTOR('',#1214,1.);
#782=VECTOR('',#1217,1.);
#783=VECTOR('',#1222,1.);
#784=VECTOR('',#1225,1.);
#785=VECTOR('',#1230,1.);
#786=VECTOR('',#1233,1.);
#787=VECTOR('',#1238,1.);
#788=VECTOR('',#1241,1.);
#789=VECTOR('',#1256,1.);
#790=VECTOR('',#1257,1.);
#791=VECTOR('',#1258,1.);
#792=VECTOR('',#1259,1.);
#793=VECTOR('',#1260,1.);
#794=VECTOR('',#1261,1.);
#795=VECTOR('',#1262,1.);
#796=VECTOR('',#1263,1.);
#797=VECTOR('',#1264,1.);
#798=VECTOR('',#1265,1.);
#799=VECTOR('',#1266,1.);
#800=VECTOR('',#1267,1.);
#801=VECTOR('',#1268,1.);
#802=VECTOR('',#1269,1.);
#803=VECTOR('',#1270,1.);
#804=VECTOR('',#1271,1.);
#805=VECTOR('',#1272,1.);
#806=VECTOR('',#1273,1.);
#807=VECTOR('',#1274,1.);
#808=VECTOR('',#1275,1.);
#809=VECTOR('',#1276,1.);
#810=VECTOR('',#1277,1.);
#811=VECTOR('',#1278,1.);
#812=VECTOR('',#1279,1.);
#813=VECTOR('',#1280,1.);
#814=VECTOR('',#1281,1.);
#815=VECTOR('',#1282,1.);
#816=VECTOR('',#1283,1.);
#817=VECTOR('',#1284,1.);
#818=VECTOR('',#1285,1.);
#819=VECTOR('',#1286,1.);
#820=VECTOR('',#1287,1.);
#821=VECTOR('',#1290,1.);
#822=VECTOR('',#1291,1.);
#823=VECTOR('',#1294,1.);
#824=VECTOR('',#1295,1.);
#825=VECTOR('',#1296,1.);
#826=VECTOR('',#1297,1.);
#827=VECTOR('',#1300,1.);
#828=VECTOR('',#1301,1.);
#829=VECTOR('',#1302,1.);
#830=VECTOR('',#1303,1.);
#831=VECTOR('',#1306,1.);
#832=VECTOR('',#1307,1.);
#833=VECTOR('',#1310,1.);
#834=VECTOR('',#1311,1.);
#835=VECTOR('',#1312,1.);
#836=VECTOR('',#1313,1.);
#837=VECTOR('',#1316,1.);
#838=VECTOR('',#1317,1.);
#839=VECTOR('',#1320,1.);
#840=VECTOR('',#1321,1.);
#841=VECTOR('',#1322,1.);
#842=VECTOR('',#1323,1.);
#843=VECTOR('',#1326,1.);
#844=VECTOR('',#1327,1.);
#845=VECTOR('',#1330,1.);
#846=VECTOR('',#1331,1.);
#847=VECTOR('',#1332,1.);
#848=VECTOR('',#1333,1.);
#849=VECTOR('',#1336,1.);
#850=VECTOR('',#1337,1.);
#851=VECTOR('',#1340,1.);
#852=VECTOR('',#1341,1.);
#853=VECTOR('',#1342,1.);
#854=VECTOR('',#1343,1.);
#855=VECTOR('',#1346,1.);
#856=VECTOR('',#1347,1.);
#857=VECTOR('',#1350,1.);
#858=VECTOR('',#1351,1.);
#859=VECTOR('',#1352,1.);
#860=VECTOR('',#1353,1.);
#861=VECTOR('',#1356,1.);
#862=VECTOR('',#1357,1.);
#863=VECTOR('',#1360,1.);
#864=VECTOR('',#1361,1.);
#865=VECTOR('',#1362,1.);
#866=VECTOR('',#1363,1.);
#867=VECTOR('',#1366,1.);
#868=VECTOR('',#1367,1.);
#869=VECTOR('',#1370,1.);
#870=VECTOR('',#1373,1.);
#871=VECTOR('',#1376,1.);
#872=VECTOR('',#1379,1.);
#873=VECTOR('',#1382,1.);
#874=VECTOR('',#1385,1.);
#875=VECTOR('',#1388,1.);
#876=VECTOR('',#1391,1.);
#877=VECTOR('',#1394,1.);
#878=VECTOR('',#1397,1.);
#879=VECTOR('',#1400,1.);
#880=VECTOR('',#1403,1.);
#881=VECTOR('',#1406,1.);
#882=VECTOR('',#1409,1.);
#883=VECTOR('',#1412,1.);
#884=VECTOR('',#1415,1.);
#885=EDGE_LOOP('',(#101,#102,#103,#104));
#886=EDGE_LOOP('',(#105,#106,#107,#108));
#887=EDGE_LOOP('',(#109,#110,#111,#112));
#888=EDGE_LOOP('',(#113,#114,#115,#116));
#889=EDGE_LOOP('',(#117,#118,#119,#120));
#890=EDGE_LOOP('',(#121,#122,#123,#124));
#891=EDGE_LOOP('',(#125,#126,#127,#128));
#892=EDGE_LOOP('',(#129,#130,#131,#132));
#893=EDGE_LOOP('',(#133));
#894=EDGE_LOOP('',(#134));
#895=EDGE_LOOP('',(#135));
#896=EDGE_LOOP('',(#136));
#897=EDGE_LOOP('',(#137));
#898=EDGE_LOOP('',(#138));
#899=EDGE_LOOP('',(#139,#140,#141,#142,#143,#144,#145,#146,#147,#148,#149,
#150,#151,#152,#153,#154,#155,#156,#157,#158,#159,#160,#161,#162,#163,#164,
#165,#166,#167,#168,#169,#170,#171,#172,#173,#174,#175,#176,#177,#178,#179,
#180,#181,#182,#183,#184,#185,#186));
#900=EDGE_LOOP('',(#187,#188,#189,#190));
#901=EDGE_LOOP('',(#191,#192,#193,#194));
#902=EDGE_LOOP('',(#195,#196,#197,#198));
#903=EDGE_LOOP('',(#199,#200,#201,#202));
#904=EDGE_LOOP('',(#203,#204,#205,#206));
#905=EDGE_LOOP('',(#207,#208,#209,#210));
#906=EDGE_LOOP('',(#211,#212,#213,#214));
#907=EDGE_LOOP('',(#215,#216,#217,#218));
#908=EDGE_LOOP('',(#219,#220,#221,#222));
#909=EDGE_LOOP('',(#223,#224,#225,#226));
#910=EDGE_LOOP('',(#227,#228,#229,#230));
#911=EDGE_LOOP('',(#231,#232,#233,#234));
#912=EDGE_LOOP('',(#235,#236,#237,#238));
#913=EDGE_LOOP('',(#239,#240,#241,#242));
#914=EDGE_LOOP('',(#243,#244,#245,#246));
#915=EDGE_LOOP('',(#247,#248,#249,#250));
#916=EDGE_LOOP('',(#251,#252,#253,#254));
#917=EDGE_LOOP('',(#255,#256,#257,#258));
#918=EDGE_LOOP('',(#259,#260,#261,#262));
#919=EDGE_LOOP('',(#263,#264,#265,#266));
#920=EDGE_LOOP('',(#267,#268,#269,#270));
#921=EDGE_LOOP('',(#271,#272,#273,#274));
#922=EDGE_LOOP('',(#275,#276,#277,#278));
#923=EDGE_LOOP('',(#279,#280,#281,#282));
#924=EDGE_LOOP('',(#283,#284,#285,#286));
#925=EDGE_LOOP('',(#287,#288,#289,#290));
#926=EDGE_LOOP('',(#291,#292,#293,#294));
#927=EDGE_LOOP('',(#295,#296,#297,#298));
#928=EDGE_LOOP('',(#299,#300,#301,#302));
#929=EDGE_LOOP('',(#303,#304,#305,#306));
#930=EDGE_LOOP('',(#307,#308,#309,#310));
#931=EDGE_LOOP('',(#311,#312,#313,#314));
#932=EDGE_LOOP('',(#315,#316,#317,#318));
#933=EDGE_LOOP('',(#319,#320,#321,#322));
#934=EDGE_LOOP('',(#323,#324,#325,#326));
#935=EDGE_LOOP('',(#327,#328,#329,#330));
#936=EDGE_LOOP('',(#331,#332,#333,#334));
#937=EDGE_LOOP('',(#335,#336,#337,#338));
#938=EDGE_LOOP('',(#339,#340,#341,#342));
#939=EDGE_LOOP('',(#343,#344,#345,#346));
#940=EDGE_LOOP('',(#347));
#941=EDGE_LOOP('',(#348));
#942=EDGE_LOOP('',(#349));
#943=EDGE_LOOP('',(#350));
#944=EDGE_LOOP('',(#351));
#945=EDGE_LOOP('',(#352));
#946=EDGE_LOOP('',(#353,#354,#355,#356,#357,#358,#359,#360,#361,#362,#363,
#364,#365,#366,#367,#368,#369,#370,#371,#372,#373,#374,#375,#376,#377,#378,
#379,#380,#381,#382,#383,#384,#385,#386,#387,#388,#389,#390,#391,#392,#393,
#394,#395,#396,#397,#398,#399,#400));
#947=EDGE_LOOP('',(#401));
#948=EDGE_LOOP('',(#402));
#949=EDGE_LOOP('',(#403));
#950=EDGE_LOOP('',(#404));
#951=FACE_BOUND('',#885,.T.);
#952=FACE_BOUND('',#886,.T.);
#953=FACE_BOUND('',#887,.T.);
#954=FACE_BOUND('',#888,.T.);
#955=FACE_BOUND('',#889,.T.);
#956=FACE_BOUND('',#890,.T.);
#957=FACE_BOUND('',#891,.T.);
#958=FACE_BOUND('',#892,.T.);
#959=FACE_BOUND('',#893,.T.);
#960=FACE_BOUND('',#894,.T.);
#961=FACE_BOUND('',#895,.T.);
#962=FACE_BOUND('',#896,.T.);
#963=FACE_BOUND('',#897,.T.);
#964=FACE_BOUND('',#898,.T.);
#965=FACE_BOUND('',#899,.T.);
#966=FACE_BOUND('',#900,.T.);
#967=FACE_BOUND('',#901,.T.);
#968=FACE_BOUND('',#902,.T.);
#969=FACE_BOUND('',#903,.T.);
#970=FACE_BOUND('',#904,.T.);
#971=FACE_BOUND('',#905,.T.);
#972=FACE_BOUND('',#906,.T.);
#973=FACE_BOUND('',#907,.T.);
#974=FACE_BOUND('',#908,.T.);
#975=FACE_BOUND('',#909,.T.);
#976=FACE_BOUND('',#910,.T.);
#977=FACE_BOUND('',#911,.T.);
#978=FACE_BOUND('',#912,.T.);
#979=FACE_BOUND('',#913,.T.);
#980=FACE_BOUND('',#914,.T.);
#981=FACE_BOUND('',#915,.T.);
#982=FACE_BOUND('',#916,.T.);
#983=FACE_BOUND('',#917,.T.);
#984=FACE_BOUND('',#918,.T.);
#985=FACE_BOUND('',#919,.T.);
#986=FACE_BOUND('',#920,.T.);
#987=FACE_BOUND('',#921,.T.);
#988=FACE_BOUND('',#922,.T.);
#989=FACE_BOUND('',#923,.T.);
#990=FACE_BOUND('',#924,.T.);
#991=FACE_BOUND('',#925,.T.);
#992=FACE_BOUND('',#926,.T.);
#993=FACE_BOUND('',#927,.T.);
#994=FACE_BOUND('',#928,.T.);
#995=FACE_BOUND('',#929,.T.);
#996=FACE_BOUND('',#930,.T.);
#997=FACE_BOUND('',#931,.T.);
#998=FACE_BOUND('',#932,.T.);
#999=FACE_BOUND('',#933,.T.);
#1000=FACE_BOUND('',#934,.T.);
#1001=FACE_BOUND('',#935,.T.);
#1002=FACE_BOUND('',#936,.T.);
#1003=FACE_BOUND('',#937,.T.);
#1004=FACE_BOUND('',#938,.T.);
#1005=FACE_BOUND('',#939,.T.);
#1006=FACE_BOUND('',#940,.T.);
#1007=FACE_BOUND('',#941,.T.);
#1008=FACE_BOUND('',#942,.T.);
#1009=FACE_BOUND('',#943,.T.);
#1010=FACE_BOUND('',#944,.T.);
#1011=FACE_BOUND('',#945,.T.);
#1012=FACE_BOUND('',#946,.T.);
#1013=FACE_BOUND('',#947,.T.);
#1014=FACE_BOUND('',#948,.T.);
#1015=FACE_BOUND('',#949,.T.);
#1016=FACE_BOUND('',#950,.T.);
#1017=CYLINDRICAL_SURFACE('',#1101,0.0055);
#1018=CYLINDRICAL_SURFACE('',#1104,0.0055);
#1019=CYLINDRICAL_SURFACE('',#1107,0.0055);
#1020=CYLINDRICAL_SURFACE('',#1110,0.0055);
#1021=CYLINDRICAL_SURFACE('',#1113,0.0055);
#1022=CYLINDRICAL_SURFACE('',#1116,0.0055);
#1023=CYLINDRICAL_SURFACE('',#1119,0.0055);
#1024=CYLINDRICAL_SURFACE('',#1122,0.0055);
#1025=CYLINDRICAL_SURFACE('',#1125,0.0033);
#1026=CYLINDRICAL_SURFACE('',#1164,0.0033);
#1027=CYLINDRICAL_SURFACE('',#1171,0.00275);
#1028=ADVANCED_FACE('',(#951),#1017,.T.);
#1029=ADVANCED_FACE('',(#952),#1018,.T.);
#1030=ADVANCED_FACE('',(#953),#1019,.T.);
#1031=ADVANCED_FACE('',(#954),#1020,.T.);
#1032=ADVANCED_FACE('',(#955),#1021,.T.);
#1033=ADVANCED_FACE('',(#956),#1022,.T.);
#1034=ADVANCED_FACE('',(#957),#1023,.T.);
#1035=ADVANCED_FACE('',(#958),#1024,.T.);
#1036=ADVANCED_FACE('',(#959,#960),#1025,.T.);
#1037=ADVANCED_FACE('',(#961),#39,.T.);
#1038=ADVANCED_FACE('',(#962,#963),#37,.T.);
#1039=ADVANCED_FACE('',(#964,#965),#40,.F.);
#1040=ADVANCED_FACE('',(#966),#41,.F.);
#1041=ADVANCED_FACE('',(#967),#42,.T.);
#1042=ADVANCED_FACE('',(#968),#13,.F.);
#1043=ADVANCED_FACE('',(#969),#43,.T.);
#1044=ADVANCED_FACE('',(#970),#14,.F.);
#1045=ADVANCED_FACE('',(#971),#44,.F.);
#1046=ADVANCED_FACE('',(#972),#45,.T.);
#1047=ADVANCED_FACE('',(#973),#15,.F.);
#1048=ADVANCED_FACE('',(#974),#46,.F.);
#1049=ADVANCED_FACE('',(#975),#47,.T.);
#1050=ADVANCED_FACE('',(#976),#16,.F.);
#1051=ADVANCED_FACE('',(#977),#48,.F.);
#1052=ADVANCED_FACE('',(#978),#49,.T.);
#1053=ADVANCED_FACE('',(#979),#17,.F.);
#1054=ADVANCED_FACE('',(#980),#50,.F.);
#1055=ADVANCED_FACE('',(#981),#51,.T.);
#1056=ADVANCED_FACE('',(#982),#18,.F.);
#1057=ADVANCED_FACE('',(#983),#52,.F.);
#1058=ADVANCED_FACE('',(#984),#53,.T.);
#1059=ADVANCED_FACE('',(#985),#19,.F.);
#1060=ADVANCED_FACE('',(#986),#54,.F.);
#1061=ADVANCED_FACE('',(#987),#55,.T.);
#1062=ADVANCED_FACE('',(#988),#20,.F.);
#1063=ADVANCED_FACE('',(#989),#56,.F.);
#1064=ADVANCED_FACE('',(#990),#57,.F.);
#1065=ADVANCED_FACE('',(#991),#58,.F.);
#1066=ADVANCED_FACE('',(#992),#59,.F.);
#1067=ADVANCED_FACE('',(#993),#60,.F.);
#1068=ADVANCED_FACE('',(#994),#61,.F.);
#1069=ADVANCED_FACE('',(#995),#62,.F.);
#1070=ADVANCED_FACE('',(#996),#63,.F.);
#1071=ADVANCED_FACE('',(#997),#64,.F.);
#1072=ADVANCED_FACE('',(#998),#65,.F.);
#1073=ADVANCED_FACE('',(#999),#66,.F.);
#1074=ADVANCED_FACE('',(#1000),#67,.F.);
#1075=ADVANCED_FACE('',(#1001),#68,.F.);
#1076=ADVANCED_FACE('',(#1002),#69,.F.);
#1077=ADVANCED_FACE('',(#1003),#70,.F.);
#1078=ADVANCED_FACE('',(#1004),#71,.F.);
#1079=ADVANCED_FACE('',(#1005),#72,.F.);
#1080=ADVANCED_FACE('',(#1006,#1007),#1026,.T.);
#1081=ADVANCED_FACE('',(#1008),#73,.T.);
#1082=ADVANCED_FACE('',(#1009,#1010),#38,.T.);
#1083=ADVANCED_FACE('',(#1011,#1012),#74,.F.);
#1084=ADVANCED_FACE('',(#1013,#1014),#1027,.F.);
#1085=ADVANCED_FACE('',(#1015),#75,.F.);
#1086=ADVANCED_FACE('',(#1016),#76,.T.);
#1087=CLOSED_SHELL('',(#1028,#1029,#1030,#1031,#1032,#1033,#1034,#1035,
#1036,#1037,#1038,#1039,#1040,#1041,#1042,#1043,#1044,#1045,#1046,#1047,
#1048,#1049,#1050,#1051,#1052,#1053,#1054,#1055,#1056,#1057,#1058,#1059,
#1060,#1061,#1062,#1063,#1064,#1065,#1066,#1067,#1068,#1069,#1070,#1071,
#1072,#1073,#1074,#1075,#1076,#1077,#1078,#1079,#1080,#1081,#1082,#1083));
#1088=CLOSED_SHELL('',(#1084,#1085,#1086));
#1089=STYLED_ITEM('',(#1090),#1097);
#1090=PRESENTATION_STYLE_ASSIGNMENT((#1091));
#1091=SURFACE_STYLE_USAGE(.BOTH.,#1092);
#1092=SURFACE_SIDE_STYLE('',(#1093));
#1093=SURFACE_STYLE_FILL_AREA(#1094);
#1094=FILL_AREA_STYLE('',(#1095));
#1095=FILL_AREA_STYLE_COLOUR('',#1096);
#1096=COLOUR_RGB('',0.615686274509804,0.811764705882353,0.929411764705882);
#1097=BREP_WITH_VOIDS('Part 1',#1087,(#12));
#1098=SHAPE_DEFINITION_REPRESENTATION(#1850,#1099);
#1099=SHAPE_REPRESENTATION('Part 1',(#1100),#1845);
#1100=AXIS2_PLACEMENT_3D('',#1440,#1176,#1177);
#1101=AXIS2_PLACEMENT_3D('',#1441,#1178,#1179);
#1102=AXIS2_PLACEMENT_3D('',#1445,#1181,#1182);
#1103=AXIS2_PLACEMENT_3D('',#1449,#1184,#1185);
#1104=AXIS2_PLACEMENT_3D('',#1450,#1186,#1187);
#1105=AXIS2_PLACEMENT_3D('',#1451,#1188,#1189);
#1106=AXIS2_PLACEMENT_3D('',#1456,#1191,#1192);
#1107=AXIS2_PLACEMENT_3D('',#1459,#1194,#1195);
#1108=AXIS2_PLACEMENT_3D('',#1460,#1196,#1197);
#1109=AXIS2_PLACEMENT_3D('',#1465,#1199,#1200);
#1110=AXIS2_PLACEMENT_3D('',#1468,#1202,#1203);
#1111=AXIS2_PLACEMENT_3D('',#1469,#1204,#1205);
#1112=AXIS2_PLACEMENT_3D('',#1474,#1207,#1208);
#1113=AXIS2_PLACEMENT_3D('',#1477,#1210,#1211);
#1114=AXIS2_PLACEMENT_3D('',#1478,#1212,#1213);
#1115=AXIS2_PLACEMENT_3D('',#1483,#1215,#1216);
#1116=AXIS2_PLACEMENT_3D('',#1486,#1218,#1219);
#1117=AXIS2_PLACEMENT_3D('',#1487,#1220,#1221);
#1118=AXIS2_PLACEMENT_3D('',#1492,#1223,#1224);
#1119=AXIS2_PLACEMENT_3D('',#1495,#1226,#1227);
#1120=AXIS2_PLACEMENT_3D('',#1496,#1228,#1229);
#1121=AXIS2_PLACEMENT_3D('',#1501,#1231,#1232);
#1122=AXIS2_PLACEMENT_3D('',#1504,#1234,#1235);
#1123=AXIS2_PLACEMENT_3D('',#1505,#1236,#1237);
#1124=AXIS2_PLACEMENT_3D('',#1510,#1239,#1240);
#1125=AXIS2_PLACEMENT_3D('',#1513,#1242,#1243);
#1126=AXIS2_PLACEMENT_3D('',#1514,#1244,#1245);
#1127=AXIS2_PLACEMENT_3D('',#1516,#1246,#1247);
#1128=AXIS2_PLACEMENT_3D('',#1518,#1248,#1249);
#1129=AXIS2_PLACEMENT_3D('',#1519,#1250,#1251);
#1130=AXIS2_PLACEMENT_3D('',#1521,#1252,#1253);
#1131=AXIS2_PLACEMENT_3D('',#1522,#1254,#1255);
#1132=AXIS2_PLACEMENT_3D('',#1611,#1288,#1289);
#1133=AXIS2_PLACEMENT_3D('',#1615,#1292,#1293);
#1134=AXIS2_PLACEMENT_3D('',#1634,#1298,#1299);
#1135=AXIS2_PLACEMENT_3D('',#1653,#1304,#1305);
#1136=AXIS2_PLACEMENT_3D('',#1657,#1308,#1309);
#1137=AXIS2_PLACEMENT_3D('',#1676,#1314,#1315);
#1138=AXIS2_PLACEMENT_3D('',#1680,#1318,#1319);
#1139=AXIS2_PLACEMENT_3D('',#1699,#1324,#1325);
#1140=AXIS2_PLACEMENT_3D('',#1703,#1328,#1329);
#1141=AXIS2_PLACEMENT_3D('',#1722,#1334,#1335);
#1142=AXIS2_PLACEMENT_3D('',#1726,#1338,#1339);
#1143=AXIS2_PLACEMENT_3D('',#1745,#1344,#1345);
#1144=AXIS2_PLACEMENT_3D('',#1749,#1348,#1349);
#1145=AXIS2_PLACEMENT_3D('',#1768,#1354,#1355);
#1146=AXIS2_PLACEMENT_3D('',#1772,#1358,#1359);
#1147=AXIS2_PLACEMENT_3D('',#1791,#1364,#1365);
#1148=AXIS2_PLACEMENT_3D('',#1795,#1368,#1369);
#1149=AXIS2_PLACEMENT_3D('',#1797,#1371,#1372);
#1150=AXIS2_PLACEMENT_3D('',#1799,#1374,#1375);
#1151=AXIS2_PLACEMENT_3D('',#1801,#1377,#1378);
#1152=AXIS2_PLACEMENT_3D('',#1803,#1380,#1381);
#1153=AXIS2_PLACEMENT_3D('',#1805,#1383,#1384);
#1154=AXIS2_PLACEMENT_3D('',#1807,#1386,#1387);
#1155=AXIS2_PLACEMENT_3D('',#1809,#1389,#1390);
#1156=AXIS2_PLACEMENT_3D('',#1811,#1392,#1393);
#1157=AXIS2_PLACEMENT_3D('',#1813,#1395,#1396);
#1158=AXIS2_PLACEMENT_3D('',#1815,#1398,#1399);
#1159=AXIS2_PLACEMENT_3D('',#1817,#1401,#1402);
#1160=AXIS2_PLACEMENT_3D('',#1819,#1404,#1405);
#1161=AXIS2_PLACEMENT_3D('',#1821,#1407,#1408);
#1162=AXIS2_PLACEMENT_3D('',#1823,#1410,#1411);
#1163=AXIS2_PLACEMENT_3D('',#1825,#1413,#1414);
#1164=AXIS2_PLACEMENT_3D('',#1827,#1416,#1417);
#1165=AXIS2_PLACEMENT_3D('',#1828,#1418,#1419);
#1166=AXIS2_PLACEMENT_3D('',#1830,#1420,#1421);
#1167=AXIS2_PLACEMENT_3D('',#1832,#1422,#1423);
#1168=AXIS2_PLACEMENT_3D('',#1833,#1424,#1425);
#1169=AXIS2_PLACEMENT_3D('',#1835,#1426,#1427);
#1170=AXIS2_PLACEMENT_3D('',#1836,#1428,#1429);
#1171=AXIS2_PLACEMENT_3D('',#1837,#1430,#1431);
#1172=AXIS2_PLACEMENT_3D('',#1838,#1432,#1433);
#1173=AXIS2_PLACEMENT_3D('',#1840,#1434,#1435);
#1174=AXIS2_PLACEMENT_3D('',#1842,#1436,#1437);
#1175=AXIS2_PLACEMENT_3D('',#1843,#1438,#1439);
#1176=DIRECTION('',(0.,0.,1.));
#1177=DIRECTION('',(1.,0.,0.));
#1178=DIRECTION('',(0.,0.,1.));
#1179=DIRECTION('',(1.,0.,0.));
#1180=DIRECTION('',(0.,0.,-1.));
#1181=DIRECTION('',(0.,0.,-1.));
#1182=DIRECTION('',(-1.,0.,0.));
#1183=DIRECTION('',(0.,0.,-1.));
#1184=DIRECTION('',(0.,0.,-1.));
#1185=DIRECTION('',(-1.,0.,0.));
#1186=DIRECTION('',(0.,0.,1.));
#1187=DIRECTION('',(1.,0.,0.));
#1188=DIRECTION('',(0.,0.,-1.));
#1189=DIRECTION('',(-1.,0.,0.));
#1190=DIRECTION('',(0.,0.,-1.));
#1191=DIRECTION('',(0.,0.,-1.));
#1192=DIRECTION('',(-1.,0.,0.));
#1193=DIRECTION('',(0.,0.,-1.));
#1194=DIRECTION('',(0.,0.,1.));
#1195=DIRECTION('',(1.,0.,0.));
#1196=DIRECTION('',(0.,0.,-1.));
#1197=DIRECTION('',(-1.,0.,0.));
#1198=DIRECTION('',(0.,0.,-1.));
#1199=DIRECTION('',(0.,0.,-1.));
#1200=DIRECTION('',(-1.,0.,0.));
#1201=DIRECTION('',(0.,0.,-1.));
#1202=DIRECTION('',(0.,0.,1.));
#1203=DIRECTION('',(1.,0.,0.));
#1204=DIRECTION('',(0.,0.,-1.));
#1205=DIRECTION('',(-1.,0.,0.));
#1206=DIRECTION('',(0.,0.,-1.));
#1207=DIRECTION('',(0.,0.,-1.));
#1208=DIRECTION('',(-1.,0.,0.));
#1209=DIRECTION('',(0.,0.,-1.));
#1210=DIRECTION('',(0.,0.,1.));
#1211=DIRECTION('',(1.,0.,0.));
#1212=DIRECTION('',(0.,0.,-1.));
#1213=DIRECTION('',(-1.,0.,0.));
#1214=DIRECTION('',(0.,0.,-1.));
#1215=DIRECTION('',(0.,0.,-1.));
#1216=DIRECTION('',(-1.,0.,0.));
#1217=DIRECTION('',(0.,0.,-1.));
#1218=DIRECTION('',(0.,0.,1.));
#1219=DIRECTION('',(1.,0.,0.));
#1220=DIRECTION('',(0.,0.,-1.));
#1221=DIRECTION('',(-1.,0.,0.));
#1222=DIRECTION('',(0.,0.,-1.));
#1223=DIRECTION('',(0.,0.,-1.));
#1224=DIRECTION('',(-1.,0.,0.));
#1225=DIRECTION('',(0.,0.,-1.));
#1226=DIRECTION('',(0.,0.,1.));
#1227=DIRECTION('',(1.,0.,0.));
#1228=DIRECTION('',(0.,0.,-1.));
#1229=DIRECTION('',(-1.,0.,0.));
#1230=DIRECTION('',(0.,0.,-1.));
#1231=DIRECTION('',(0.,0.,-1.));
#1232=DIRECTION('',(-1.,0.,0.));
#1233=DIRECTION('',(0.,0.,-1.));
#1234=DIRECTION('',(0.,0.,1.));
#1235=DIRECTION('',(1.,0.,0.));
#1236=DIRECTION('',(0.,0.,-1.));
#1237=DIRECTION('',(-1.,0.,0.));
#1238=DIRECTION('',(0.,0.,-1.));
#1239=DIRECTION('',(0.,0.,-1.));
#1240=DIRECTION('',(-1.,0.,0.));
#1241=DIRECTION('',(0.,0.,-1.));
#1242=DIRECTION('',(0.,0.,-1.));
#1243=DIRECTION('',(-1.,0.,0.));
#1244=DIRECTION('',(0.,0.,1.));
#1245=DIRECTION('',(1.,0.,0.));
#1246=DIRECTION('',(0.,0.,1.));
#1247=DIRECTION('',(1.,0.,0.));
#1248=DIRECTION('',(0.,0.,1.));
#1249=DIRECTION('',(1.,0.,0.));
#1250=DIRECTION('',(0.,0.,1.));
#1251=DIRECTION('',(1.,0.,0.));
#1252=DIRECTION('',(0.,0.,1.));
#1253=DIRECTION('',(1.,0.,0.));
#1254=DIRECTION('',(0.,0.,-1.));
#1255=DIRECTION('',(1.,0.,0.));
#1256=DIRECTION('',(0.600849365088575,-0.799362271109073,0.));
#1257=DIRECTION('',(0.707106781186548,-0.707106781186548,0.));
#1258=DIRECTION('',(1.,1.39300433827425E-16,0.));
#1259=DIRECTION('',(-0.990099143051672,-0.140369822000118,0.));
#1260=DIRECTION('',(0.99009914305167,-0.140369822000134,0.));
#1261=DIRECTION('',(1.,1.39300433827425E-16,0.));
#1262=DIRECTION('',(0.707106781186547,0.707106781186548,0.));
#1263=DIRECTION('',(-0.6008493650886,-0.799362271109055,0.));
#1264=DIRECTION('',(0.799362271109072,0.600849365088578,0.));
#1265=DIRECTION('',(0.707106781186548,0.707106781186548,0.));
#1266=DIRECTION('',(-1.39300433827425E-16,1.,0.));
#1267=DIRECTION('',(0.14036982200011,-0.990099143051673,0.));
#1268=DIRECTION('',(0.140369822000144,0.990099143051668,0.));
#1269=DIRECTION('',(-1.39300433827425E-16,1.,0.));
#1270=DIRECTION('',(-0.707106781186548,0.707106781186548,0.));
#1271=DIRECTION('',(0.799362271109048,-0.600849365088609,0.));
#1272=DIRECTION('',(-0.600849365088578,0.799362271109072,0.));
#1273=DIRECTION('',(-0.707106781186548,0.707106781186548,0.));
#1274=DIRECTION('',(-1.,0.,0.));
#1275=DIRECTION('',(0.990099143051672,0.140369822000115,0.));
#1276=DIRECTION('',(-0.990099143051669,0.140369822000138,0.));
#1277=DIRECTION('',(-1.,0.,0.));
#1278=DIRECTION('',(-0.707106781186548,-0.707106781186548,0.));
#1279=DIRECTION('',(0.60084936508859,0.799362271109063,0.));
#1280=DIRECTION('',(-0.799362271109064,-0.600849365088588,0.));
#1281=DIRECTION('',(-0.707106781186548,-0.707106781186548,0.));
#1282=DIRECTION('',(0.,-1.,0.));
#1283=DIRECTION('',(-0.140369822000124,0.990099143051671,0.));
#1284=DIRECTION('',(-0.140369822000124,-0.990099143051671,0.));
#1285=DIRECTION('',(0.,-1.,0.));
#1286=DIRECTION('',(0.707106781186548,-0.707106781186548,0.));
#1287=DIRECTION('',(-0.799362271109052,0.600849365088604,0.));
#1288=DIRECTION('',(1.,0.,0.));
#1289=DIRECTION('',(0.,0.,-1.));
#1290=DIRECTION('',(0.,-1.,0.));
#1291=DIRECTION('',(0.,0.,1.));
#1292=DIRECTION('',(1.,0.,0.));
#1293=DIRECTION('',(0.,0.,-1.));
#1294=DIRECTION('',(0.,0.,-1.));
#1295=DIRECTION('',(0.,-1.,0.));
#1296=DIRECTION('',(0.,0.,-1.));
#1297=DIRECTION('',(0.,0.,-1.));
#1298=DIRECTION('',(0.707106781186548,-0.707106781186548,0.));
#1299=DIRECTION('',(0.707106781186548,0.707106781186548,0.));
#1300=DIRECTION('',(0.,0.,-1.));
#1301=DIRECTION('',(-0.707106781186548,-0.707106781186548,0.));
#1302=DIRECTION('',(0.,0.,-1.));
#1303=DIRECTION('',(0.,0.,-1.));
#1304=DIRECTION('',(0.707106781186548,-0.707106781186548,0.));
#1305=DIRECTION('',(0.707106781186548,0.707106781186548,0.));
#1306=DIRECTION('',(-0.707106781186548,-0.707106781186548,0.));
#1307=DIRECTION('',(0.,0.,1.));
#1308=DIRECTION('',(0.,-1.,0.));
#1309=DIRECTION('',(0.,0.,-1.));
#1310=DIRECTION('',(0.,0.,-1.));
#1311=DIRECTION('',(-1.,0.,0.));
#1312=DIRECTION('',(0.,0.,-1.));
#1313=DIRECTION('',(0.,0.,-1.));
#1314=DIRECTION('',(0.,-1.,0.));
#1315=DIRECTION('',(0.,0.,-1.));
#1316=DIRECTION('',(-1.,0.,0.));
#1317=DIRECTION('',(0.,0.,1.));
#1318=DIRECTION('',(-0.707106781186548,-0.707106781186548,0.));
#1319=DIRECTION('',(0.707106781186548,-0.707106781186548,0.));
#1320=DIRECTION('',(0.,0.,-1.));
#1321=DIRECTION('',(-0.707106781186548,0.707106781186548,0.));
#1322=DIRECTION('',(0.,0.,-1.));
#1323=DIRECTION('',(0.,0.,-1.));
#1324=DIRECTION('',(-0.707106781186548,-0.707106781186548,0.));
#1325=DIRECTION('',(0.707106781186548,-0.707106781186548,0.));
#1326=DIRECTION('',(-0.707106781186548,0.707106781186548,0.));
#1327=DIRECTION('',(0.,0.,1.));
#1328=DIRECTION('',(-1.,-1.39300433827425E-16,0.));
#1329=DIRECTION('',(1.39300433827425E-16,-1.,0.));
#1330=DIRECTION('',(0.,0.,-1.));
#1331=DIRECTION('',(-1.39300433827425E-16,1.,0.));
#1332=DIRECTION('',(0.,0.,-1.));
#1333=DIRECTION('',(0.,0.,-1.));
#1334=DIRECTION('',(-1.,-1.39300433827425E-16,0.));
#1335=DIRECTION('',(1.39300433827425E-16,-1.,0.));
#1336=DIRECTION('',(-1.39300433827425E-16,1.,0.));
#1337=DIRECTION('',(0.,0.,1.));
#1338=DIRECTION('',(-0.707106781186548,0.707106781186548,0.));
#1339=DIRECTION('',(-0.707106781186548,-0.707106781186548,0.));
#1340=DIRECTION('',(0.,0.,-1.));
#1341=DIRECTION('',(0.707106781186548,0.707106781186548,0.));
#1342=DIRECTION('',(0.,0.,-1.));
#1343=DIRECTION('',(0.,0.,-1.));
#1344=DIRECTION('',(-0.707106781186548,0.707106781186547,0.));
#1345=DIRECTION('',(-0.707106781186547,-0.707106781186548,0.));
#1346=DIRECTION('',(0.707106781186547,0.707106781186548,0.));
#1347=DIRECTION('',(0.,0.,1.));
#1348=DIRECTION('',(-1.39300433827425E-16,1.,0.));
#1349=DIRECTION('',(-1.,-1.39300433827425E-16,0.));
#1350=DIRECTION('',(0.,0.,-1.));
#1351=DIRECTION('',(1.,1.39300433827425E-16,0.));
#1352=DIRECTION('',(0.,0.,-1.));
#1353=DIRECTION('',(0.,0.,-1.));
#1354=DIRECTION('',(-1.39300433827425E-16,1.,0.));
#1355=DIRECTION('',(-1.,-1.39300433827425E-16,0.));
#1356=DIRECTION('',(1.,1.39300433827425E-16,0.));
#1357=DIRECTION('',(0.,0.,1.));
#1358=DIRECTION('',(0.707106781186547,0.707106781186548,0.));
#1359=DIRECTION('',(-0.707106781186548,0.707106781186547,0.));
#1360=DIRECTION('',(0.,0.,-1.));
#1361=DIRECTION('',(0.707106781186548,-0.707106781186548,0.));
#1362=DIRECTION('',(0.,0.,-1.));
#1363=DIRECTION('',(0.,0.,-1.));
#1364=DIRECTION('',(0.707106781186547,0.707106781186548,0.));
#1365=DIRECTION('',(-0.707106781186548,0.707106781186547,0.));
#1366=DIRECTION('',(0.707106781186548,-0.707106781186548,0.));
#1367=DIRECTION('',(0.,0.,1.));
#1368=DIRECTION('',(-0.799362271109073,-0.600849365088575,0.));
#1369=DIRECTION('',(0.,0.,-1.));
#1370=DIRECTION('',(0.600849365088575,-0.799362271109073,0.));
#1371=DIRECTION('',(0.600849365088604,0.799362271109052,0.));
#1372=DIRECTION('',(0.,0.,-1.));
#1373=DIRECTION('',(-0.799362271109052,0.600849365088604,0.));
#1374=DIRECTION('',(-0.140369822000134,-0.99009914305167,0.));
#1375=DIRECTION('',(0.,0.,-1.));
#1376=DIRECTION('',(0.99009914305167,-0.140369822000134,0.));
#1377=DIRECTION('',(-0.140369822000118,0.990099143051672,0.));
#1378=DIRECTION('',(0.,0.,-1.));
#1379=DIRECTION('',(-0.990099143051672,-0.140369822000118,0.));
#1380=DIRECTION('',(0.600849365088578,-0.799362271109072,0.));
#1381=DIRECTION('',(0.,0.,-1.));
#1382=DIRECTION('',(0.799362271109072,0.600849365088578,0.));
#1383=DIRECTION('',(-0.799362271109055,0.6008493650886,0.));
#1384=DIRECTION('',(0.,0.,-1.));
#1385=DIRECTION('',(-0.6008493650886,-0.799362271109055,0.));
#1386=DIRECTION('',(0.990099143051668,-0.140369822000144,0.));
#1387=DIRECTION('',(0.,0.,-1.));
#1388=DIRECTION('',(0.140369822000144,0.990099143051668,0.));
#1389=DIRECTION('',(-0.990099143051673,-0.14036982200011,0.));
#1390=DIRECTION('',(0.,0.,-1.));
#1391=DIRECTION('',(0.14036982200011,-0.990099143051673,0.));
#1392=DIRECTION('',(0.799362271109072,0.600849365088578,0.));
#1393=DIRECTION('',(0.,0.,-1.));
#1394=DIRECTION('',(-0.600849365088578,0.799362271109072,0.));
#1395=DIRECTION('',(-0.600849365088609,-0.799362271109048,0.));
#1396=DIRECTION('',(0.,0.,-1.));
#1397=DIRECTION('',(0.799362271109048,-0.600849365088609,0.));
#1398=DIRECTION('',(0.140369822000138,0.990099143051669,0.));
#1399=DIRECTION('',(0.,0.,-1.));
#1400=DIRECTION('',(-0.990099143051669,0.140369822000138,0.));
#1401=DIRECTION('',(0.140369822000115,-0.990099143051672,0.));
#1402=DIRECTION('',(0.,0.,-1.));
#1403=DIRECTION('',(0.990099143051672,0.140369822000115,0.));
#1404=DIRECTION('',(-0.600849365088588,0.799362271109064,0.));
#1405=DIRECTION('',(0.,0.,-1.));
#1406=DIRECTION('',(-0.799362271109064,-0.600849365088588,0.));
#1407=DIRECTION('',(0.799362271109063,-0.60084936508859,0.));
#1408=DIRECTION('',(0.,0.,-1.));
#1409=DIRECTION('',(0.60084936508859,0.799362271109063,0.));
#1410=DIRECTION('',(-0.990099143051671,0.140369822000124,0.));
#1411=DIRECTION('',(0.,0.,-1.));
#1412=DIRECTION('',(-0.140369822000124,-0.990099143051671,0.));
#1413=DIRECTION('',(0.990099143051671,0.140369822000124,0.));
#1414=DIRECTION('',(0.,0.,-1.));
#1415=DIRECTION('',(-0.140369822000124,0.990099143051671,0.));
#1416=DIRECTION('',(0.,0.,1.));
#1417=DIRECTION('',(-1.,0.,0.));
#1418=DIRECTION('',(0.,0.,1.));
#1419=DIRECTION('',(1.,0.,0.));
#1420=DIRECTION('',(0.,0.,1.));
#1421=DIRECTION('',(1.,0.,0.));
#1422=DIRECTION('',(0.,0.,-1.));
#1423=DIRECTION('',(1.,0.,0.));
#1424=DIRECTION('',(0.,0.,1.));
#1425=DIRECTION('',(1.,0.,0.));
#1426=DIRECTION('',(0.,0.,-1.));
#1427=DIRECTION('',(1.,0.,0.));
#1428=DIRECTION('',(0.,0.,1.));
#1429=DIRECTION('',(1.,0.,0.));
#1430=DIRECTION('',(0.,0.,-1.));
#1431=DIRECTION('',(-1.,0.,0.));
#1432=DIRECTION('',(0.,0.,1.));
#1433=DIRECTION('',(1.,0.,0.));
#1434=DIRECTION('',(0.,0.,1.));
#1435=DIRECTION('',(1.,0.,0.));
#1436=DIRECTION('',(0.,0.,1.));
#1437=DIRECTION('',(1.,0.,0.));
#1438=DIRECTION('',(0.,0.,1.));
#1439=DIRECTION('',(1.,0.,0.));
#1440=CARTESIAN_POINT('',(0.,0.,0.));
#1441=CARTESIAN_POINT('',(0.,-3.36777869765522E-19,-0.0028));
#1442=CARTESIAN_POINT('',(0.00277103442015713,-0.00475093340747946,0.));
#1443=CARTESIAN_POINT('',(0.00277103442015713,-0.00475093340747946,0.));
#1444=CARTESIAN_POINT('',(0.00277103442015713,-0.00475093340747946,-0.0056));
#1445=CARTESIAN_POINT('',(0.,-3.36777869765522E-19,0.));
#1446=CARTESIAN_POINT('',(0.0014,-0.00531883445878888,0.));
#1447=CARTESIAN_POINT('',(0.0014,-0.00531883445878888,0.));
#1448=CARTESIAN_POINT('',(0.0014,-0.00531883445878888,-0.0056));
#1449=CARTESIAN_POINT('',(0.,-3.36777869765522E-19,-0.0056));
#1450=CARTESIAN_POINT('',(0.,-3.36777869765522E-19,-0.0028));
#1451=CARTESIAN_POINT('',(0.,-3.36777869765522E-19,0.));
#1452=CARTESIAN_POINT('',(0.00531883445878888,-0.0014,0.));
#1453=CARTESIAN_POINT('',(0.00475093340747947,-0.00277103442015713,0.));
#1454=CARTESIAN_POINT('',(0.00475093340747947,-0.00277103442015713,0.));
#1455=CARTESIAN_POINT('',(0.00475093340747947,-0.00277103442015713,-0.0056));
#1456=CARTESIAN_POINT('',(0.,-3.36777869765522E-19,-0.0056));
#1457=CARTESIAN_POINT('',(0.00531883445878888,-0.0014,-0.0056));
#1458=CARTESIAN_POINT('',(0.00531883445878888,-0.0014,0.));
#1459=CARTESIAN_POINT('',(0.,-3.36777869765522E-19,-0.0028));
#1460=CARTESIAN_POINT('',(0.,-3.36777869765522E-19,0.));
#1461=CARTESIAN_POINT('',(0.00475093340747946,0.00277103442015713,0.));
#1462=CARTESIAN_POINT('',(0.00531883445878888,0.0014,0.));
#1463=CARTESIAN_POINT('',(0.00531883445878888,0.0014,0.));
#1464=CARTESIAN_POINT('',(0.00531883445878888,0.0014,-0.0056));
#1465=CARTESIAN_POINT('',(0.,-3.36777869765522E-19,-0.0056));
#1466=CARTESIAN_POINT('',(0.00475093340747946,0.00277103442015713,-0.0056));
#1467=CARTESIAN_POINT('',(0.00475093340747946,0.00277103442015713,0.));
#1468=CARTESIAN_POINT('',(0.,-3.36777869765522E-19,-0.0028));
#1469=CARTESIAN_POINT('',(0.,-3.36777869765522E-19,0.));
#1470=CARTESIAN_POINT('',(0.0014,0.00531883445878888,0.));
#1471=CARTESIAN_POINT('',(0.00277103442015713,0.00475093340747947,0.));
#1472=CARTESIAN_POINT('',(0.00277103442015713,0.00475093340747947,0.));
#1473=CARTESIAN_POINT('',(0.00277103442015713,0.00475093340747947,-0.0056));
#1474=CARTESIAN_POINT('',(0.,-3.36777869765522E-19,-0.0056));
#1475=CARTESIAN_POINT('',(0.0014,0.00531883445878888,-0.0056));
#1476=CARTESIAN_POINT('',(0.0014,0.00531883445878888,0.));
#1477=CARTESIAN_POINT('',(0.,-3.36777869765522E-19,-0.0028));
#1478=CARTESIAN_POINT('',(0.,-3.36777869765522E-19,0.));
#1479=CARTESIAN_POINT('',(-0.00277103442015713,0.00475093340747946,0.));
#1480=CARTESIAN_POINT('',(-0.0014,0.00531883445878888,0.));
#1481=CARTESIAN_POINT('',(-0.0014,0.00531883445878888,0.));
#1482=CARTESIAN_POINT('',(-0.0014,0.00531883445878888,-0.0056));
#1483=CARTESIAN_POINT('',(0.,-3.36777869765522E-19,-0.0056));
#1484=CARTESIAN_POINT('',(-0.00277103442015713,0.00475093340747946,-0.0056));
#1485=CARTESIAN_POINT('',(-0.00277103442015713,0.00475093340747946,0.));
#1486=CARTESIAN_POINT('',(0.,-3.36777869765522E-19,-0.0028));
#1487=CARTESIAN_POINT('',(0.,-3.36777869765522E-19,0.));
#1488=CARTESIAN_POINT('',(-0.00531883445878888,0.0014,0.));
#1489=CARTESIAN_POINT('',(-0.00475093340747947,0.00277103442015713,0.));
#1490=CARTESIAN_POINT('',(-0.00475093340747947,0.00277103442015713,0.));
#1491=CARTESIAN_POINT('',(-0.00475093340747947,0.00277103442015713,-0.0056));
#1492=CARTESIAN_POINT('',(0.,-3.36777869765522E-19,-0.0056));
#1493=CARTESIAN_POINT('',(-0.00531883445878888,0.0014,-0.0056));
#1494=CARTESIAN_POINT('',(-0.00531883445878888,0.0014,0.));
#1495=CARTESIAN_POINT('',(0.,-3.36777869765522E-19,-0.0028));
#1496=CARTESIAN_POINT('',(0.,-3.36777869765522E-19,0.));
#1497=CARTESIAN_POINT('',(-0.00475093340747947,-0.00277103442015713,0.));
#1498=CARTESIAN_POINT('',(-0.00531883445878888,-0.0014,0.));
#1499=CARTESIAN_POINT('',(-0.00531883445878888,-0.0014,0.));
#1500=CARTESIAN_POINT('',(-0.00531883445878888,-0.0014,-0.0056));
#1501=CARTESIAN_POINT('',(0.,-3.36777869765522E-19,-0.0056));
#1502=CARTESIAN_POINT('',(-0.00475093340747947,-0.00277103442015713,-0.0056));
#1503=CARTESIAN_POINT('',(-0.00475093340747947,-0.00277103442015713,0.));
#1504=CARTESIAN_POINT('',(0.,-3.36777869765522E-19,-0.0028));
#1505=CARTESIAN_POINT('',(0.,-3.36777869765522E-19,0.));
#1506=CARTESIAN_POINT('',(-0.0014,-0.00531883445878888,0.));
#1507=CARTESIAN_POINT('',(-0.00277103442015713,-0.00475093340747947,0.));
#1508=CARTESIAN_POINT('',(-0.00277103442015713,-0.00475093340747947,0.));
#1509=CARTESIAN_POINT('',(-0.00277103442015713,-0.00475093340747947,-0.0056));
#1510=CARTESIAN_POINT('',(0.,-3.36777869765522E-19,-0.0056));
#1511=CARTESIAN_POINT('',(-0.0014,-0.00531883445878888,-0.0056));
#1512=CARTESIAN_POINT('',(-0.0014,-0.00531883445878888,0.));
#1513=CARTESIAN_POINT('',(0.,2.02066721859313E-19,0.0123));
#1514=CARTESIAN_POINT('',(0.,2.02066721859313E-19,0.012125));
#1515=CARTESIAN_POINT('',(0.0033,2.02066721859313E-19,0.012125));
#1516=CARTESIAN_POINT('',(0.,2.02066721859313E-19,0.));
#1517=CARTESIAN_POINT('',(0.0033,2.02066721859313E-19,0.));
#1518=CARTESIAN_POINT('',(0.,0.,0.0123));
#1519=CARTESIAN_POINT('',(0.,2.02066721859313E-19,0.0123));
#1520=CARTESIAN_POINT('',(0.003125,2.02066721859313E-19,0.0123));
#1521=CARTESIAN_POINT('',(0.,2.02066721859313E-19,0.012125));
#1522=CARTESIAN_POINT('',(0.,0.,0.));
#1523=CARTESIAN_POINT('',(0.00387174414126462,-0.00585164312858696,0.));
#1524=CARTESIAN_POINT('',(0.00831712844220318,-0.00831712844220319,0.));
#1525=CARTESIAN_POINT('',(0.00585164312858696,-0.00387174414126463,0.));
#1526=CARTESIAN_POINT('',(0.00395932304307024,-0.00589991253876525,0.));
#1527=CARTESIAN_POINT('',(0.00589991253876524,-0.00395932304307024,0.));
#1528=CARTESIAN_POINT('',(0.0057809324504683,-0.00380103346314597,0.));
#1529=CARTESIAN_POINT('',(0.0057809324504683,-0.00380103346314597,0.));
#1530=CARTESIAN_POINT('',(0.00530128826803321,-0.00332138928071087,0.));
#1531=CARTESIAN_POINT('',(0.00609715376670194,-0.0014,0.));
#1532=CARTESIAN_POINT('',(0.00677547307461501,-0.0014,0.));
#1533=CARTESIAN_POINT('',(0.00697153233723265,-0.001372203991905,0.));
#1534=CARTESIAN_POINT('',(0.00697153233723157,-0.00137220399190532,0.));
#1535=CARTESIAN_POINT('',(0.006875473074615,-0.0014,0.));
#1536=CARTESIAN_POINT('',(0.0117621958429628,2.52353195347323E-19,0.));
#1537=CARTESIAN_POINT('',(0.006875473074615,0.0014,0.));
#1538=CARTESIAN_POINT('',(0.00697153233723157,0.00137220399190532,0.));
#1539=CARTESIAN_POINT('',(0.006775473074615,0.0014,0.));
#1540=CARTESIAN_POINT('',(0.00677547307461501,0.0014,0.));
#1541=CARTESIAN_POINT('',(0.00609715376670194,0.0014,0.));
#1542=CARTESIAN_POINT('',(0.00530128826803321,0.00332138928071088,0.));
#1543=CARTESIAN_POINT('',(0.0057809324504683,0.00380103346314597,0.));
#1544=CARTESIAN_POINT('',(0.00589991253876579,0.00395932304307123,0.));
#1545=CARTESIAN_POINT('',(0.00589991253876525,0.00395932304307024,0.));
#1546=CARTESIAN_POINT('',(0.00585164312858696,0.00387174414126462,0.));
#1547=CARTESIAN_POINT('',(0.00831712844220319,0.00831712844220318,0.));
#1548=CARTESIAN_POINT('',(0.00387174414126463,0.00585164312858696,0.));
#1549=CARTESIAN_POINT('',(0.00395932304307024,0.00589991253876524,0.));
#1550=CARTESIAN_POINT('',(0.00380103346314597,0.00578093245046831,0.));
#1551=CARTESIAN_POINT('',(0.00380103346314597,0.00578093245046831,0.));
#1552=CARTESIAN_POINT('',(0.00332138928071087,0.00530128826803321,0.));
#1553=CARTESIAN_POINT('',(0.0014,0.00609715376670194,0.));
#1554=CARTESIAN_POINT('',(0.0014,0.00677547307461501,0.));
#1555=CARTESIAN_POINT('',(0.00137220399190501,0.00697153233723265,0.));
#1556=CARTESIAN_POINT('',(0.00137220399190532,0.00697153233723157,0.));
#1557=CARTESIAN_POINT('',(0.0014,0.006875473074615,0.));
#1558=CARTESIAN_POINT('',(2.37620070731108E-18,0.0117621958429628,0.));
#1559=CARTESIAN_POINT('',(-0.0014,0.006875473074615,0.));
#1560=CARTESIAN_POINT('',(-0.00137220399190532,0.00697153233723157,0.));
#1561=CARTESIAN_POINT('',(-0.0014,0.006775473074615,0.));
#1562=CARTESIAN_POINT('',(-0.0014,0.00677547307461501,0.));
#1563=CARTESIAN_POINT('',(-0.0014,0.00609715376670194,0.));
#1564=CARTESIAN_POINT('',(-0.00332138928071087,0.00530128826803321,0.));
#1565=CARTESIAN_POINT('',(-0.00380103346314596,0.0057809324504683,0.));
#1566=CARTESIAN_POINT('',(-0.00395932304307122,0.00589991253876578,0.));
#1567=CARTESIAN_POINT('',(-0.00395932304307023,0.00589991253876524,0.));
#1568=CARTESIAN_POINT('',(-0.00387174414126462,0.00585164312858696,0.));
#1569=CARTESIAN_POINT('',(-0.00831712844220318,0.00831712844220318,0.));
#1570=CARTESIAN_POINT('',(-0.00585164312858695,0.00387174414126463,0.));
#1571=CARTESIAN_POINT('',(-0.00589991253876524,0.00395932304307025,0.));
#1572=CARTESIAN_POINT('',(-0.0057809324504683,0.00380103346314596,0.));
#1573=CARTESIAN_POINT('',(-0.0057809324504683,0.00380103346314596,0.));
#1574=CARTESIAN_POINT('',(-0.00530128826803321,0.00332138928071087,0.));
#1575=CARTESIAN_POINT('',(-0.00609715376670194,0.0014,0.));
#1576=CARTESIAN_POINT('',(-0.006775473074615,0.0014,0.));
#1577=CARTESIAN_POINT('',(-0.00697153233723265,0.001372203991905,0.));
#1578=CARTESIAN_POINT('',(-0.00697153233723157,0.00137220399190532,0.));
#1579=CARTESIAN_POINT('',(-0.006875473074615,0.0014,0.));
#1580=CARTESIAN_POINT('',(-0.0117621958429627,1.18810035365554E-18,0.));
#1581=CARTESIAN_POINT('',(-0.006875473074615,-0.0014,0.));
#1582=CARTESIAN_POINT('',(-0.00697153233723156,-0.00137220399190532,0.));
#1583=CARTESIAN_POINT('',(-0.006775473074615,-0.0014,0.));
#1584=CARTESIAN_POINT('',(-0.00677547307461501,-0.0014,0.));
#1585=CARTESIAN_POINT('',(-0.00609715376670194,-0.0014,0.));
#1586=CARTESIAN_POINT('',(-0.00530128826803321,-0.00332138928071087,0.));
#1587=CARTESIAN_POINT('',(-0.0057809324504683,-0.00380103346314596,0.));
#1588=CARTESIAN_POINT('',(-0.00589991253876578,-0.00395932304307123,0.));
#1589=CARTESIAN_POINT('',(-0.00589991253876524,-0.00395932304307024,0.));
#1590=CARTESIAN_POINT('',(-0.00585164312858696,-0.00387174414126462,0.));
#1591=CARTESIAN_POINT('',(-0.00831712844220318,-0.00831712844220318,0.));
#1592=CARTESIAN_POINT('',(-0.00387174414126462,-0.00585164312858696,0.));
#1593=CARTESIAN_POINT('',(-0.00395932304307024,-0.00589991253876524,0.));
#1594=CARTESIAN_POINT('',(-0.00380103346314597,-0.0057809324504683,0.));
#1595=CARTESIAN_POINT('',(-0.00380103346314597,-0.0057809324504683,0.));
#1596=CARTESIAN_POINT('',(-0.00332138928071087,-0.00530128826803321,0.));
#1597=CARTESIAN_POINT('',(-0.0014,-0.00609715376670194,0.));
#1598=CARTESIAN_POINT('',(-0.0014,-0.006775473074615,0.));
#1599=CARTESIAN_POINT('',(-0.001372203991905,-0.00697153233723265,0.));
#1600=CARTESIAN_POINT('',(-0.00137220399190532,-0.00697153233723156,0.));
#1601=CARTESIAN_POINT('',(-0.0014,-0.006875473074615,0.));
#1602=CARTESIAN_POINT('',(0.,-0.0117621958429628,0.));
#1603=CARTESIAN_POINT('',(0.0014,-0.006875473074615,0.));
#1604=CARTESIAN_POINT('',(0.00137220399190532,-0.00697153233723157,0.));
#1605=CARTESIAN_POINT('',(0.0014,-0.006775473074615,0.));
#1606=CARTESIAN_POINT('',(0.0014,-0.006775473074615,0.));
#1607=CARTESIAN_POINT('',(0.0014,-0.00609715376670194,0.));
#1608=CARTESIAN_POINT('',(0.00332138928071088,-0.00530128826803321,0.));
#1609=CARTESIAN_POINT('',(0.00380103346314596,-0.0057809324504683,0.));
#1610=CARTESIAN_POINT('',(0.00395932304307123,-0.00589991253876579,0.));
#1611=CARTESIAN_POINT('',(-0.0014,-0.00609715376670194,0.));
#1612=CARTESIAN_POINT('',(-0.0014,-0.00609715376670194,-0.0056));
#1613=CARTESIAN_POINT('',(-0.0014,-0.006775473074615,-0.0056));
#1614=CARTESIAN_POINT('',(-0.0014,-0.006775473074615,0.));
#1615=CARTESIAN_POINT('',(0.0014,-0.00609715376670194,0.));
#1616=CARTESIAN_POINT('',(0.0014,-0.006775473074615,-0.0028));
#1617=CARTESIAN_POINT('',(0.0014,-0.006775473074615,-0.0056));
#1618=CARTESIAN_POINT('',(0.0014,-0.00609715376670194,-0.0056));
#1619=CARTESIAN_POINT('',(-0.00137220399192856,-0.00697153233715203,0.));
#1620=CARTESIAN_POINT('',(-0.00137220399192856,-0.00697153233715203,-0.0056));
#1621=CARTESIAN_POINT('',(-0.000457401330642856,-0.0101012684993345,0.));
#1622=CARTESIAN_POINT('',(-0.000457401330642856,-0.0101012684993345,-0.0056));
#1623=CARTESIAN_POINT('',(0.000457401330642853,-0.0101012684993345,0.));
#1624=CARTESIAN_POINT('',(0.000457401330642853,-0.0101012684993345,-0.0056));
#1625=CARTESIAN_POINT('',(0.00137220399192856,-0.00697153233715204,0.));
#1626=CARTESIAN_POINT('',(0.00137220399192856,-0.00697153233715204,-0.0056));
#1627=CARTESIAN_POINT('',(-0.001372203991905,-0.00697153233723265,0.));
#1628=CARTESIAN_POINT('',(-0.00137220399190532,-0.00697153233723156,-0.0056));
#1629=CARTESIAN_POINT('',(-0.0014,-0.006875473074615,-0.0056));
#1630=CARTESIAN_POINT('',(0.,-0.0117621958429628,-0.0056));
#1631=CARTESIAN_POINT('',(0.0014,-0.006875473074615,-0.0056));
#1632=CARTESIAN_POINT('',(0.00137220399190532,-0.00697153233723157,-0.0056));
#1633=CARTESIAN_POINT('',(0.001372203991905,-0.00697153233723265,-0.0028));
#1634=CARTESIAN_POINT('',(-0.00332138928071087,-0.00530128826803321,0.));
#1635=CARTESIAN_POINT('',(-0.00380103346314597,-0.0057809324504683,-0.0028));
#1636=CARTESIAN_POINT('',(-0.00380103346314597,-0.0057809324504683,-0.0056));
#1637=CARTESIAN_POINT('',(-0.00332138928071087,-0.00530128826803321,-0.0056));
#1638=CARTESIAN_POINT('',(-0.00589991253872545,-0.00395932304299757,0.));
#1639=CARTESIAN_POINT('',(-0.00589991253872545,-0.00395932304299757,-0.0056));
#1640=CARTESIAN_POINT('',(-0.00746610703708679,-0.00681924387184416,0.));
#1641=CARTESIAN_POINT('',(-0.00746610703708679,-0.00681924387184416,-0.0056));
#1642=CARTESIAN_POINT('',(-0.00681924387184416,-0.00746610703708679,0.));
#1643=CARTESIAN_POINT('',(-0.00681924387184416,-0.00746610703708679,-0.0056));
#1644=CARTESIAN_POINT('',(-0.00395932304299757,-0.00589991253872545,0.));
#1645=CARTESIAN_POINT('',(-0.00395932304299757,-0.00589991253872545,-0.0056));
#1646=CARTESIAN_POINT('',(-0.00589991253876578,-0.00395932304307122,0.));
#1647=CARTESIAN_POINT('',(-0.00589991253876524,-0.00395932304307024,-0.0056));
#1648=CARTESIAN_POINT('',(-0.00585164312858696,-0.00387174414126462,-0.0056));
#1649=CARTESIAN_POINT('',(-0.00831712844220318,-0.00831712844220318,-0.0056));
#1650=CARTESIAN_POINT('',(-0.00387174414126462,-0.00585164312858696,-0.0056));
#1651=CARTESIAN_POINT('',(-0.00395932304307024,-0.00589991253876524,-0.0056));
#1652=CARTESIAN_POINT('',(-0.00395932304307122,-0.00589991253876578,-0.0028));
#1653=CARTESIAN_POINT('',(-0.00530128826803321,-0.00332138928071087,0.));
#1654=CARTESIAN_POINT('',(-0.00530128826803321,-0.00332138928071087,-0.0056));
#1655=CARTESIAN_POINT('',(-0.0057809324504683,-0.00380103346314596,-0.0056));
#1656=CARTESIAN_POINT('',(-0.0057809324504683,-0.00380103346314596,0.));
#1657=CARTESIAN_POINT('',(-0.00609715376670194,-0.0014,0.));
#1658=CARTESIAN_POINT('',(-0.00677547307461501,-0.0014,-0.0028));
#1659=CARTESIAN_POINT('',(-0.00677547307461501,-0.0014,-0.0056));
#1660=CARTESIAN_POINT('',(-0.00609715376670194,-0.0014,-0.0056));
#1661=CARTESIAN_POINT('',(-0.00697153233715205,0.00137220399192856,0.));
#1662=CARTESIAN_POINT('',(-0.00697153233715205,0.00137220399192856,-0.0056));
#1663=CARTESIAN_POINT('',(-0.0101012684993345,0.000457401330642854,0.));
#1664=CARTESIAN_POINT('',(-0.0101012684993345,0.000457401330642854,-0.0056));
#1665=CARTESIAN_POINT('',(-0.0101012684993345,-0.000457401330642855,0.));
#1666=CARTESIAN_POINT('',(-0.0101012684993345,-0.000457401330642855,-0.0056));
#1667=CARTESIAN_POINT('',(-0.00697153233715204,-0.00137220399192856,0.));
#1668=CARTESIAN_POINT('',(-0.00697153233715204,-0.00137220399192856,-0.0056));
#1669=CARTESIAN_POINT('',(-0.00697153233723265,0.001372203991905,0.));
#1670=CARTESIAN_POINT('',(-0.00697153233723157,0.00137220399190532,-0.0056));
#1671=CARTESIAN_POINT('',(-0.006875473074615,0.0014,-0.0056));
#1672=CARTESIAN_POINT('',(-0.0117621958429627,1.18810035365554E-18,-0.0056));
#1673=CARTESIAN_POINT('',(-0.006875473074615,-0.0014,-0.0056));
#1674=CARTESIAN_POINT('',(-0.00697153233723156,-0.00137220399190532,-0.0056));
#1675=CARTESIAN_POINT('',(-0.00697153233723265,-0.001372203991905,-0.0028));
#1676=CARTESIAN_POINT('',(-0.00609715376670194,0.0014,0.));
#1677=CARTESIAN_POINT('',(-0.00609715376670194,0.0014,-0.0056));
#1678=CARTESIAN_POINT('',(-0.006775473074615,0.0014,-0.0056));
#1679=CARTESIAN_POINT('',(-0.006775473074615,0.0014,0.));
#1680=CARTESIAN_POINT('',(-0.00530128826803321,0.00332138928071087,0.));
#1681=CARTESIAN_POINT('',(-0.0057809324504683,0.00380103346314596,-0.0028));
#1682=CARTESIAN_POINT('',(-0.0057809324504683,0.00380103346314596,-0.0056));
#1683=CARTESIAN_POINT('',(-0.00530128826803321,0.00332138928071087,-0.0056));
#1684=CARTESIAN_POINT('',(-0.00395932304299756,0.00589991253872545,0.));
#1685=CARTESIAN_POINT('',(-0.00395932304299756,0.00589991253872545,-0.0056));
#1686=CARTESIAN_POINT('',(-0.00681924387184416,0.00746610703708679,0.));
#1687=CARTESIAN_POINT('',(-0.00681924387184416,0.00746610703708679,-0.0056));
#1688=CARTESIAN_POINT('',(-0.00746610703708679,0.00681924387184417,0.));
#1689=CARTESIAN_POINT('',(-0.00746610703708679,0.00681924387184417,-0.0056));
#1690=CARTESIAN_POINT('',(-0.00589991253872544,0.00395932304299758,0.));
#1691=CARTESIAN_POINT('',(-0.00589991253872544,0.00395932304299758,-0.0056));
#1692=CARTESIAN_POINT('',(-0.00395932304307122,0.00589991253876578,0.));
#1693=CARTESIAN_POINT('',(-0.00395932304307023,0.00589991253876524,-0.0056));
#1694=CARTESIAN_POINT('',(-0.00387174414126462,0.00585164312858696,-0.0056));
#1695=CARTESIAN_POINT('',(-0.00831712844220318,0.00831712844220318,-0.0056));
#1696=CARTESIAN_POINT('',(-0.00585164312858695,0.00387174414126463,-0.0056));
#1697=CARTESIAN_POINT('',(-0.00589991253876524,0.00395932304307025,-0.0056));
#1698=CARTESIAN_POINT('',(-0.00589991253876579,0.00395932304307123,-0.0028));
#1699=CARTESIAN_POINT('',(-0.00332138928071087,0.00530128826803321,0.));
#1700=CARTESIAN_POINT('',(-0.00332138928071087,0.00530128826803321,-0.0056));
#1701=CARTESIAN_POINT('',(-0.00380103346314596,0.0057809324504683,-0.0056));
#1702=CARTESIAN_POINT('',(-0.00380103346314596,0.0057809324504683,0.));
#1703=CARTESIAN_POINT('',(-0.0014,0.00609715376670194,0.));
#1704=CARTESIAN_POINT('',(-0.0014,0.00677547307461501,-0.0028));
#1705=CARTESIAN_POINT('',(-0.0014,0.00677547307461501,-0.0056));
#1706=CARTESIAN_POINT('',(-0.0014,0.00609715376670194,-0.0056));
#1707=CARTESIAN_POINT('',(0.00137220399192856,0.00697153233715204,0.));
#1708=CARTESIAN_POINT('',(0.00137220399192856,0.00697153233715204,-0.0056));
#1709=CARTESIAN_POINT('',(0.000457401330642855,0.0101012684993345,0.));
#1710=CARTESIAN_POINT('',(0.000457401330642855,0.0101012684993345,-0.0056));
#1711=CARTESIAN_POINT('',(-0.000457401330642852,0.0101012684993345,0.));
#1712=CARTESIAN_POINT('',(-0.000457401330642852,0.0101012684993345,-0.0056));
#1713=CARTESIAN_POINT('',(-0.00137220399192856,0.00697153233715205,0.));
#1714=CARTESIAN_POINT('',(-0.00137220399192856,0.00697153233715205,-0.0056));
#1715=CARTESIAN_POINT('',(0.00137220399190501,0.00697153233723265,0.));
#1716=CARTESIAN_POINT('',(0.00137220399190532,0.00697153233723157,-0.0056));
#1717=CARTESIAN_POINT('',(0.0014,0.006875473074615,-0.0056));
#1718=CARTESIAN_POINT('',(2.37620070731108E-18,0.0117621958429628,-0.0056));
#1719=CARTESIAN_POINT('',(-0.0014,0.006875473074615,-0.0056));
#1720=CARTESIAN_POINT('',(-0.00137220399190532,0.00697153233723157,-0.0056));
#1721=CARTESIAN_POINT('',(-0.001372203991905,0.00697153233723265,-0.0028));
#1722=CARTESIAN_POINT('',(0.0014,0.00609715376670194,0.));
#1723=CARTESIAN_POINT('',(0.0014,0.00609715376670194,-0.0056));
#1724=CARTESIAN_POINT('',(0.0014,0.00677547307461501,-0.0056));
#1725=CARTESIAN_POINT('',(0.0014,0.00677547307461501,0.));
#1726=CARTESIAN_POINT('',(0.00332138928071087,0.00530128826803321,0.));
#1727=CARTESIAN_POINT('',(0.00380103346314597,0.00578093245046831,-0.0028));
#1728=CARTESIAN_POINT('',(0.00380103346314597,0.00578093245046831,-0.0056));
#1729=CARTESIAN_POINT('',(0.00332138928071087,0.00530128826803321,-0.0056));
#1730=CARTESIAN_POINT('',(0.00589991253872545,0.00395932304299757,0.));
#1731=CARTESIAN_POINT('',(0.00589991253872545,0.00395932304299757,-0.0056));
#1732=CARTESIAN_POINT('',(0.0074661070370868,0.00681924387184417,0.));
#1733=CARTESIAN_POINT('',(0.0074661070370868,0.00681924387184417,-0.0056));
#1734=CARTESIAN_POINT('',(0.00681924387184417,0.00746610703708679,0.));
#1735=CARTESIAN_POINT('',(0.00681924387184417,0.00746610703708679,-0.0056));
#1736=CARTESIAN_POINT('',(0.00395932304299757,0.00589991253872545,0.));
#1737=CARTESIAN_POINT('',(0.00395932304299757,0.00589991253872545,-0.0056));
#1738=CARTESIAN_POINT('',(0.00589991253876579,0.00395932304307123,0.));
#1739=CARTESIAN_POINT('',(0.00589991253876525,0.00395932304307024,-0.0056));
#1740=CARTESIAN_POINT('',(0.00585164312858696,0.00387174414126462,-0.0056));
#1741=CARTESIAN_POINT('',(0.00831712844220319,0.00831712844220318,-0.0056));
#1742=CARTESIAN_POINT('',(0.00387174414126463,0.00585164312858696,-0.0056));
#1743=CARTESIAN_POINT('',(0.00395932304307024,0.00589991253876524,-0.0056));
#1744=CARTESIAN_POINT('',(0.00395932304307122,0.00589991253876578,-0.0028));
#1745=CARTESIAN_POINT('',(0.00530128826803321,0.00332138928071088,0.));
#1746=CARTESIAN_POINT('',(0.00530128826803321,0.00332138928071088,-0.0056));
#1747=CARTESIAN_POINT('',(0.0057809324504683,0.00380103346314597,-0.0056));
#1748=CARTESIAN_POINT('',(0.0057809324504683,0.00380103346314597,0.));
#1749=CARTESIAN_POINT('',(0.00609715376670194,0.0014,0.));
#1750=CARTESIAN_POINT('',(0.00677547307461501,0.0014,-0.0028));
#1751=CARTESIAN_POINT('',(0.00677547307461501,0.0014,-0.0056));
#1752=CARTESIAN_POINT('',(0.00609715376670194,0.0014,-0.0056));
#1753=CARTESIAN_POINT('',(0.00697153233715205,-0.00137220399192856,0.));
#1754=CARTESIAN_POINT('',(0.00697153233715205,-0.00137220399192856,-0.0056));
#1755=CARTESIAN_POINT('',(0.0101012684993345,-0.000457401330642854,0.));
#1756=CARTESIAN_POINT('',(0.0101012684993345,-0.000457401330642854,-0.0056));
#1757=CARTESIAN_POINT('',(0.0101012684993345,0.000457401330642854,0.));
#1758=CARTESIAN_POINT('',(0.0101012684993345,0.000457401330642854,-0.0056));
#1759=CARTESIAN_POINT('',(0.00697153233715205,0.00137220399192856,0.));
#1760=CARTESIAN_POINT('',(0.00697153233715205,0.00137220399192856,-0.0056));
#1761=CARTESIAN_POINT('',(0.00697153233723265,-0.001372203991905,0.));
#1762=CARTESIAN_POINT('',(0.00697153233723157,-0.00137220399190532,-0.0056));
#1763=CARTESIAN_POINT('',(0.006875473074615,-0.0014,-0.0056));
#1764=CARTESIAN_POINT('',(0.0117621958429628,2.52353195347323E-19,-0.0056));
#1765=CARTESIAN_POINT('',(0.006875473074615,0.0014,-0.0056));
#1766=CARTESIAN_POINT('',(0.00697153233723157,0.00137220399190532,-0.0056));
#1767=CARTESIAN_POINT('',(0.00697153233723265,0.001372203991905,-0.0028));
#1768=CARTESIAN_POINT('',(0.00609715376670194,-0.0014,0.));
#1769=CARTESIAN_POINT('',(0.00609715376670194,-0.0014,-0.0056));
#1770=CARTESIAN_POINT('',(0.00677547307461501,-0.0014,-0.0056));
#1771=CARTESIAN_POINT('',(0.00677547307461501,-0.0014,0.));
#1772=CARTESIAN_POINT('',(0.00530128826803321,-0.00332138928071087,0.));
#1773=CARTESIAN_POINT('',(0.0057809324504683,-0.00380103346314597,-0.0028));
#1774=CARTESIAN_POINT('',(0.0057809324504683,-0.00380103346314597,-0.0056));
#1775=CARTESIAN_POINT('',(0.00530128826803321,-0.00332138928071087,-0.0056));
#1776=CARTESIAN_POINT('',(0.00395932304299757,-0.00589991253872545,0.));
#1777=CARTESIAN_POINT('',(0.00395932304299757,-0.00589991253872545,-0.0056));
#1778=CARTESIAN_POINT('',(0.00681924387184417,-0.0074661070370868,0.));
#1779=CARTESIAN_POINT('',(0.00681924387184417,-0.0074661070370868,-0.0056));
#1780=CARTESIAN_POINT('',(0.00746610703708679,-0.00681924387184417,0.));
#1781=CARTESIAN_POINT('',(0.00746610703708679,-0.00681924387184417,-0.0056));
#1782=CARTESIAN_POINT('',(0.00589991253872545,-0.00395932304299757,0.));
#1783=CARTESIAN_POINT('',(0.00589991253872545,-0.00395932304299757,-0.0056));
#1784=CARTESIAN_POINT('',(0.00395932304307123,-0.00589991253876579,0.));
#1785=CARTESIAN_POINT('',(0.00395932304307024,-0.00589991253876525,-0.0056));
#1786=CARTESIAN_POINT('',(0.00387174414126462,-0.00585164312858696,-0.0056));
#1787=CARTESIAN_POINT('',(0.00831712844220318,-0.00831712844220319,-0.0056));
#1788=CARTESIAN_POINT('',(0.00585164312858696,-0.00387174414126463,-0.0056));
#1789=CARTESIAN_POINT('',(0.00589991253876524,-0.00395932304307024,-0.0056));
#1790=CARTESIAN_POINT('',(0.00589991253876578,-0.00395932304307123,-0.0028));
#1791=CARTESIAN_POINT('',(0.00332138928071088,-0.00530128826803321,0.));
#1792=CARTESIAN_POINT('',(0.00332138928071088,-0.00530128826803321,-0.0056));
#1793=CARTESIAN_POINT('',(0.00380103346314596,-0.0057809324504683,-0.0056));
#1794=CARTESIAN_POINT('',(0.00380103346314596,-0.0057809324504683,0.));
#1795=CARTESIAN_POINT('',(0.0057809324504683,-0.00380103346314597,-0.0014));
#1796=CARTESIAN_POINT('',(0.0057809324504683,-0.00380103346314597,-0.0056));
#1797=CARTESIAN_POINT('',(0.00395932304307123,-0.00589991253876579,-0.0014));
#1798=CARTESIAN_POINT('',(0.00395932304307123,-0.00589991253876579,-0.0056));
#1799=CARTESIAN_POINT('',(0.006775473074615,0.0014,-0.0014));
#1800=CARTESIAN_POINT('',(0.006775473074615,0.0014,-0.0056));
#1801=CARTESIAN_POINT('',(0.00697153233723265,-0.001372203991905,-0.0014));
#1802=CARTESIAN_POINT('',(0.00697153233723265,-0.001372203991905,-0.0056));
#1803=CARTESIAN_POINT('',(0.00380103346314597,0.00578093245046831,-0.0014));
#1804=CARTESIAN_POINT('',(0.00380103346314597,0.00578093245046831,-0.0056));
#1805=CARTESIAN_POINT('',(0.00589991253876579,0.00395932304307123,-0.0014));
#1806=CARTESIAN_POINT('',(0.00589991253876579,0.00395932304307123,-0.0056));
#1807=CARTESIAN_POINT('',(-0.0014,0.006775473074615,-0.0014));
#1808=CARTESIAN_POINT('',(-0.0014,0.006775473074615,-0.0056));
#1809=CARTESIAN_POINT('',(0.00137220399190501,0.00697153233723265,-0.0014));
#1810=CARTESIAN_POINT('',(0.00137220399190501,0.00697153233723265,-0.0056));
#1811=CARTESIAN_POINT('',(-0.0057809324504683,0.00380103346314596,-0.0014));
#1812=CARTESIAN_POINT('',(-0.0057809324504683,0.00380103346314596,-0.0056));
#1813=CARTESIAN_POINT('',(-0.00395932304307122,0.00589991253876578,-0.0014));
#1814=CARTESIAN_POINT('',(-0.00395932304307122,0.00589991253876578,-0.0056));
#1815=CARTESIAN_POINT('',(-0.006775473074615,-0.0014,-0.0014));
#1816=CARTESIAN_POINT('',(-0.006775473074615,-0.0014,-0.0056));
#1817=CARTESIAN_POINT('',(-0.00697153233723265,0.001372203991905,-0.0014));
#1818=CARTESIAN_POINT('',(-0.00697153233723265,0.001372203991905,-0.0056));
#1819=CARTESIAN_POINT('',(-0.00380103346314597,-0.0057809324504683,-0.0014));
#1820=CARTESIAN_POINT('',(-0.00380103346314597,-0.0057809324504683,-0.0056));
#1821=CARTESIAN_POINT('',(-0.00589991253876578,-0.00395932304307123,-0.0014));
#1822=CARTESIAN_POINT('',(-0.00589991253876578,-0.00395932304307123,-0.0056));
#1823=CARTESIAN_POINT('',(0.0014,-0.006775473074615,-0.0014));
#1824=CARTESIAN_POINT('',(0.0014,-0.006775473074615,-0.0056));
#1825=CARTESIAN_POINT('',(-0.001372203991905,-0.00697153233723265,-0.0014));
#1826=CARTESIAN_POINT('',(-0.001372203991905,-0.00697153233723265,-0.0056));
#1827=CARTESIAN_POINT('',(0.,2.02066721859313E-19,-0.0179));
#1828=CARTESIAN_POINT('',(0.,2.02066721859313E-19,-0.017725));
#1829=CARTESIAN_POINT('',(0.0033,2.02066721859313E-19,-0.017725));
#1830=CARTESIAN_POINT('',(0.,2.02066721859313E-19,-0.0056));
#1831=CARTESIAN_POINT('',(0.0033,2.02066721859313E-19,-0.0056));
#1832=CARTESIAN_POINT('',(0.,0.,-0.0179));
#1833=CARTESIAN_POINT('',(0.,2.02066721859313E-19,-0.0179));
#1834=CARTESIAN_POINT('',(0.003125,2.02066721859313E-19,-0.0179));
#1835=CARTESIAN_POINT('',(0.,2.02066721859313E-19,-0.017725));
#1836=CARTESIAN_POINT('',(0.,0.,-0.0056));
#1837=CARTESIAN_POINT('',(0.,1.68388934882761E-19,0.01175));
#1838=CARTESIAN_POINT('',(0.,1.68388934882761E-19,0.01175));
#1839=CARTESIAN_POINT('',(0.00275,1.68388934882761E-19,0.01175));
#1840=CARTESIAN_POINT('',(0.,1.68388934882761E-19,0.0093));
#1841=CARTESIAN_POINT('',(0.00275,1.68388934882761E-19,0.0093));
#1842=CARTESIAN_POINT('',(0.,0.,0.01175));
#1843=CARTESIAN_POINT('',(0.,0.,0.0093));
#1844=MECHANICAL_DESIGN_GEOMETRIC_PRESENTATION_REPRESENTATION('',(#1089),
#1845);
#1845=(
GEOMETRIC_REPRESENTATION_CONTEXT(3)
GLOBAL_UNCERTAINTY_ASSIGNED_CONTEXT((#1846))
GLOBAL_UNIT_ASSIGNED_CONTEXT((#1849,#1848,#1847))
REPRESENTATION_CONTEXT('Part 1','TOP_LEVEL_ASSEMBLY_PART')
);
#1846=UNCERTAINTY_MEASURE_WITH_UNIT(LENGTH_MEASURE(2.E-5),#1849,
'DISTANCE_ACCURACY_VALUE','Maximum Tolerance applied to model');
#1847=(
NAMED_UNIT(*)
SI_UNIT($,.STERADIAN.)
SOLID_ANGLE_UNIT()
);
#1848=(
NAMED_UNIT(*)
PLANE_ANGLE_UNIT()
SI_UNIT($,.RADIAN.)
);
#1849=(
LENGTH_UNIT()
NAMED_UNIT(*)
SI_UNIT($,.METRE.)
);
#1850=PRODUCT_DEFINITION_SHAPE('','',#1851);
#1851=PRODUCT_DEFINITION('','',#1853,#1852);
#1852=PRODUCT_DEFINITION_CONTEXT('',#1859,'design');
#1853=PRODUCT_DEFINITION_FORMATION_WITH_SPECIFIED_SOURCE('','',#1855,
 .NOT_KNOWN.);
#1854=PRODUCT_RELATED_PRODUCT_CATEGORY('','',(#1855));
#1855=PRODUCT('Part 1','Part 1','Part 1',(#1857));
#1856=PRODUCT_CATEGORY('','');
#1857=PRODUCT_CONTEXT('',#1859,'mechanical');
#1858=APPLICATION_PROTOCOL_DEFINITION('international standard',
'ap242_managed_model_based_3d_engineering',2020,#1859);
#1859=APPLICATION_CONTEXT('managed model based 3d engineering');
ENDSEC;
END-ISO-10303-21;
